<svg width="105" height="62" viewBox="0 0 105 62" fill="none" xmlns="http://www.w3.org/2000/svg">
<rect x="0.5" y="0.5" width="104" height="61" rx="11.5" fill="white"/>
<rect x="0.5" y="0.5" width="104" height="61" rx="11.5" stroke="#F2F2F7"/>
<path d="M20.358 16.18H16.928V25H15.668V16.18H12.238V15.06H20.358V16.18ZM27.8356 25H26.6036V20.912C26.6036 20.1653 26.4683 19.6053 26.1976 19.232C25.9363 18.8587 25.5583 18.672 25.0636 18.672C24.7463 18.672 24.4243 18.756 24.0976 18.924C23.7803 19.092 23.5003 19.3207 23.2576 19.61C23.0149 19.89 22.8376 20.2167 22.7256 20.59V25H21.4936V14.78H22.7256V19.26C23.0149 18.7373 23.4069 18.3267 23.9016 18.028C24.4056 17.72 24.9469 17.566 25.5256 17.566C25.9643 17.566 26.3283 17.6453 26.6176 17.804C26.9163 17.9533 27.1543 18.168 27.3316 18.448C27.5089 18.728 27.6349 19.0547 27.7096 19.428C27.7936 19.792 27.8356 20.1933 27.8356 20.632V25ZM29.0774 22.886C29.0774 22.4193 29.2081 22.018 29.4694 21.682C29.7401 21.3367 30.1088 21.0707 30.5754 20.884C31.0421 20.6973 31.5834 20.604 32.1994 20.604C32.5261 20.604 32.8714 20.632 33.2354 20.688C33.5994 20.7347 33.9214 20.8093 34.2014 20.912V20.38C34.2014 19.82 34.0334 19.3813 33.6974 19.064C33.3614 18.7373 32.8854 18.574 32.2694 18.574C31.8681 18.574 31.4808 18.6487 31.1074 18.798C30.7434 18.938 30.3561 19.1433 29.9454 19.414L29.4974 18.546C29.9734 18.2193 30.4494 17.9767 30.9254 17.818C31.4014 17.65 31.8961 17.566 32.4094 17.566C33.3428 17.566 34.0801 17.8273 34.6214 18.35C35.1628 18.8633 35.4334 19.582 35.4334 20.506V23.6C35.4334 23.7493 35.4614 23.8613 35.5174 23.936C35.5828 24.0013 35.6854 24.0387 35.8254 24.048V25C35.7041 25.0187 35.5968 25.0327 35.5034 25.042C35.4194 25.0513 35.3494 25.056 35.2934 25.056C35.0041 25.056 34.7848 24.9767 34.6354 24.818C34.4954 24.6593 34.4161 24.4913 34.3974 24.314L34.3694 23.852C34.0521 24.2627 33.6368 24.58 33.1234 24.804C32.6101 25.028 32.1014 25.14 31.5974 25.14C31.1121 25.14 30.6781 25.042 30.2954 24.846C29.9128 24.6407 29.6141 24.37 29.3994 24.034C29.1848 23.6887 29.0774 23.306 29.0774 22.886ZM33.8374 23.404C33.9494 23.2733 34.0381 23.1427 34.1034 23.012C34.1688 22.872 34.2014 22.7553 34.2014 22.662V21.752C33.9121 21.64 33.6088 21.556 33.2914 21.5C32.9741 21.4347 32.6614 21.402 32.3534 21.402C31.7281 21.402 31.2194 21.528 30.8274 21.78C30.4448 22.0227 30.2534 22.3587 30.2534 22.788C30.2534 23.0213 30.3141 23.25 30.4354 23.474C30.5661 23.6887 30.7528 23.866 30.9954 24.006C31.2474 24.146 31.5554 24.216 31.9194 24.216C32.3021 24.216 32.6661 24.1413 33.0114 23.992C33.3568 23.8333 33.6321 23.6373 33.8374 23.404ZM30.9254 14.766H32.1434L32.9694 16.18L32.1714 16.46L30.9254 14.766ZM43.6454 25H42.4134V20.912C42.4134 20.1373 42.292 19.5727 42.0494 19.218C41.816 18.854 41.4567 18.672 40.9714 18.672C40.6354 18.672 40.2994 18.756 39.9634 18.924C39.6367 19.092 39.3427 19.3207 39.0814 19.61C38.8294 19.89 38.6474 20.2167 38.5354 20.59V25H37.3034V17.692H38.4234V19.26C38.6194 18.9147 38.8714 18.616 39.1794 18.364C39.4874 18.112 39.8374 17.916 40.2294 17.776C40.6214 17.636 41.032 17.566 41.4614 17.566C41.8814 17.566 42.2314 17.6453 42.5114 17.804C42.8007 17.9533 43.0247 18.168 43.1834 18.448C43.3514 18.7187 43.468 19.0407 43.5334 19.414C43.608 19.7873 43.6454 20.1933 43.6454 20.632V25ZM51.8032 25H50.5712V20.912C50.5712 20.1653 50.4359 19.6053 50.1652 19.232C49.9039 18.8587 49.5259 18.672 49.0312 18.672C48.7139 18.672 48.3919 18.756 48.0652 18.924C47.7479 19.092 47.4679 19.3207 47.2252 19.61C46.9825 19.89 46.8052 20.2167 46.6932 20.59V25H45.4612V14.78H46.6932V19.26C46.9825 18.7373 47.3745 18.3267 47.8692 18.028C48.3732 17.72 48.9145 17.566 49.4932 17.566C49.9319 17.566 50.2959 17.6453 50.5852 17.804C50.8839 17.9533 51.1219 18.168 51.2992 18.448C51.4765 18.728 51.6025 19.0547 51.6772 19.428C51.7612 19.792 51.8032 20.1933 51.8032 20.632V25ZM57.088 14.78H58.32V23.11C58.32 23.5113 58.376 23.7587 58.488 23.852C58.6 23.9453 58.7354 23.992 58.894 23.992C59.09 23.992 59.2767 23.9733 59.454 23.936C59.6314 23.8893 59.7807 23.8427 59.902 23.796L60.098 24.804C59.8927 24.888 59.65 24.958 59.37 25.014C59.09 25.07 58.8427 25.098 58.628 25.098C58.152 25.098 57.774 24.9627 57.494 24.692C57.2234 24.4213 57.088 24.0433 57.088 23.558V14.78ZM60.3919 22.886C60.3919 22.4193 60.5225 22.018 60.7839 21.682C61.0545 21.3367 61.4232 21.0707 61.8899 20.884C62.3565 20.6973 62.8979 20.604 63.5139 20.604C63.8405 20.604 64.1859 20.632 64.5499 20.688C64.9139 20.7347 65.2359 20.8093 65.5159 20.912V20.38C65.5159 19.82 65.3479 19.3813 65.0119 19.064C64.6759 18.7373 64.1999 18.574 63.5839 18.574C63.1825 18.574 62.7952 18.6487 62.4219 18.798C62.0579 18.938 61.6705 19.1433 61.2599 19.414L60.8119 18.546C61.2879 18.2193 61.7639 17.9767 62.2399 17.818C62.7159 17.65 63.2105 17.566 63.7239 17.566C64.6572 17.566 65.3945 17.8273 65.9359 18.35C66.4772 18.8633 66.7479 19.582 66.7479 20.506V23.6C66.7479 23.7493 66.7759 23.8613 66.8319 23.936C66.8972 24.0013 66.9999 24.0387 67.1399 24.048V25C67.0185 25.0187 66.9112 25.0327 66.8179 25.042C66.7339 25.0513 66.6639 25.056 66.6079 25.056C66.3185 25.056 66.0992 24.9767 65.9499 24.818C65.8099 24.6593 65.7305 24.4913 65.7119 24.314L65.6839 23.852C65.3665 24.2627 64.9512 24.58 64.4379 24.804C63.9245 25.028 63.4159 25.14 62.9119 25.14C62.4265 25.14 61.9925 25.042 61.6099 24.846C61.2272 24.6407 60.9285 24.37 60.7139 24.034C60.4992 23.6887 60.3919 23.306 60.3919 22.886ZM65.1519 23.404C65.2639 23.2733 65.3525 23.1427 65.4179 23.012C65.4832 22.872 65.5159 22.7553 65.5159 22.662V21.752C65.2265 21.64 64.9232 21.556 64.6059 21.5C64.2885 21.4347 63.9759 21.402 63.6679 21.402C63.0425 21.402 62.5339 21.528 62.1419 21.78C61.7592 22.0227 61.5679 22.3587 61.5679 22.788C61.5679 23.0213 61.6285 23.25 61.7499 23.474C61.8805 23.6887 62.0672 23.866 62.3099 24.006C62.5619 24.146 62.8699 24.216 63.2339 24.216C63.6165 24.216 63.9805 24.1413 64.3259 23.992C64.6712 23.8333 64.9465 23.6373 65.1519 23.404ZM63.5979 27.618V26.134H64.7179V27.618H63.5979ZM61.8339 16.04L63.2479 14.78H64.1439L65.5579 16.04L64.8859 16.376L63.6959 15.494L62.5059 16.376L61.8339 16.04ZM72.5518 25.14C71.9545 25.14 71.4225 24.9907 70.9558 24.692C70.4892 24.3933 70.1205 24.0153 69.8498 23.558V27.982H68.6178V17.692H69.7098V19.064C69.9992 18.616 70.3772 18.2567 70.8438 17.986C71.3105 17.706 71.8192 17.566 72.3698 17.566C72.8738 17.566 73.3358 17.6687 73.7558 17.874C74.1758 18.0793 74.5398 18.3593 74.8478 18.714C75.1558 19.0687 75.3938 19.4747 75.5618 19.932C75.7392 20.38 75.8278 20.8513 75.8278 21.346C75.8278 22.0367 75.6878 22.6713 75.4078 23.25C75.1372 23.8287 74.7545 24.2907 74.2598 24.636C73.7652 24.972 73.1958 25.14 72.5518 25.14ZM72.1738 24.076C72.5378 24.076 72.8645 24.0013 73.1538 23.852C73.4525 23.6933 73.7045 23.488 73.9098 23.236C74.1245 22.9747 74.2878 22.6807 74.3998 22.354C74.5118 22.0273 74.5678 21.6913 74.5678 21.346C74.5678 20.982 74.5025 20.6367 74.3718 20.31C74.2505 19.9833 74.0732 19.694 73.8398 19.442C73.6158 19.19 73.3498 18.994 73.0418 18.854C72.7432 18.7047 72.4165 18.63 72.0618 18.63C71.8378 18.63 71.6045 18.672 71.3618 18.756C71.1285 18.84 70.9045 18.9613 70.6898 19.12C70.4752 19.2693 70.2932 19.442 70.1438 19.638C69.9945 19.834 69.8965 20.044 69.8498 20.268V22.354C69.9898 22.6713 70.1765 22.9607 70.4098 23.222C70.6432 23.4833 70.9138 23.6933 71.2218 23.852C71.5298 24.0013 71.8472 24.076 72.1738 24.076ZM84.4615 24.636C84.3588 24.6827 84.2188 24.7433 84.0415 24.818C83.8642 24.8927 83.6588 24.958 83.4255 25.014C83.1922 25.07 82.9448 25.098 82.6835 25.098C82.3848 25.098 82.1095 25.0467 81.8575 24.944C81.6055 24.832 81.4048 24.664 81.2555 24.44C81.1062 24.2067 81.0315 23.9173 81.0315 23.572V18.658H80.0375V17.692H81.0315V15.256H82.2635V17.692H83.9015V18.658H82.2635V23.194C82.2822 23.4553 82.3708 23.6513 82.5295 23.782C82.6882 23.9033 82.8748 23.964 83.0895 23.964C83.3322 23.964 83.5562 23.922 83.7615 23.838C83.9668 23.754 84.1022 23.6933 84.1675 23.656L84.4615 24.636ZM85.4334 22.074V17.692H86.6654V21.836C86.6654 22.5827 86.796 23.1427 87.0574 23.516C87.3187 23.8893 87.706 24.076 88.2194 24.076C88.5554 24.076 88.8774 24.006 89.1854 23.866C89.5027 23.7167 89.7874 23.5067 90.0394 23.236C90.2914 22.9653 90.4874 22.6433 90.6274 22.27V17.692H91.8594V23.6C91.8594 23.7493 91.8874 23.8613 91.9434 23.936C92.0087 24.0013 92.1114 24.0387 92.2514 24.048V25C92.1114 25.0187 91.9994 25.028 91.9154 25.028C91.8407 25.0373 91.766 25.042 91.6914 25.042C91.458 25.042 91.2574 24.972 91.0894 24.832C90.9214 24.6827 90.8327 24.5007 90.8234 24.286L90.7954 23.432C90.478 23.9733 90.0487 24.3933 89.5074 24.692C88.9754 24.9907 88.392 25.14 87.7574 25.14C86.992 25.14 86.4134 24.8833 86.0214 24.37C85.6294 23.8473 85.4334 23.082 85.4334 22.074ZM91.0474 18.588L91.0754 17.692C91.402 17.692 91.6447 17.664 91.8034 17.608C91.9714 17.552 92.102 17.4727 92.1954 17.37C92.2887 17.2487 92.3494 17.1227 92.3774 16.992C92.4054 16.852 92.424 16.6933 92.4334 16.516H93.4414C93.432 16.684 93.4087 16.852 93.3714 17.02C93.3434 17.188 93.2967 17.3513 93.2314 17.51C93.166 17.6593 93.0727 17.804 92.9514 17.944C92.83 18.084 92.6714 18.2053 92.4754 18.308C92.2887 18.4013 92.074 18.4713 91.8314 18.518C91.5887 18.5647 91.3274 18.588 91.0474 18.588ZM87.1694 14.766H88.3874L89.2134 16.18L88.4154 16.46L87.1694 14.766Z" fill="#48484A"/>
<path d="M12.6857 47C12.6857 46.3493 12.7284 45.7787 12.8137 45.288C12.899 44.7867 13.0324 44.344 13.2137 43.96C13.4057 43.5653 13.651 43.2187 13.9497 42.92C14.2484 42.6213 14.6164 42.3387 15.0537 42.072C15.427 41.8587 15.811 41.6507 16.2057 41.448C16.611 41.2453 16.9844 41.032 17.3257 40.808C17.6777 40.584 17.9604 40.328 18.1737 40.04C18.3977 39.752 18.5097 39.4 18.5097 38.984C18.5097 38.664 18.4404 38.392 18.3017 38.168C18.1737 37.9333 17.9817 37.752 17.7257 37.624C17.4804 37.496 17.1817 37.432 16.8297 37.432C16.4244 37.432 16.0457 37.5067 15.6937 37.656C15.3524 37.7947 15.043 37.9707 14.7657 38.184C14.499 38.3867 14.2697 38.5893 14.0777 38.792L12.7337 37.384C12.883 37.2133 13.0857 37.0213 13.3417 36.808C13.6084 36.5947 13.923 36.3867 14.2857 36.184C14.659 35.9813 15.0804 35.816 15.5497 35.688C16.019 35.56 16.5364 35.496 17.1017 35.496C17.9337 35.496 18.6324 35.6453 19.1977 35.944C19.763 36.232 20.1897 36.632 20.4777 37.144C20.7764 37.6453 20.9257 38.2267 20.9257 38.888C20.9257 39.368 20.8457 39.7947 20.6857 40.168C20.5364 40.5307 20.3284 40.8507 20.0617 41.128C19.795 41.4053 19.4964 41.656 19.1657 41.88C18.835 42.0933 18.4937 42.3013 18.1417 42.504C17.587 42.8027 17.139 43.064 16.7977 43.288C16.4564 43.512 16.1844 43.72 15.9817 43.912C15.7897 44.104 15.6404 44.296 15.5337 44.488C15.4377 44.6693 15.3524 44.8613 15.2777 45.064H20.9417V47H12.6857ZM27.4641 47.16C26.6641 47.1493 25.9547 46.968 25.3361 46.616C24.7174 46.264 24.2001 45.8 23.7841 45.224C23.3681 44.648 23.0534 44.0293 22.8401 43.368C22.6374 42.696 22.5361 42.04 22.5361 41.4C22.5361 40.7173 22.6481 40.0347 22.8721 39.352C23.0961 38.6693 23.4214 38.0507 23.8481 37.496C24.2854 36.9307 24.8081 36.4827 25.4161 36.152C26.0241 35.8107 26.7067 35.64 27.4641 35.64C28.2854 35.64 29.0001 35.8213 29.6081 36.184C30.2267 36.5467 30.7441 37.016 31.1601 37.592C31.5761 38.168 31.8854 38.792 32.0881 39.464C32.3014 40.136 32.4081 40.7813 32.4081 41.4C32.4081 42.0933 32.2961 42.7813 32.0721 43.464C31.8481 44.136 31.5174 44.7493 31.0801 45.304C30.6534 45.8587 30.1361 46.3067 29.5281 46.648C28.9201 46.9787 28.2321 47.1493 27.4641 47.16ZM24.7601 41.4C24.7707 41.848 24.8294 42.296 24.9361 42.744C25.0534 43.1813 25.2187 43.5867 25.4321 43.96C25.6561 44.3333 25.9387 44.6373 26.2801 44.872C26.6214 45.096 27.0161 45.208 27.4641 45.208C27.9441 45.208 28.3547 45.0853 28.6961 44.84C29.0374 44.5947 29.3147 44.28 29.5281 43.896C29.7521 43.512 29.9174 43.1013 30.0241 42.664C30.1307 42.2267 30.1841 41.8053 30.1841 41.4C30.1841 40.952 30.1254 40.5093 30.0081 40.072C29.9014 39.624 29.7307 39.2133 29.4961 38.84C29.2721 38.4667 28.9894 38.168 28.6481 37.944C28.3174 37.7093 27.9227 37.592 27.4641 37.592C26.9947 37.592 26.5894 37.7147 26.2481 37.96C25.9067 38.2053 25.6241 38.52 25.4001 38.904C25.1867 39.288 25.0267 39.6987 24.9201 40.136C24.8134 40.5733 24.7601 40.9947 24.7601 41.4ZM40.6708 45.064V47H34.2388V45.064H36.4468V37.672C36.3615 37.8 36.2175 37.944 36.0148 38.104C35.8228 38.2533 35.5988 38.4027 35.3428 38.552C35.0975 38.6907 34.8415 38.808 34.5748 38.904C34.3188 39 34.0841 39.048 33.8708 39.048V37.064C34.1588 37.064 34.4521 36.9893 34.7508 36.84C35.0495 36.6907 35.3268 36.52 35.5828 36.328C35.8388 36.136 36.0415 35.96 36.1908 35.8C36.3508 35.6293 36.4361 35.5387 36.4468 35.528H38.6388V45.064H40.6708ZM48.6146 45.064V47H42.1826V45.064H44.3906V37.672C44.3052 37.8 44.1612 37.944 43.9586 38.104C43.7666 38.2533 43.5426 38.4027 43.2866 38.552C43.0412 38.6907 42.7852 38.808 42.5186 38.904C42.2626 39 42.0279 39.048 41.8146 39.048V37.064C42.1026 37.064 42.3959 36.9893 42.6946 36.84C42.9932 36.6907 43.2706 36.52 43.5266 36.328C43.7826 36.136 43.9852 35.96 44.1346 35.8C44.2946 35.6293 44.3799 35.5387 44.3906 35.528H46.5826V45.064H48.6146Z" fill="#FB9600"/>
</svg>
