<?xml version="1.0" encoding="UTF-8"?>
<!-- Generator: visioncortex VTracer 0.6.3 -->
<svg version="1.1" xmlns="http://www.w3.org/2000/svg" width="1280" height="236">
<path d="M0 0 C13.95 -0.09 27.91 -0.16 41.86 -0.21 C48.34 -0.23 54.82 -0.26 61.3 -0.3 C67.56 -0.35 73.83 -0.37 80.09 -0.38 C82.47 -0.39 84.85 -0.4 87.23 -0.42 C100.11 -0.54 111.77 -0.39 124 4 C124.8 4.28 125.6 4.55 126.43 4.83 C135.67 8.21 145.06 12.9 152 20 C153.32 23.28 153.32 23.28 154 26 C151.71 28.48 149.42 30.96 147.12 33.44 C146.47 34.14 145.82 34.85 145.15 35.58 C144.53 36.25 143.9 36.93 143.26 37.62 C142.68 38.24 142.11 38.87 141.51 39.51 C140 41 140 41 138 42 C137.48 41.64 136.96 41.27 136.42 40.9 C119.11 29.07 101.97 22.94 80.85 26.35 C76.77 27.22 72.9 28.54 69 30 C68.09 30.3 67.18 30.6 66.24 30.91 C59.87 33.16 55.04 36.54 50 41 C49.31 41.61 48.62 42.22 47.91 42.84 C36.04 53.98 28.5 70.21 27.66 86.51 C27.33 103.7 30.76 119.95 42.31 133.31 C55.1 146.61 71.24 155.78 89.9 156.35 C108.61 156.56 124.15 151.59 138.55 139.43 C141.02 136.99 142.6 134.16 144.25 131.12 C144.59 130.54 144.93 129.95 145.27 129.35 C148.27 123.99 150.13 118.94 150.05 112.78 C150.03 111.53 150.02 110.28 150 109 C148.95 108.99 148.95 108.99 147.89 108.98 C141.32 108.9 134.76 108.81 128.2 108.71 C124.83 108.66 121.45 108.62 118.08 108.58 C114.2 108.53 110.32 108.47 106.45 108.41 C105.23 108.4 104.02 108.39 102.76 108.38 C101.64 108.36 100.52 108.34 99.37 108.32 C98.38 108.31 97.39 108.29 96.37 108.28 C94 108 94 108 92 106 C91.77 103.66 91.77 103.66 91.8 100.77 C91.81 99.74 91.82 98.71 91.82 97.65 C91.85 96.03 91.85 96.03 91.88 94.38 C91.88 93.29 91.89 92.2 91.9 91.08 C91.93 88.39 91.96 85.69 92 83 C95.1 81.45 98.36 81.87 101.75 81.89 C102.55 81.89 103.35 81.89 104.18 81.89 C106.83 81.89 109.48 81.89 112.13 81.9 C113.97 81.9 115.8 81.91 117.64 81.91 C122.48 81.91 127.31 81.92 132.15 81.93 C137.08 81.94 142.02 81.95 146.95 81.95 C156.63 81.96 166.32 81.98 176 82 C178.75 87.16 178.34 91.98 178.31 97.75 C178.31 99.44 178.31 99.44 178.3 101.16 C177.97 124.32 170.32 144.64 153.58 160.94 C137.11 176.26 116.75 182.18 94.81 182.19 C93.66 182.2 92.5 182.21 91.31 182.22 C65.5 182.27 42.38 171.45 23.73 153.86 C14.13 143.63 7.25 131.31 3 118 C2.75 117.29 2.49 116.58 2.23 115.84 C-1.19 104.73 -0.37 93.14 -0.29 81.64 C-0.29 79.28 -0.28 76.92 -0.28 74.56 C-0.27 68.39 -0.24 62.21 -0.21 56.04 C-0.18 49.72 -0.16 43.41 -0.15 37.09 C-0.11 24.73 -0.06 12.36 0 0 Z " fill="#4581E8" transform="translate(0,0)"/>
<path d="M0 0 C0.43 0.38 0.85 0.75 1.29 1.14 C1.25 0.19 1.21 -0.76 1.17 -1.74 C1.29 -4.86 1.29 -4.86 3.29 -6.86 C5.52 -7.11 5.52 -7.11 8.27 -7.09 C9.25 -7.09 10.23 -7.09 11.24 -7.09 C12.27 -7.08 13.3 -7.06 14.36 -7.05 C15.39 -7.05 16.42 -7.05 17.48 -7.05 C25.15 -7 25.15 -7 26.29 -5.86 C26.4 -4.38 26.43 -2.9 26.44 -1.42 C26.45 -0.45 26.45 0.51 26.46 1.5 C26.46 2.56 26.47 3.62 26.47 4.72 C26.48 5.83 26.48 6.95 26.49 8.1 C26.51 11.81 26.52 15.52 26.53 19.23 C26.54 20.5 26.54 21.77 26.54 23.07 C26.56 29.11 26.58 35.15 26.59 41.18 C26.59 48.11 26.62 55.05 26.66 61.98 C26.7 68 26.71 74.03 26.71 80.06 C26.72 82.61 26.73 85.15 26.75 87.7 C26.9 110.04 25.84 129.84 9.71 146.91 C5.93 150.39 1.87 152.83 -2.71 155.14 C-3.47 155.54 -4.24 155.94 -5.02 156.35 C-9.67 158.62 -13.79 159.65 -18.96 159.96 C-20.73 159.95 -20.73 159.95 -21.71 161.14 C-39.27 162.84 -54.92 157.01 -68.57 146.02 C-74.07 141.16 -78.52 135.76 -81.71 129.14 C-81.71 127.82 -81.71 126.5 -81.71 125.14 C-79.17 124.01 -76.62 122.88 -74.08 121.76 C-73.37 121.44 -72.66 121.13 -71.92 120.8 C-67.9 119.03 -63.91 117.45 -59.71 116.14 C-59.32 116.78 -58.93 117.42 -58.53 118.08 C-52.83 126.88 -45.76 133.15 -35.41 135.77 C-26.74 136.96 -18.19 135.76 -10.71 131.14 C-4.59 126.41 -0.83 118.74 0.29 111.14 C0.51 108.53 0.7 105.93 0.86 103.32 C0.92 102.28 0.92 102.28 0.99 101.22 C1.09 99.53 1.19 97.83 1.29 96.14 C-2.7 98.48 -6.47 101.04 -10.23 103.73 C-20.31 109.44 -35.67 108.64 -46.58 105.7 C-61.28 100.36 -74.52 90.06 -81.71 76.14 C-88.09 60.29 -89.33 42.85 -83.25 26.69 C-76.67 11.55 -65.68 -0.38 -50.33 -6.68 C-32.72 -12.93 -14.95 -12.23 0 0 Z " fill="#4582E9" transform="translate(530.70703125,74.86328125)"/>
<path d="M0 0 C1.25 1.02 2.48 2.06 3.69 3.12 C4.27 3.6 4.85 4.08 5.45 4.57 C16.77 14.7 22.88 31.26 23.89 46.1 C24.16 64.14 18.09 78.67 6.03 91.95 C-6.08 103.77 -22.92 108.14 -39.31 108.12 C-53.29 107.42 -65.4 101.64 -76.31 93.12 C-76.94 92.7 -77.56 92.28 -78.2 91.84 C-87.42 85.07 -93.55 71.1 -95.31 60.12 C-96.31 48.21 -96.68 36.07 -91.31 25.12 C-90.9 24.21 -90.49 23.3 -90.06 22.36 C-83.32 8.66 -71.88 -1.7 -57.74 -7.29 C-38.52 -13.4 -16.82 -12.11 0 0 Z " fill="#F2C119" transform="translate(410.3125,74.875)"/>
<path d="M0 0 C13.33 12.94 20.17 27.82 20.65 46.64 C20.17 62.71 14.99 77.05 3.78 88.76 C-0.4 92.57 -4.81 95.82 -9.72 98.64 C-10.71 99.21 -10.71 99.21 -11.73 99.79 C-24.97 106.47 -41.42 107.15 -55.66 103.64 C-68.07 99.29 -79.36 92.9 -87.72 82.64 C-88.23 82.02 -88.74 81.39 -89.26 80.75 C-98.03 68.36 -99.91 51.57 -98.45 36.89 C-95.63 20.7 -87.53 7.54 -74.54 -2.46 C-52.9 -17.06 -20.22 -17.55 0 0 Z " fill="#D73238" transform="translate(284.72265625,77.36328125)"/>
<path d="M0 0 C1.01 -0.03 2.01 -0.07 3.05 -0.1 C10.45 -0.15 10.45 -0.15 13.59 2.6 C14.1 3.54 14.6 4.47 15.12 5.44 C15.72 6.35 16.31 7.27 16.91 8.21 C17.52 9.21 18.13 10.22 18.75 11.25 C19.45 12.4 20.15 13.56 20.85 14.71 C21.22 15.31 21.59 15.92 21.97 16.54 C23.99 19.86 26.06 23.15 28.12 26.44 C31.07 31.13 33.99 35.84 36.88 40.56 C40.42 46.33 44.05 52.04 47.69 57.75 C56.25 71.17 64.68 84.67 73.08 98.19 C75.42 101.95 77.77 105.7 80.12 109.44 C80.74 110.42 81.36 111.4 82 112.41 C82.53 113.24 83.07 114.08 83.62 114.94 C84.07 115.63 84.51 116.32 84.97 117.03 C85.35 117.5 85.73 117.96 86.12 118.44 C86.78 118.44 87.44 118.44 88.12 118.44 C88.12 79.83 88.12 41.22 88.12 1.44 C91.43 -0.22 95.12 0.34 98.75 0.38 C99.95 0.38 99.95 0.38 101.18 0.39 C103.16 0.4 105.14 0.42 107.12 0.44 C108.51 3.2 108.25 5.43 108.25 8.52 C108.25 10.47 108.25 10.47 108.25 12.46 C108.25 13.91 108.24 15.35 108.24 16.8 C108.24 18.32 108.24 19.84 108.24 21.35 C108.24 25.48 108.23 29.61 108.23 33.74 C108.22 38.05 108.22 42.36 108.22 46.67 C108.22 54.84 108.21 63 108.2 71.17 C108.19 80.47 108.18 89.76 108.18 99.06 C108.16 118.19 108.15 137.31 108.12 156.44 C101.19 156.44 94.26 156.44 87.12 156.44 C87.12 155.78 87.12 155.12 87.12 154.44 C86.22 154.06 86.22 154.06 85.29 153.68 C82.77 152.23 81.97 151.04 80.53 148.54 C79.83 147.34 79.83 147.34 79.12 146.12 C78.62 145.25 78.13 144.39 77.62 143.5 C76.55 141.67 75.48 139.84 74.41 138.01 C73.86 137.08 73.32 136.14 72.75 135.18 C70.29 131.03 67.72 126.95 65.12 122.88 C64.63 122.09 64.13 121.31 63.62 120.5 C62.62 118.93 61.62 117.35 60.61 115.77 C58.17 111.94 55.74 108.09 53.31 104.25 C52.82 103.48 52.33 102.7 51.83 101.9 C45.88 92.48 39.98 83.02 34.08 73.57 C32.09 70.39 30.11 67.21 28.12 64.03 C9.72 34.63 9.72 34.63 8.12 31.44 C8.12 72.69 8.12 113.94 8.12 156.44 C1.86 156.44 -4.41 156.44 -10.88 156.44 C-13.6 153.71 -13.13 152.25 -13.13 148.44 C-13.13 147.16 -13.14 145.88 -13.15 144.56 C-13.14 143.14 -13.14 141.71 -13.13 140.29 C-13.14 138.79 -13.14 137.3 -13.14 135.81 C-13.15 131.74 -13.15 127.67 -13.14 123.61 C-13.14 119.36 -13.14 115.11 -13.15 110.86 C-13.15 103.73 -13.15 96.59 -13.14 89.46 C-13.12 81.2 -13.13 72.94 -13.14 64.68 C-13.15 57.6 -13.15 50.52 -13.14 43.44 C-13.14 39.2 -13.14 34.97 -13.15 30.74 C-13.15 26.76 -13.15 22.78 -13.14 18.8 C-13.14 17.34 -13.14 15.87 -13.14 14.41 C-13.15 12.42 -13.14 10.43 -13.13 8.44 C-13.13 7.32 -13.13 6.2 -13.13 5.05 C-12.47 -1.74 -5.23 0.03 0 0 Z " fill="#757478" transform="translate(779.875,24.5625)"/>
<path d="M0 0 C0.78 0.35 1.56 0.7 2.36 1.06 C16.08 7.9 24.99 21.82 29.75 36 C30.17 37.33 30.59 38.66 31 40 C26.95 42.65 22.72 44.32 18.19 45.94 C11.97 48.18 11.97 48.18 6 51 C2.21 53.03 -1.78 54.46 -5.81 55.94 C-10.37 57.61 -14.85 59.31 -19.25 61.38 C-24.61 63.89 -30.07 66.11 -35.56 68.31 C-36.46 68.67 -37.35 69.04 -38.27 69.41 C-39.11 69.74 -39.95 70.08 -40.82 70.43 C-41.57 70.73 -42.33 71.03 -43.11 71.34 C-45 72 -45 72 -47 72 C-43.61 80.37 -37.06 84.58 -29 88 C-21.02 90.66 -12.18 89.48 -4.51 86.34 C1.13 83.33 5.3 79.15 9 74 C13.57 74.94 16.8 77.25 20.62 79.81 C21.31 80.25 21.99 80.69 22.69 81.14 C23.34 81.58 23.99 82.01 24.66 82.46 C25.26 82.85 25.85 83.24 26.46 83.64 C28.27 85.24 29.05 86.8 30 89 C18.8 102.95 4.93 111.76 -12.98 113.83 C-31.02 115.37 -48.09 108.58 -61.88 97.19 C-72.79 86.84 -77.1 72.65 -77.54 57.97 C-77.6 48 -77.11 39.2 -73 30 C-72.58 28.98 -72.15 27.96 -71.71 26.91 C-65.57 13.33 -55.61 4.61 -42.06 -1.31 C-28.07 -6.43 -13.58 -6.21 0 0 Z " fill="#D63238" transform="translate(689,69)"/>
<path d="M0 0 C1.16 -0.06 1.16 -0.06 2.35 -0.11 C4.62 -0.15 4.62 -0.15 8.56 0.38 C10.96 3.61 12.23 6.94 13.4 10.77 C13.74 11.85 14.07 12.93 14.42 14.05 C14.77 15.23 15.13 16.41 15.5 17.62 C15.88 18.86 16.26 20.1 16.65 21.37 C19.09 29.33 21.43 37.31 23.75 45.3 C24.02 46.23 24.29 47.16 24.57 48.11 C25.91 52.74 27.25 57.37 28.58 62 C29.07 63.71 29.56 65.42 30.06 67.13 C30.28 67.92 30.51 68.71 30.74 69.52 C31.71 72.87 32.61 75.45 34.56 78.38 C38.18 68.86 41.27 59.17 44.39 49.48 C52.93 23.05 52.93 23.05 57.31 10.25 C57.62 9.33 57.93 8.41 58.25 7.46 C60.32 1.49 60.32 1.49 62.56 0.38 C63.94 0.29 65.32 0.27 66.7 0.28 C67.5 0.28 68.31 0.28 69.14 0.29 C70.4 0.3 70.4 0.3 71.69 0.31 C72.54 0.32 73.39 0.32 74.26 0.33 C76.36 0.34 78.46 0.36 80.56 0.38 C84 7.61 86.55 15.03 89 22.64 C89.71 24.85 90.43 27.05 91.14 29.25 C92.66 33.92 94.18 38.58 95.69 43.25 C97.45 48.68 99.21 54.12 100.98 59.54 C101.69 61.71 102.39 63.88 103.08 66.05 C103.52 67.38 103.95 68.7 104.38 70.03 C104.75 71.18 105.13 72.34 105.51 73.53 C106.49 76.52 106.49 76.52 108.56 79.38 C108.78 78.63 108.99 77.89 109.21 77.13 C111.25 70.07 113.3 63.01 115.34 55.95 C116.4 52.33 117.45 48.7 118.49 45.07 C121.17 35.83 123.85 26.6 126.56 17.38 C126.99 15.92 126.99 15.92 127.42 14.44 C128.11 12.1 128.81 9.77 129.52 7.44 C129.88 6.25 130.23 5.07 130.6 3.85 C131.56 1.37 131.56 1.37 133.56 0.38 C136.24 0.25 138.88 0.19 141.56 0.19 C142.3 0.18 143.04 0.16 143.8 0.15 C145.72 0.15 147.64 0.25 149.56 0.38 C150.55 1.36 150.55 1.36 151.56 2.38 C150.4 9.42 148.14 16.11 145.89 22.88 C145.52 23.98 145.16 25.08 144.79 26.22 C143.61 29.79 142.43 33.36 141.25 36.94 C140.03 40.64 138.81 44.35 137.59 48.06 C136.77 50.55 135.95 53.04 135.13 55.53 C132.57 63.3 130.03 71.08 127.52 78.86 C127.21 79.81 126.91 80.75 126.59 81.72 C125.45 85.26 124.31 88.8 123.17 92.34 C122.4 94.72 121.64 97.09 120.87 99.46 C120.54 100.5 120.54 100.5 120.2 101.57 C118.68 106.26 118.68 106.26 117.56 107.38 C114.45 107.65 111.31 107.61 108.19 107.62 C107.31 107.65 106.43 107.67 105.53 107.69 C104.69 107.69 103.85 107.7 102.98 107.7 C102.2 107.71 101.43 107.72 100.63 107.73 C97.88 107.26 97.31 106.57 95.56 104.38 C94.58 101.94 93.72 99.56 92.93 97.06 C92.56 95.95 92.56 95.95 92.19 94.81 C91.38 92.36 90.59 89.91 89.8 87.46 C89.25 85.76 88.69 84.06 88.13 82.36 C86.67 77.89 85.22 73.41 83.77 68.94 C82.29 64.37 80.79 59.81 79.3 55.24 C76.38 46.29 73.47 37.33 70.56 28.38 C64.39 46.75 58.35 65.15 52.5 83.62 C51.51 86.76 50.52 89.89 49.52 93.02 C48.92 94.93 48.31 96.84 47.71 98.75 C47.44 99.6 47.17 100.44 46.89 101.31 C46.54 102.42 46.54 102.42 46.18 103.55 C45.56 105.38 45.56 105.38 44.56 107.38 C41.29 107.52 38.02 107.61 34.75 107.69 C33.82 107.73 32.89 107.77 31.94 107.81 C31.04 107.83 30.15 107.85 29.23 107.86 C28.41 107.89 27.59 107.92 26.74 107.94 C24.56 107.38 24.56 107.38 23.05 105.19 C21.59 102.42 20.55 99.79 19.58 96.81 C19.21 95.71 18.85 94.61 18.48 93.48 C17.9 91.7 17.9 91.7 17.32 89.88 C16.91 88.63 16.5 87.39 16.08 86.1 C14.98 82.74 13.89 79.38 12.8 76.02 C11.9 73.24 11 70.47 10.09 67.7 C4.77 51.38 -0.5 35.05 -5.69 18.69 C-5.94 17.89 -6.19 17.1 -6.45 16.29 C-7.14 14.1 -7.83 11.92 -8.52 9.74 C-8.89 8.55 -9.27 7.35 -9.65 6.12 C-10.44 3.38 -10.44 3.38 -10.44 1.38 C-7.16 -0.26 -3.6 0.07 0 0 Z " fill="#757478" transform="translate(1032.4375,73.625)"/>
<path d="M0 0 C10.96 9.31 18.22 21.12 20.64 35.33 C20.64 40.61 20.64 45.89 20.64 51.33 C-6.75 51.66 -34.14 51.99 -62.36 52.33 C-60.32 65.7 -60.32 65.7 -53.17 76.58 C-52.24 77.16 -51.32 77.73 -50.36 78.33 C-49.56 78.83 -48.75 79.34 -47.93 79.86 C-41.22 83.99 -36.6 85.53 -28.67 85.58 C-27.89 85.6 -27.12 85.62 -26.31 85.64 C-19.31 85.69 -14.03 84.16 -8.17 80.14 C-4.88 76.85 -2.63 73.37 -0.36 69.33 C5.4 69.93 10.36 72.08 15.64 74.33 C15.64 74.99 15.64 75.65 15.64 76.33 C16.3 76.33 16.96 76.33 17.64 76.33 C14.56 86.19 5.57 95.17 -3.22 100.27 C-16.55 106.89 -33.46 106.75 -47.45 102.36 C-60.38 97.44 -72.01 88.68 -78.17 76.08 C-84.98 59.47 -85.64 42.16 -79.36 25.33 C-72.68 10.69 -63.64 0.12 -48.3 -5.71 C-32.45 -10.9 -13.96 -9.9 0 0 Z " fill="#757478" transform="translate(993.359375,79.671875)"/>
<path d="M0 0 C0.8 0.39 1.61 0.78 2.44 1.18 C9.21 5.05 13.49 11.13 17 18 C17 19.32 17 20.64 17 22 C11.72 23.98 6.44 25.96 1 28 C-4 23 -4 23 -6.25 20.38 C-11.86 15.53 -18.32 14.52 -25.58 14.78 C-31.87 15.36 -37.05 16.87 -42 21 C-43.74 23.87 -43.99 25.65 -44.06 29 C-42.54 33.29 -39.92 35 -36 37 C-30.97 38.65 -25.84 39.86 -20.69 41.06 C7.55 47.77 7.55 47.77 15.88 60.81 C16.45 61.77 17.02 62.72 17.62 63.71 C18.81 65.89 18.81 65.89 20 67 C20.87 78.14 20.02 86.33 12.81 95.12 C2.57 106.04 -7.19 109.51 -21.98 109.99 C-37.05 110.18 -49.97 104.91 -60.87 94.41 C-65.22 89.5 -69 84.69 -69 78 C-66.4 76.8 -63.8 75.62 -61.19 74.44 C-60.45 74.1 -59.71 73.75 -58.95 73.4 C-57.88 72.92 -57.88 72.92 -56.79 72.43 C-56.14 72.14 -55.48 71.84 -54.81 71.53 C-53 71 -53 71 -50 72 C-49.07 73.7 -48.14 75.39 -47.21 77.09 C-43.42 83.05 -36.8 87.36 -30 89 C-27.1 89.31 -24.23 89.41 -21.31 89.44 C-20.59 89.45 -19.86 89.46 -19.12 89.47 C-13.32 89.37 -9.43 87.66 -4.62 84.38 C-2.1 80.68 -2.31 77.33 -3 73 C-4.38 69.21 -5.87 67.6 -9.42 65.7 C-16.29 62.83 -23.26 61.22 -30.5 59.62 C-42.92 56.84 -54.61 52.06 -63 42 C-66.7 35.44 -67.25 27.55 -65.27 20.36 C-61.91 11.25 -56.45 5.61 -48 1 C-33.15 -5.33 -14.88 -7.39 0 0 Z " fill="#757478" transform="translate(1260,75)"/>
<path d="M0 0 C1.07 0 2.14 0.01 3.25 0.01 C4.85 -0.01 4.85 -0.01 6.49 -0.04 C7.51 -0.04 8.54 -0.04 9.59 -0.04 C11 -0.05 11 -0.05 12.44 -0.05 C13.58 0.13 13.58 0.13 14.75 0.32 C17.19 3.99 17 5.75 16.99 10.13 C17 10.83 17 11.52 17 12.24 C17.01 14.58 17 16.91 16.99 19.25 C16.99 20.93 16.99 22.6 16.99 24.27 C17 28.82 16.99 33.37 16.98 37.92 C16.97 42.67 16.97 47.43 16.98 52.18 C16.97 60.16 16.97 68.14 16.95 76.13 C16.94 85.37 16.93 94.61 16.93 103.85 C16.93 112.72 16.93 121.6 16.92 130.47 C16.92 134.26 16.91 138.04 16.91 141.82 C16.91 146.28 16.91 150.73 16.9 155.18 C16.89 156.81 16.89 158.45 16.89 160.09 C16.89 162.32 16.89 164.54 16.88 166.77 C16.88 168.02 16.88 169.27 16.87 170.55 C16.75 173.32 16.75 173.32 15.75 174.32 C11.77 174.57 7.79 174.51 3.81 174.51 C2.69 174.52 1.56 174.53 0.4 174.55 C-0.67 174.55 -1.74 174.55 -2.84 174.55 C-3.83 174.56 -4.82 174.56 -5.84 174.57 C-8.25 174.32 -8.25 174.32 -10.25 172.32 C-10.51 169.43 -10.51 169.43 -10.51 165.64 C-10.51 164.95 -10.51 164.25 -10.52 163.54 C-10.53 161.2 -10.52 158.86 -10.51 156.52 C-10.52 154.85 -10.52 153.18 -10.52 151.51 C-10.53 146.96 -10.53 142.41 -10.52 137.86 C-10.52 133.1 -10.52 128.35 -10.53 123.6 C-10.53 115.62 -10.52 107.63 -10.51 99.65 C-10.5 90.41 -10.51 81.17 -10.52 71.93 C-10.53 64.01 -10.53 56.09 -10.52 48.16 C-10.52 43.43 -10.52 38.69 -10.53 33.96 C-10.53 29.5 -10.53 25.05 -10.52 20.6 C-10.51 18.96 -10.51 17.33 -10.52 15.69 C-10.52 13.46 -10.52 11.23 -10.51 9 C-10.51 7.75 -10.51 6.5 -10.51 5.22 C-9.95 -1.19 -5.17 0.04 0 0 Z " fill="#39B754" transform="translate(584.25390625,4.677734375)"/>
<path d="M0 0 C7.27 6.03 13.81 14.7 14.79 24.39 C15.3 36.03 15.25 45.31 7.52 54.56 C0.51 61.91 -6.84 66.43 -17.04 66.68 C-27.73 66.57 -35.97 61.88 -43.36 54.41 C-49.17 47.69 -51.41 40 -51.73 31.18 C-50.86 20.58 -47.99 11.27 -39.92 3.93 C-28.76 -5.47 -12.73 -8.57 0 0 Z " fill="#f1f1f1" transform="translate(263.41796875,92.62890625)"/>
<path d="M0 0 C7.3 6.72 12.14 15.15 12.92 25.15 C13.16 36.25 11.75 44.98 4.43 53.62 C-2.35 60.59 -9.58 63.37 -19.25 63.56 C-29.29 63.64 -36.86 60.59 -44.32 53.75 C-50.83 46.52 -53.88 37.05 -53.57 27.35 C-52.32 16.2 -48.46 7.41 -40.34 -0.34 C-28.58 -9.3 -11.35 -9.21 0 0 Z " fill="#f1f1f1" transform="translate(394.31640625,94.87890625)"/>
<path d="M0 0 C8.88 7.1 15.21 15.51 17 27 C17.71 38.84 16.37 48.41 9 58 C2.93 63.97 -4.81 68.13 -13.38 68.5 C-24.25 68.03 -33.24 63.24 -40.56 55.31 C-47.16 46.85 -47.86 37.44 -47 27 C-45.51 18.17 -41.33 9.35 -34.31 3.62 C-24.27 -3.11 -11.02 -6.32 0 0 Z " fill="#f1f1f1" transform="translate(517,91)"/>
<path d="M0 0 C25.41 0 50.82 0 77 0 C73.44 1.78 70.57 2.67 66.75 3.62 C54.64 7.02 43.45 12.66 34 21 C33.2 21.65 32.41 22.31 31.59 22.98 C16.93 35.42 7.41 51.53 2.79 70.11 C2 73 2 73 0 77 C0 51.59 0 26.18 0 0 Z " fill="#f1f1f1" transform="translate(0,0)"/>
<path d="M0 0 C5.81 4.41 9.51 10.16 12 17 C12 18.32 12 19.64 12 21 C-7.8 21 -27.6 21 -48 21 C-49 19 -49 19 -48.47 17.12 C-44.98 9.04 -39.95 2.13 -32 -2 C-21.32 -6.17 -9.9 -6.26 0 0 Z " fill="#f1f1f1" transform="translate(981,94)"/>
<path d="M0 0 C2.28 2.15 4.34 4.33 6 7 C6 7.99 6 8.98 6 10 C5.43 10.23 4.87 10.46 4.28 10.7 C1.58 11.8 -1.11 12.9 -3.81 14 C-4.8 14.4 -5.79 14.81 -6.82 15.23 C-14.09 18.2 -21.35 21.23 -28.57 24.35 C-33.63 26.51 -38.75 28.33 -44 30 C-45.51 26.97 -45.53 24.27 -45 21 C-41.4 11.54 -35.59 4.35 -27 -1 C-18.87 -4.51 -7.61 -4.82 0 0 Z " fill="#f1f1f1" transform="translate(682,91)"/>
</svg>
