<svg width="39" height="39" viewBox="0 0 39 39" fill="none" xmlns="http://www.w3.org/2000/svg">
<path fill-rule="evenodd" clip-rule="evenodd" d="M5.28125 9.75C5.28125 9.0769 5.8269 8.53125 6.5 8.53125H32.5C33.1731 8.53125 33.7188 9.0769 33.7188 9.75C33.7188 10.4231 33.1731 10.9688 32.5 10.9688H6.5C5.8269 10.9688 5.28125 10.4231 5.28125 9.75ZM5.28125 19.5C5.28125 18.8269 5.8269 18.2812 6.5 18.2812H32.5C33.1731 18.2812 33.7188 18.8269 33.7188 19.5C33.7188 20.1731 33.1731 20.7188 32.5 20.7188H6.5C5.8269 20.7188 5.28125 20.1731 5.28125 19.5ZM6.5 28.0312C5.8269 28.0312 5.28125 28.5769 5.28125 29.25C5.28125 29.9231 5.8269 30.4688 6.5 30.4688H32.5C33.1731 30.4688 33.7188 29.9231 33.7188 29.25C33.7188 28.5769 33.1731 28.0312 32.5 28.0312H6.5Z" fill="white"/>
<path d="M6.5 8.03125C5.55076 8.03125 4.78125 8.80076 4.78125 9.75H5.78125C5.78125 9.35305 6.10305 9.03125 6.5 9.03125V8.03125ZM32.5 8.03125H6.5V9.03125H32.5V8.03125ZM34.2188 9.75C34.2188 8.80076 33.4492 8.03125 32.5 8.03125V9.03125C32.897 9.03125 33.2188 9.35304 33.2188 9.75H34.2188ZM32.5 11.4688C33.4492 11.4688 34.2188 10.6992 34.2188 9.75H33.2188C33.2188 10.147 32.897 10.4688 32.5 10.4688V11.4688ZM6.5 11.4688H32.5V10.4688H6.5V11.4688ZM4.78125 9.75C4.78125 10.6992 5.55076 11.4688 6.5 11.4688V10.4688C6.10305 10.4688 5.78125 10.147 5.78125 9.75H4.78125ZM6.5 17.7812C5.55076 17.7812 4.78125 18.5508 4.78125 19.5H5.78125C5.78125 19.103 6.10305 18.7812 6.5 18.7812V17.7812ZM32.5 17.7812H6.5V18.7812H32.5V17.7812ZM34.2188 19.5C34.2188 18.5508 33.4492 17.7812 32.5 17.7812V18.7812C32.897 18.7812 33.2188 19.103 33.2188 19.5H34.2188ZM32.5 21.2188C33.4492 21.2188 34.2188 20.4492 34.2188 19.5H33.2188C33.2188 19.897 32.897 20.2188 32.5 20.2188V21.2188ZM6.5 21.2188H32.5V20.2188H6.5V21.2188ZM4.78125 19.5C4.78125 20.4492 5.55076 21.2188 6.5 21.2188V20.2188C6.10305 20.2188 5.78125 19.897 5.78125 19.5H4.78125ZM5.78125 29.25C5.78125 28.853 6.10305 28.5312 6.5 28.5312V27.5312C5.55076 27.5312 4.78125 28.3008 4.78125 29.25H5.78125ZM6.5 29.9688C6.10305 29.9688 5.78125 29.647 5.78125 29.25H4.78125C4.78125 30.1992 5.55076 30.9688 6.5 30.9688V29.9688ZM32.5 29.9688H6.5V30.9688H32.5V29.9688ZM33.2188 29.25C33.2188 29.647 32.897 29.9688 32.5 29.9688V30.9688C33.4492 30.9688 34.2188 30.1992 34.2188 29.25H33.2188ZM32.5 28.5312C32.897 28.5312 33.2188 28.853 33.2188 29.25H34.2188C34.2188 28.3008 33.4492 27.5312 32.5 27.5312V28.5312ZM6.5 28.5312H32.5V27.5312H6.5V28.5312Z" fill="white"/>
</svg>
