<svg width="168" height="47" viewBox="0 0 168 47" fill="none" xmlns="http://www.w3.org/2000/svg">
<path d="M104.167 2.83341C104.167 2.45769 104.017 2.09736 103.752 1.83168C103.486 1.566 103.126 1.41675 102.75 1.41675H97.0833L92.8333 5.66675V14.1667C92.8333 14.5425 92.9825 14.9028 93.2482 15.1685C93.5139 15.4342 93.8742 15.5834 94.2499 15.5834H102.75C103.126 15.5834 103.486 15.4342 103.752 15.1685C104.017 14.9028 104.167 14.5425 104.167 14.1667V2.83341ZM96.3749 13.4584H94.9583V12.0417H96.3749V13.4584ZM102.042 13.4584H100.625V12.0417H102.042V13.4584ZM96.3749 10.6251H94.9583V7.79175H96.3749V10.6251ZM99.2083 13.4584H97.7916V10.6251H99.2083V13.4584ZM99.2083 9.20841H97.7916V7.79175H99.2083V9.20841ZM102.042 10.6251H100.625V7.79175H102.042V10.6251Z" fill="black"/>
<path d="M122.283 4.25H135.983V12.75H122.283V4.25ZM129.133 6.375C129.738 6.375 130.319 6.59888 130.747 6.9974C131.176 7.39591 131.416 7.93641 131.416 8.5C131.416 9.06358 131.176 9.60409 130.747 10.0026C130.319 10.4011 129.738 10.625 129.133 10.625C128.527 10.625 127.947 10.4011 127.518 10.0026C127.09 9.60409 126.85 9.06358 126.85 8.5C126.85 7.93641 127.09 7.39591 127.518 6.9974C127.947 6.59888 128.527 6.375 129.133 6.375ZM125.328 5.66667C125.328 6.04239 125.167 6.40272 124.882 6.6684C124.596 6.93408 124.209 7.08333 123.805 7.08333V9.91667C124.209 9.91667 124.596 10.0659 124.882 10.3316C125.167 10.5973 125.328 10.9576 125.328 11.3333H132.938C132.938 10.9576 133.099 10.5973 133.384 10.3316C133.67 10.0659 134.057 9.91667 134.46 9.91667V7.08333C134.057 7.08333 133.67 6.93408 133.384 6.6684C133.099 6.40272 132.938 6.04239 132.938 5.66667H125.328Z" fill="black"/>
<path d="M9.91688 8.50024V14.0819C9.94521 14.2944 9.87438 14.5211 9.71146 14.6698C9.64593 14.7355 9.5681 14.7876 9.48241 14.8231C9.39672 14.8587 9.30486 14.877 9.21209 14.877C9.11932 14.877 9.02746 14.8587 8.94177 14.8231C8.85608 14.7876 8.77824 14.7355 8.71271 14.6698L7.28896 13.2461C7.21175 13.1705 7.15304 13.0782 7.11741 12.9762C7.08178 12.8742 7.07019 12.7654 7.08355 12.6582V8.50024H7.0623L2.9823 3.27274C2.86727 3.12508 2.81537 2.93789 2.83793 2.75207C2.86049 2.56625 2.95569 2.39692 3.10271 2.28108C3.2373 2.18191 3.38605 2.12524 3.54188 2.12524H13.4585C13.6144 2.12524 13.7631 2.18191 13.8977 2.28108C14.0447 2.39692 14.1399 2.56625 14.1625 2.75207C14.1851 2.93789 14.1332 3.12508 14.0181 3.27274L9.93813 8.50024H9.91688Z" fill="black"/>
<path d="M74.1313 14.875C72.6556 14.875 71.1947 14.5562 69.7488 13.9187C68.3028 13.2812 66.9894 12.3722 65.8083 11.1917C64.6273 10.0111 63.7183 8.70069 63.0812 7.26042C62.4442 5.82014 62.1255 4.35625 62.125 2.86875V2.125H66.3042L66.9594 5.68437L64.9406 7.72083C65.2003 8.18125 65.4896 8.61806 65.8083 9.03125C66.1271 9.44444 66.4694 9.82812 66.8354 10.1823C67.1778 10.5247 67.5527 10.8524 67.9602 11.1655C68.3678 11.4785 68.8074 11.7706 69.2792 12.0417L71.3333 9.9875L74.875 10.7135V14.875H74.1313Z" fill="black"/>
<path d="M104.167 32.8334C104.167 32.4577 104.017 32.0974 103.752 31.8317C103.486 31.566 103.126 31.4167 102.75 31.4167H97.0833L92.8333 35.6667V44.1667C92.8333 44.5425 92.9825 44.9028 93.2482 45.1685C93.5139 45.4342 93.8742 45.5834 94.2499 45.5834H102.75C103.126 45.5834 103.486 45.4342 103.752 45.1685C104.017 44.9028 104.167 44.5425 104.167 44.1667V32.8334ZM96.3749 43.4584H94.9583V42.0417H96.3749V43.4584ZM102.042 43.4584H100.625V42.0417H102.042V43.4584ZM96.3749 40.6251H94.9583V37.7917H96.3749V40.6251ZM99.2083 43.4584H97.7916V40.6251H99.2083V43.4584ZM99.2083 39.2084H97.7916V37.7917H99.2083V39.2084ZM102.042 40.6251H100.625V37.7917H102.042V40.6251Z" fill="#0061AF"/>
<path d="M122.283 34.25H135.983V42.75H122.283V34.25ZM129.133 36.375C129.738 36.375 130.319 36.5989 130.747 36.9974C131.176 37.3959 131.416 37.9364 131.416 38.5C131.416 39.0636 131.176 39.6041 130.747 40.0026C130.319 40.4011 129.738 40.625 129.133 40.625C128.527 40.625 127.947 40.4011 127.518 40.0026C127.09 39.6041 126.85 39.0636 126.85 38.5C126.85 37.9364 127.09 37.3959 127.518 36.9974C127.947 36.5989 128.527 36.375 129.133 36.375ZM125.328 35.6667C125.328 36.0424 125.167 36.4027 124.882 36.6684C124.596 36.9341 124.209 37.0833 123.805 37.0833V39.9167C124.209 39.9167 124.596 40.0659 124.882 40.3316C125.167 40.5973 125.328 40.9576 125.328 41.3333H132.938C132.938 40.9576 133.099 40.5973 133.384 40.3316C133.67 40.0659 134.057 39.9167 134.46 39.9167V37.0833C134.057 37.0833 133.67 36.9341 133.384 36.6684C133.099 36.4027 132.938 36.0424 132.938 35.6667H125.328Z" fill="#0061AF"/>
<path d="M9.91688 38.5002V44.0819C9.94521 44.2944 9.87438 44.5211 9.71146 44.6698C9.64593 44.7355 9.5681 44.7876 9.48241 44.8231C9.39672 44.8587 9.30486 44.877 9.21209 44.877C9.11932 44.877 9.02746 44.8587 8.94177 44.8231C8.85608 44.7876 8.77824 44.7355 8.71271 44.6698L7.28896 43.2461C7.21175 43.1705 7.15304 43.0782 7.11741 42.9762C7.08178 42.8742 7.07019 42.7654 7.08355 42.6582V38.5002H7.0623L2.9823 33.2727C2.86727 33.1251 2.81537 32.9379 2.83793 32.7521C2.86049 32.5663 2.95569 32.3969 3.10271 32.2811C3.2373 32.1819 3.38605 32.1252 3.54188 32.1252H13.4585C13.6144 32.1252 13.7631 32.1819 13.8977 32.2811C14.0447 32.3969 14.1399 32.5663 14.1625 32.7521C14.1851 32.9379 14.1332 33.1251 14.0181 33.2727L9.93813 38.5002H9.91688Z" fill="#0061AF"/>
<path d="M74.1313 44.875C72.6556 44.875 71.1947 44.5562 69.7488 43.9187C68.3028 43.2812 66.9894 42.3722 65.8083 41.1917C64.6273 40.0111 63.7183 38.7007 63.0812 37.2604C62.4442 35.8201 62.1255 34.3563 62.125 32.8688V32.125H66.3042L66.9594 35.6844L64.9406 37.7208C65.2003 38.1812 65.4896 38.6181 65.8083 39.0312C66.1271 39.4444 66.4694 39.8281 66.8354 40.1823C67.1778 40.5247 67.5527 40.8524 67.9602 41.1655C68.3678 41.4785 68.8074 41.7706 69.2792 42.0417L71.3333 39.9875L74.875 40.7135V44.875H74.1313Z" fill="#0061AF"/>
<path fill-rule="evenodd" clip-rule="evenodd" d="M156.586 3.00006C156.769 3.05822 156.906 3.17887 157.038 3.31234C157.903 4.18228 158.772 5.04901 159.64 5.91645C159.832 6.10931 159.907 6.33876 159.836 6.60291C159.767 6.85804 159.598 7.02551 159.34 7.08787C159.069 7.1532 158.841 7.06831 158.648 6.87189C158.354 6.57381 158.057 6.27909 157.761 5.98301C157.579 5.80079 157.397 5.61853 157.215 5.43669C157.191 5.4127 157.164 5.39099 157.118 5.34937C157.118 5.4196 157.118 5.46422 157.118 5.50883C157.118 8.09929 157.118 10.6897 157.119 13.2801C157.119 13.562 157.008 13.7841 156.758 13.9168C156.331 14.1431 155.803 13.8887 155.749 13.382C155.743 13.3288 155.745 13.2748 155.745 13.2212C155.745 10.6522 155.745 8.08318 155.745 5.51421C155.745 5.46856 155.745 5.42295 155.745 5.34815C155.7 5.38888 155.671 5.4118 155.646 5.43742C155.157 5.92531 154.672 6.41604 154.18 6.90077C153.842 7.23394 153.302 7.15735 153.085 6.75047C153.05 6.68504 153.028 6.61242 153 6.54312C153 6.46437 153 6.38566 153 6.30691C153.054 6.09784 153.19 5.94627 153.339 5.79809C154.152 4.9894 154.962 4.17747 155.772 3.36449C155.918 3.21742 156.062 3.07093 156.264 3.00008C156.371 3.00006 156.479 3.00006 156.586 3.00006Z" fill="black"/>
<path fill-rule="evenodd" clip-rule="evenodd" d="M163.479 3.00004C163.507 3.01344 163.535 3.02762 163.564 3.04014C163.831 3.15716 163.977 3.36059 163.996 3.65247C163.999 3.69879 163.997 3.74546 163.997 3.79196C163.997 6.35375 163.997 8.91549 163.997 11.4773C163.997 11.5234 163.997 11.5696 163.997 11.6446C164.041 11.6063 164.07 11.5846 164.095 11.5596C164.583 11.0717 165.07 10.5821 165.56 10.0959C165.837 9.82106 166.254 9.81313 166.526 10.071C166.813 10.3425 166.817 10.774 166.529 11.0683C166.238 11.3649 165.943 11.656 165.649 11.9496C165.05 12.5493 164.443 13.142 163.854 13.7517C163.548 14.0685 163.079 14.0669 162.772 13.7542C161.89 12.8553 160.995 11.9701 160.105 11.0793C159.817 10.7908 159.806 10.3684 160.079 10.0893C160.349 9.81236 160.776 9.81212 161.068 10.1001C161.555 10.5796 162.035 11.0654 162.518 11.5484C162.545 11.5753 162.573 11.601 162.624 11.6501C162.624 11.5769 162.624 11.5326 162.624 11.4883C162.624 8.93014 162.628 6.37192 162.621 3.81376C162.62 3.40853 162.768 3.13302 163.157 3C163.264 3.00004 163.371 3.00004 163.479 3.00004Z" fill="black"/>
<path fill-rule="evenodd" clip-rule="evenodd" d="M156.586 33.0001C156.769 33.0582 156.906 33.1789 157.038 33.3123C157.903 34.1823 158.772 35.049 159.64 35.9165C159.832 36.1093 159.907 36.3388 159.836 36.6029C159.767 36.858 159.598 37.0255 159.34 37.0879C159.069 37.1532 158.841 37.0683 158.648 36.8719C158.354 36.5738 158.057 36.2791 157.761 35.983C157.579 35.8008 157.397 35.6185 157.215 35.4367C157.191 35.4127 157.164 35.391 157.118 35.3494C157.118 35.4196 157.118 35.4642 157.118 35.5088C157.118 38.0993 157.118 40.6897 157.119 43.2801C157.119 43.562 157.008 43.7841 156.758 43.9168C156.331 44.1431 155.803 43.8887 155.749 43.382C155.743 43.3288 155.745 43.2748 155.745 43.2212C155.745 40.6522 155.745 38.0832 155.745 35.5142C155.745 35.4686 155.745 35.4229 155.745 35.3481C155.7 35.3889 155.671 35.4118 155.646 35.4374C155.157 35.9253 154.672 36.416 154.18 36.9008C153.842 37.2339 153.302 37.1573 153.085 36.7505C153.05 36.685 153.028 36.6124 153 36.5431C153 36.4644 153 36.3857 153 36.3069C153.054 36.0978 153.19 35.9463 153.339 35.7981C154.152 34.9894 154.962 34.1775 155.772 33.3645C155.918 33.2174 156.062 33.0709 156.264 33.0001C156.371 33.0001 156.479 33.0001 156.586 33.0001Z" fill="#0061AF"/>
<path fill-rule="evenodd" clip-rule="evenodd" d="M163.479 33C163.507 33.0134 163.535 33.0276 163.564 33.0401C163.831 33.1572 163.977 33.3606 163.996 33.6525C163.999 33.6988 163.997 33.7455 163.997 33.792C163.997 36.3537 163.997 38.9155 163.997 41.4773C163.997 41.5234 163.997 41.5696 163.997 41.6446C164.041 41.6063 164.07 41.5846 164.095 41.5596C164.583 41.0717 165.07 40.5821 165.56 40.0959C165.837 39.8211 166.254 39.8131 166.526 40.071C166.813 40.3425 166.817 40.774 166.529 41.0683C166.238 41.3649 165.943 41.656 165.649 41.9496C165.05 42.5493 164.443 43.142 163.854 43.7517C163.548 44.0685 163.079 44.0669 162.772 43.7542C161.89 42.8553 160.995 41.9701 160.105 41.0793C159.817 40.7908 159.806 40.3684 160.079 40.0893C160.349 39.8124 160.776 39.8121 161.068 40.1001C161.555 40.5796 162.035 41.0654 162.518 41.5484C162.545 41.5753 162.573 41.601 162.624 41.6501C162.624 41.5769 162.624 41.5326 162.624 41.4883C162.624 38.9301 162.628 36.3719 162.621 33.8138C162.62 33.4085 162.768 33.133 163.157 33C163.264 33 163.371 33 163.479 33Z" fill="#0061AF"/>
<path fill-rule="evenodd" clip-rule="evenodd" d="M41.2764 12.4376C40.9015 12.538 40.5313 12.6367 40.1614 12.7364C38.8123 13.1002 37.4637 13.4658 36.1136 13.826C36.0086 13.854 35.9473 13.9025 35.9073 14.002C35.8262 14.2038 35.7389 14.4033 35.6451 14.5994C35.6269 14.6374 35.5676 14.6778 35.5262 14.679C35.2668 14.6862 35.007 14.6794 34.7475 14.6845C34.6649 14.6862 34.6184 14.6534 34.6198 14.5781C34.6221 14.4517 34.6057 14.3112 34.6536 14.2013C35.8188 11.5228 36.9915 8.84761 38.1627 6.1717C38.1717 6.15097 38.1781 6.12909 38.1887 6.09949C37.6786 5.80092 37.3674 5.36801 37.3237 4.7718C37.2886 4.2936 37.4476 3.87586 37.7813 3.53247C38.4417 2.85299 39.5444 2.8923 40.1651 3.60951C40.7606 4.29755 40.7246 5.49659 39.6837 6.10552C39.8618 6.51475 40.04 6.92555 40.2193 7.33576C41.2005 9.57934 42.1814 11.823 43.1644 14.0658C43.2358 14.2287 43.3116 14.386 43.2607 14.5715C43.2399 14.6475 43.2101 14.6878 43.1189 14.6852C42.8688 14.6778 42.6182 14.6791 42.368 14.6846C42.285 14.6864 42.2483 14.6567 42.2159 14.5815C41.9209 13.897 41.6213 13.2146 41.3227 12.5316C41.31 12.5027 41.2948 12.4747 41.2764 12.4376ZM40.2201 11.8084C40.2198 11.7979 40.2195 11.7874 40.2191 11.7769C39.2599 11.4353 38.3008 11.0937 37.3353 10.7498C37.0313 11.4483 36.735 12.129 36.4257 12.8398C37.71 12.4907 38.9651 12.1495 40.2201 11.8084ZM37.9422 9.35073C38.5306 9.12903 39.0818 8.92141 39.6452 8.70917C39.4089 8.16415 39.1797 7.63519 38.9368 7.07489C38.5996 7.8464 38.2785 8.58123 37.9422 9.35073ZM38.2457 10.16C39.0661 10.4559 39.854 10.7401 40.6736 11.0357C40.4383 10.5011 40.2195 10.004 39.9985 9.50225C39.4141 9.72153 38.8475 9.93416 38.2457 10.16Z" fill="black"/>
<path fill-rule="evenodd" clip-rule="evenodd" d="M33 4.82582C33.0147 3.36157 33.4396 2.20817 34.2715 1.20459C34.4172 1.02882 34.6073 0.960967 34.8313 1.02276C35.0543 1.08429 35.1834 1.23798 35.2232 1.46296C35.2545 1.64001 35.1854 1.78711 35.0743 1.92232C34.5942 2.50629 34.2714 3.16716 34.1499 3.91472C33.9394 5.20896 34.2326 6.37805 35.0563 7.40622C35.3186 7.73361 35.2161 8.15854 34.8406 8.29104C34.6298 8.36538 34.4035 8.30495 34.2518 8.12267C33.6497 7.39912 33.2607 6.57315 33.0955 5.64724C33.0379 5.32477 33.019 4.99542 33 4.82582Z" fill="black"/>
<path fill-rule="evenodd" clip-rule="evenodd" d="M44.8699 4.67111C44.8578 5.9579 44.4505 7.10325 43.6397 8.10453C43.4939 8.28458 43.304 8.35583 43.0841 8.30534C42.8631 8.25454 42.7232 8.10467 42.6769 7.87852C42.6396 7.69629 42.7049 7.54476 42.8195 7.4048C43.2925 6.82681 43.6003 6.17016 43.723 5.43335C43.939 4.13752 43.639 2.97106 42.8156 1.94497C42.6689 1.76211 42.5895 1.57404 42.6772 1.34408C42.8261 0.953205 43.3258 0.878114 43.6063 1.20806C43.9321 1.5912 44.1962 2.01495 44.4014 2.47398C44.7135 3.17246 44.8736 3.90425 44.8699 4.67111Z" fill="black"/>
<path fill-rule="evenodd" clip-rule="evenodd" d="M42.7167 4.65234C42.7016 5.57385 42.4192 6.38804 41.8349 7.09278C41.6819 7.27739 41.4893 7.35262 41.254 7.28646C41.0343 7.22473 40.8875 7.04426 40.8661 6.81227C40.8512 6.65114 40.9134 6.51592 41.0146 6.39243C41.4699 5.83722 41.6706 5.19764 41.6275 4.48356C41.5922 3.89719 41.3775 3.38003 41.0095 2.922C40.7383 2.58441 40.9099 2.10997 41.3247 2.0415C41.539 2.00614 41.7136 2.08605 41.8511 2.25389C42.4249 2.95434 42.7005 3.76132 42.7167 4.65234Z" fill="black"/>
<path fill-rule="evenodd" clip-rule="evenodd" d="M35.1593 4.66975C35.1702 3.75803 35.4512 2.94302 36.0368 2.23956C36.2562 1.97596 36.6136 1.96133 36.8419 2.19836C37.0347 2.39844 37.0507 2.68988 36.8672 2.9185C36.5778 3.27908 36.3746 3.67963 36.2917 4.13496C36.1389 4.97524 36.3255 5.7332 36.8638 6.39994C37.1383 6.7399 36.9975 7.20489 36.5865 7.296C36.3608 7.34602 36.1792 7.26362 36.0344 7.08774C35.4558 6.38531 35.1727 5.57644 35.1593 4.66975Z" fill="black"/>
<path fill-rule="evenodd" clip-rule="evenodd" d="M41.2745 42.4349C40.8997 42.5354 40.5296 42.634 40.1598 42.7337C38.811 43.0975 37.4627 43.4629 36.1129 43.823C36.0079 43.8511 35.9466 43.8995 35.9066 43.999C35.8256 44.2007 35.7383 44.4003 35.6445 44.5963C35.6263 44.6343 35.567 44.6747 35.5256 44.6758C35.2663 44.6831 35.0066 44.6763 34.7471 44.6814C34.6645 44.683 34.618 44.6502 34.6194 44.575C34.6218 44.4486 34.6054 44.3082 34.6532 44.1982C35.8182 41.5204 36.9906 38.8458 38.1615 36.1705C38.1705 36.1498 38.1769 36.1279 38.1875 36.0983C37.6775 35.7998 37.3664 35.367 37.3227 34.7709C37.2877 34.2928 37.4465 33.8752 37.7803 33.5319C38.4405 32.8525 39.5429 32.8919 40.1635 33.6089C40.7588 34.2968 40.7229 35.4955 39.6822 36.1043C39.8603 36.5135 40.0384 36.9242 40.2177 37.3343C41.1986 39.5774 42.1793 41.8205 43.1621 44.0628C43.2335 44.2257 43.3092 44.3829 43.2584 44.5684C43.2376 44.6443 43.2078 44.6847 43.1166 44.682C42.8666 44.6747 42.616 44.676 42.3659 44.6815C42.2828 44.6833 42.2462 44.6536 42.2138 44.5784C41.9189 43.8941 41.6193 43.2118 41.3208 42.529C41.3082 42.5 41.2929 42.4721 41.2745 42.4349ZM40.2185 41.8059C40.2181 41.7954 40.2178 41.7849 40.2175 41.7744C39.2585 41.4329 38.2995 41.0913 37.3343 40.7476C37.0304 41.4459 36.7342 42.1264 36.4249 42.8371C37.7089 42.488 38.9637 42.147 40.2185 41.8059ZM37.941 39.3488C38.5294 39.1272 39.0804 38.9196 39.6437 38.7074C39.4075 38.1625 39.1783 37.6336 38.9355 37.0735C38.5983 37.8448 38.2773 38.5795 37.941 39.3488ZM38.2445 40.1579C39.0647 40.4537 39.8525 40.7378 40.6719 41.0333C40.4366 40.4989 40.2178 40.002 39.9969 39.5003C39.4126 39.7195 38.8462 39.9321 38.2445 40.1579Z" fill="#0061AF"/>
<path fill-rule="evenodd" clip-rule="evenodd" d="M33 34.825C33.0147 33.361 33.4395 32.2079 34.2712 31.2045C34.4169 31.0288 34.6069 30.961 34.8309 31.0228C35.0538 31.0843 35.1829 31.2379 35.2227 31.4629C35.254 31.6399 35.1849 31.7869 35.0738 31.9221C34.5939 32.5059 34.2711 33.1667 34.1496 33.914C33.9392 35.208 34.2324 36.3768 35.0558 37.4048C35.3181 37.7321 35.2156 38.1569 34.8402 38.2894C34.6295 38.3637 34.4031 38.3033 34.2515 38.121C33.6496 37.3977 33.2606 36.5719 33.0954 35.6462C33.0379 35.3238 33.019 34.9945 33 34.825Z" fill="#0061AF"/>
<path fill-rule="evenodd" clip-rule="evenodd" d="M44.8672 34.6703C44.8551 35.9568 44.4479 37.1019 43.6372 38.1029C43.4915 38.2829 43.3017 38.3542 43.0818 38.3037C42.8608 38.2529 42.721 38.103 42.6747 37.8769C42.6374 37.6948 42.7027 37.5433 42.8172 37.4033C43.2901 36.8255 43.5978 36.169 43.7206 35.4323C43.9365 34.1368 43.6366 32.9706 42.8134 31.9448C42.6667 31.7619 42.5873 31.5739 42.675 31.344C42.8239 30.9532 43.3234 30.8781 43.6039 31.208C43.9296 31.5911 44.1937 32.0147 44.3988 32.4736C44.7108 33.172 44.8709 33.9036 44.8672 34.6703Z" fill="#0061AF"/>
<path fill-rule="evenodd" clip-rule="evenodd" d="M42.7144 34.6516C42.6994 35.5729 42.417 36.3869 41.8329 37.0914C41.6798 37.276 41.4873 37.3512 41.252 37.2851C41.0324 37.2234 40.8857 37.0429 40.8643 36.811C40.8494 36.6499 40.9115 36.5147 41.0128 36.3912C41.4679 35.8362 41.6686 35.1967 41.6255 34.4828C41.5902 33.8966 41.3755 33.3795 41.0076 32.9216C40.7365 32.5841 40.908 32.1098 41.3228 32.0413C41.537 32.006 41.7116 32.0859 41.849 32.2537C42.4227 32.9539 42.6983 33.7607 42.7144 34.6516Z" fill="#0061AF"/>
<path fill-rule="evenodd" clip-rule="evenodd" d="M35.1588 34.6689C35.1697 33.7574 35.4507 32.9426 36.0361 32.2393C36.2555 31.9757 36.6127 31.9611 36.8411 32.1981C37.0338 32.3981 37.0498 32.6895 36.8664 32.9181C36.577 33.2785 36.3738 33.679 36.291 34.1342C36.1382 34.9743 36.3247 35.7321 36.863 36.3987C37.1374 36.7386 36.9965 37.2035 36.5857 37.2945C36.3601 37.3446 36.1785 37.2622 36.0337 37.0863C35.4553 36.3841 35.1722 35.5754 35.1588 34.6689Z" fill="#0061AF"/>
</svg>
