<svg width="13" height="13" viewBox="0 0 13 13" fill="none" xmlns="http://www.w3.org/2000/svg">
<path d="M7.91664 6.5V12.0817C7.94497 12.2942 7.87414 12.5208 7.71122 12.6696C7.64569 12.7352 7.56785 12.7873 7.48216 12.8229C7.39647 12.8584 7.30461 12.8767 7.21185 12.8767C7.11908 12.8767 7.02722 12.8584 6.94153 12.8229C6.85584 12.7873 6.778 12.7352 6.71247 12.6696L5.28872 11.2458C5.21151 11.1703 5.1528 11.0779 5.11717 10.9759C5.08154 10.8739 5.06995 10.7651 5.0833 10.6579V6.5H5.06205L0.982054 1.2725C0.867027 1.12483 0.815124 0.937641 0.837687 0.751825C0.860251 0.56601 0.955445 0.396679 1.10247 0.280833C1.23705 0.181667 1.3858 0.125 1.54164 0.125H11.4583C11.6141 0.125 11.7629 0.181667 11.8975 0.280833C12.0445 0.396679 12.1397 0.56601 12.1623 0.751825C12.1848 0.937641 12.1329 1.12483 12.0179 1.2725L7.93789 6.5H7.91664Z" fill="white"/>
</svg>
