<svg width="126" height="28" viewBox="0 0 126 28" fill="none" xmlns="http://www.w3.org/2000/svg">
<path d="M93.7211 8.4001C93.7211 8.4001 93.4477 6.46963 92.6055 5.62197C91.5391 4.50635 90.3469 4.50088 89.8 4.43525C85.8844 4.15088 80.0055 4.15088 80.0055 4.15088H79.9945C79.9945 4.15088 74.1156 4.15088 70.2 4.43525C69.6531 4.50088 68.4609 4.50635 67.3945 5.62197C66.5523 6.46963 66.2844 8.4001 66.2844 8.4001C66.2844 8.4001 66 10.6696 66 12.9337V15.0556C66 17.3196 66.2789 19.5892 66.2789 19.5892C66.2789 19.5892 66.5523 21.5196 67.3891 22.3673C68.4555 23.4829 69.8555 23.4446 70.4789 23.5649C72.7211 23.7782 80 23.8438 80 23.8438C80 23.8438 85.8844 23.8329 89.8 23.554C90.3469 23.4884 91.5391 23.4829 92.6055 22.3673C93.4477 21.5196 93.7211 19.5892 93.7211 19.5892C93.7211 19.5892 94 17.3251 94 15.0556V12.9337C94 10.6696 93.7211 8.4001 93.7211 8.4001ZM77.107 17.6313V9.76182L84.6703 13.7103L77.107 17.6313Z" fill="white"/>
<g clip-path="url(#clip0_3507_8)">
<path d="M47 2.52109C50.7406 2.52109 51.1836 2.5375 52.6547 2.60312C54.0219 2.66328 54.7602 2.89297 55.2523 3.08438C55.9031 3.33594 56.3734 3.64219 56.8602 4.12891C57.3523 4.62109 57.6531 5.08594 57.9047 5.73672C58.0961 6.22891 58.3258 6.97266 58.3859 8.33437C58.4516 9.81094 58.468 10.2539 58.468 13.9891C58.468 17.7297 58.4516 18.1727 58.3859 19.6438C58.3258 21.0109 58.0961 21.7492 57.9047 22.2414C57.6531 22.8922 57.3469 23.3625 56.8602 23.8492C56.368 24.3414 55.9031 24.6422 55.2523 24.8938C54.7602 25.0852 54.0164 25.3148 52.6547 25.375C51.1781 25.4406 50.7352 25.457 47 25.457C43.2594 25.457 42.8164 25.4406 41.3453 25.375C39.9781 25.3148 39.2398 25.0852 38.7477 24.8938C38.0969 24.6422 37.6266 24.3359 37.1398 23.8492C36.6477 23.357 36.3469 22.8922 36.0953 22.2414C35.9039 21.7492 35.6742 21.0055 35.6141 19.6438C35.5484 18.1672 35.532 17.7242 35.532 13.9891C35.532 10.2484 35.5484 9.80547 35.6141 8.33437C35.6742 6.96719 35.9039 6.22891 36.0953 5.73672C36.3469 5.08594 36.6531 4.61562 37.1398 4.12891C37.632 3.63672 38.0969 3.33594 38.7477 3.08438C39.2398 2.89297 39.9836 2.66328 41.3453 2.60312C42.8164 2.5375 43.2594 2.52109 47 2.52109ZM47 0C43.1992 0 42.7234 0.0164062 41.2305 0.0820312C39.743 0.147656 38.7203 0.388281 37.8344 0.732812C36.9102 1.09375 36.1281 1.56953 35.3516 2.35156C34.5695 3.12812 34.0937 3.91016 33.7328 4.82891C33.3883 5.72031 33.1477 6.7375 33.082 8.225C33.0164 9.72344 33 10.1992 33 14C33 17.8008 33.0164 18.2766 33.082 19.7695C33.1477 21.257 33.3883 22.2797 33.7328 23.1656C34.0937 24.0898 34.5695 24.8719 35.3516 25.6484C36.1281 26.425 36.9102 26.9062 37.8289 27.2617C38.7203 27.6062 39.7375 27.8469 41.225 27.9125C42.718 27.9781 43.1937 27.9945 46.9945 27.9945C50.7953 27.9945 51.2711 27.9781 52.7641 27.9125C54.2516 27.8469 55.2742 27.6062 56.1602 27.2617C57.0789 26.9062 57.8609 26.425 58.6375 25.6484C59.4141 24.8719 59.8953 24.0898 60.2508 23.1711C60.5953 22.2797 60.8359 21.2625 60.9016 19.775C60.9672 18.282 60.9836 17.8063 60.9836 14.0055C60.9836 10.2047 60.9672 9.72891 60.9016 8.23594C60.8359 6.74844 60.5953 5.72578 60.2508 4.83984C59.9062 3.91016 59.4305 3.12812 58.6484 2.35156C57.8719 1.575 57.0898 1.09375 56.1711 0.738281C55.2797 0.39375 54.2625 0.153125 52.775 0.0875C51.2766 0.0164063 50.8008 0 47 0Z" fill="white"/>
<path d="M47 6.80859C43.0297 6.80859 39.8086 10.0297 39.8086 14C39.8086 17.9703 43.0297 21.1914 47 21.1914C50.9703 21.1914 54.1914 17.9703 54.1914 14C54.1914 10.0297 50.9703 6.80859 47 6.80859ZM47 18.6648C44.4242 18.6648 42.3352 16.5758 42.3352 14C42.3352 11.4242 44.4242 9.33516 47 9.33516C49.5758 9.33516 51.6648 11.4242 51.6648 14C51.6648 16.5758 49.5758 18.6648 47 18.6648Z" fill="white"/>
<path d="M56.1547 6.52412C56.1547 7.45381 55.4 8.20303 54.4758 8.20303C53.5461 8.20303 52.7969 7.44834 52.7969 6.52412C52.7969 5.59443 53.5516 4.84521 54.4758 4.84521C55.4 4.84521 56.1547 5.5999 56.1547 6.52412Z" fill="white"/>
</g>
<path d="M119.381 2.22119H123.316L114.718 12.0486L124.833 25.4215H116.913L110.71 17.3109L103.612 25.4215H99.6735L108.87 14.91L99.1667 2.22119H107.288L112.895 9.63458L119.381 2.22119ZM117.999 23.0658H120.18L106.103 4.45318H103.763L117.999 23.0658Z" fill="white"/>
<g clip-path="url(#clip1_3507_8)">
<path d="M14 0C6.26808 0 0 6.26808 0 14C0 20.5654 4.52032 26.0747 10.6182 27.5878V18.2784H7.73136V14H10.6182V12.1565C10.6182 7.39144 12.7747 5.1828 17.453 5.1828C18.34 5.1828 19.8705 5.35696 20.4966 5.53056V9.40856C20.1662 9.37384 19.5922 9.35648 18.8793 9.35648C16.5838 9.35648 15.6968 10.2262 15.6968 12.4869V14H20.2698L19.4841 18.2784H15.6968V27.8975C22.629 27.0603 28.0006 21.1579 28.0006 14C28 6.26808 21.7319 0 14 0Z" fill="white"/>
</g>
<defs>
<clipPath id="clip0_3507_8">
<rect width="28" height="28" fill="white" transform="translate(33)"/>
</clipPath>
<clipPath id="clip1_3507_8">
<rect width="28" height="28" fill="white"/>
</clipPath>
</defs>
</svg>
