<svg width="48" height="24" viewBox="0 0 48 24" fill="none" xmlns="http://www.w3.org/2000/svg">
<path fill-rule="evenodd" clip-rule="evenodd" d="M10.2076 7C9.90492 7 9.66052 7.24564 9.66052 7.5471V7.88455V7.99992V8.86834C9.83173 8.46639 10.2337 8.30387 10.6431 8.26293C10.7088 8.25673 10.8713 8.25549 11.0525 8.25549C11.3998 8.25673 11.6827 7.97511 11.6827 7.62774V7.5471C11.6827 7.2444 11.4371 7 11.1356 7H10.2076ZM31.3635 14.3555C31.7928 14.647 32.5644 14.647 32.8175 14.647V14.6458H33.346V15.5266C33.346 15.7524 33.1636 15.9348 32.9378 15.9348H32.0979C30.9777 15.9348 30.3202 15.7896 29.7495 15.4162C29.1329 15.0105 28.8587 14.4547 28.8587 13.6173V10.1834H27.2807H26.8849H24.8652V13.0181C24.8615 13.4697 24.8578 14.0317 25.3466 14.3543C25.7758 14.6458 26.5475 14.6458 26.8006 14.6458H27.3303V15.5266C27.3303 15.7524 27.148 15.9348 26.9222 15.9348H26.0823C24.962 15.9348 24.3045 15.7896 23.7338 15.4162C23.1172 15.0105 22.8431 14.4547 22.8431 13.6173V10.1834H22.3109C21.9474 10.1834 21.6521 9.8881 21.6521 9.52461V8.89438H22.8443V7.89818C22.8443 7.55454 23.1222 7.27664 23.4659 7.27664H24.2437C24.5874 7.27664 24.8652 7.55454 24.8652 7.89818V8.89438H26.8688H27.2807H28.8587V7.93168C28.8587 7.56942 29.1515 7.27664 29.5138 7.27664H30.2271C30.5894 7.27664 30.8822 7.56942 30.8822 7.93168V8.89562H33.2976V9.56307C33.2976 9.90671 33.0197 10.1846 32.6761 10.1846H30.8822V13.0194C30.8784 13.471 30.8747 14.0329 31.3635 14.3555ZM4.90533 14.0652C4.83089 14.2228 4.75397 14.3071 4.72792 14.3071C4.70063 14.3071 4.62371 14.2228 4.55052 14.0652L2.5606 9.86084C2.28146 9.27031 1.68721 8.89441 1.03342 8.89441H0L3.33969 15.3703C3.66845 16.003 4.31976 16.0154 4.6845 16.0154H4.70683H4.72792C5.146 16.0154 5.77747 16.0154 6.10002 15.3703L9.43971 8.89565H8.40878C7.75374 8.89565 7.15825 9.27403 6.88036 9.8658L4.90533 14.0652ZM10.2399 15.936H11.1021C11.4222 15.936 11.6827 15.6768 11.6827 15.3554V9.47501C11.6827 9.15493 11.4234 8.89441 11.1021 8.89441H10.2399C9.91983 8.89441 9.6593 9.15369 9.6593 9.47501V15.3567C9.6593 15.6768 9.91983 15.936 10.2399 15.936ZM14.9269 13.863C14.8698 13.6806 14.8214 13.2886 14.8152 12.9822H19.7863C20.2181 12.9822 20.5158 12.8978 20.7515 12.708C21.1299 12.4053 21.1808 11.9872 21.1808 11.6187C21.1808 10.8434 21.0381 9.88066 19.9253 9.31991C19.1052 8.9043 18.052 8.86957 17.0434 8.86957C16.2382 8.86957 14.7408 8.86957 13.7793 9.53329C12.8018 10.2082 12.7261 11.1808 12.7261 12.4822C12.7261 13.4102 12.7745 14.3729 13.36 15.0428C14.092 15.869 15.1304 15.9373 16.0459 15.9373H20.4699C20.7081 15.9373 20.9004 15.7437 20.9004 15.5068V14.6483H16.6166C15.8747 14.647 15.1539 14.5515 14.9269 13.863ZM14.8177 11.7068L14.818 11.6999C14.8327 11.2739 14.8444 10.9359 15.1986 10.6151C15.7001 10.1603 16.456 10.1585 16.9646 10.1573L16.9788 10.1573H17.0198C17.5656 10.1573 18.1897 10.1821 18.6661 10.4724C18.7938 10.5506 19.2082 10.8483 19.2082 11.3818C19.2082 11.5604 19.1635 11.7428 18.8298 11.7428H16.16C15.8139 11.754 15.0584 11.8358 14.8177 12.3308V11.7068ZM35.8868 12.9822C35.893 13.2886 35.9414 13.6806 35.9984 13.863C36.2255 14.5515 36.9462 14.647 37.6881 14.6483H41.9719V15.5068C41.9719 15.7437 41.7796 15.9373 41.5414 15.9373H37.1175C36.2019 15.9373 35.1635 15.869 34.4316 15.0428C33.846 14.3729 33.7976 13.4102 33.7976 12.4822C33.7976 11.1808 33.8733 10.2082 34.8509 9.53329C35.8123 8.86957 37.3097 8.86957 38.1149 8.86957C39.1235 8.86957 40.1768 8.9043 40.9968 9.31991C42.1096 9.88066 42.2523 10.8434 42.2523 11.6187C42.2523 11.9872 42.2014 12.4053 41.823 12.708C41.5873 12.8978 41.2896 12.9822 40.8579 12.9822H35.8868ZM35.8883 11.6999L35.888 11.7068V12.3308C36.1287 11.8358 36.8842 11.754 37.2303 11.7428H39.9001C40.2338 11.7428 40.2785 11.5604 40.2785 11.3818C40.2785 10.8483 39.8641 10.5506 39.7364 10.4724C39.26 10.1821 38.6359 10.1573 38.0901 10.1573H38.0491L38.0349 10.1573C37.5263 10.1585 36.7704 10.1603 36.2689 10.6151C35.9147 10.9359 35.903 11.2739 35.8883 11.6999ZM45.3873 7.83865V13.6843C45.3873 14.2166 45.819 14.6471 46.3512 14.6471H48.0012V15.2351C48.0012 15.6222 47.6874 15.936 47.3003 15.936H45.7036C44.4122 15.936 43.3651 14.889 43.3651 13.5975V7.83865C43.3651 7.5012 43.638 7.22827 43.9755 7.22827H44.7769C45.1144 7.22827 45.3873 7.5012 45.3873 7.83865Z" fill="#DB3038"/>
</svg>
