<svg width="700" height="35" viewBox="0 0 700 35" fill="none" xmlns="http://www.w3.org/2000/svg">
<path d="M582.572 13.4538L577.981 18.0398C577.493 18.5273 576.702 18.5273 576.214 18.0398L571.264 13.0954C570.861 12.6923 570.927 11.973 571.411 11.489L574.733 8.1703C574.842 8.0618 574.985 7.9994 575.124 8L578.111 8.0141C578.219 8.0146 578.317 8.0534 578.387 8.1237L582.572 12.3039C582.89 12.6214 582.89 13.1363 582.572 13.4538Z" fill="#005AAA"/>
<mask id="mask0_27_6" style="mask-type:luminance" maskUnits="userSpaceOnUse" x="572" y="8" width="13" height="13">
<path d="M584.466 14.1957L578.416 20.2393L572.492 14.3214L578.605 8.34033L584.466 14.1957Z" fill="white"/>
</mask>
<g mask="url(#mask0_27_6)">
<path d="M572.462 14.8122C572.438 14.8122 572.415 14.8031 572.396 14.785C572.36 14.7486 572.36 14.6898 572.396 14.6535L574.286 12.7662C574.391 12.6608 574.531 12.6028 574.681 12.6028H576.406C576.506 12.6028 576.599 12.5641 576.67 12.4938L580.257 8.9106C580.293 8.8742 580.352 8.8742 580.388 8.9106C580.425 8.9469 580.425 9.0057 580.388 9.042L576.801 12.6253C576.696 12.7307 576.555 12.7887 576.406 12.7887H574.681C574.581 12.7887 574.488 12.8274 574.417 12.8977L572.528 14.785C572.51 14.8032 572.486 14.8122 572.462 14.8122Z" fill="url(#paint0_linear_27_6)"/>
<path d="M573.057 15.4068C573.033 15.4068 573.009 15.3977 572.991 15.3796C572.955 15.3432 572.955 15.2844 572.991 15.248L574.88 13.3607C574.986 13.2553 575.126 13.1973 575.275 13.1973H577.155L579.958 10.3975C580.063 10.2921 580.204 10.2341 580.353 10.2341H581.529L584.531 7.23531C584.567 7.19891 584.626 7.19891 584.663 7.23531C584.699 7.27161 584.699 7.33051 584.663 7.36671L581.633 10.3928C581.616 10.4102 581.592 10.42 581.568 10.42H580.353C580.253 10.42 580.16 10.4587 580.09 10.529L577.26 13.3561C577.242 13.3735 577.218 13.3833 577.194 13.3833H575.275C575.176 13.3833 575.082 13.422 575.012 13.4923L573.123 15.3796C573.105 15.3977 573.081 15.4068 573.057 15.4068Z" fill="url(#paint1_linear_27_6)"/>
<path d="M573.585 15.934C573.561 15.934 573.538 15.9249 573.519 15.9068C573.483 15.8704 573.483 15.8116 573.519 15.7753L575.236 14.0605C575.342 13.9551 575.482 13.897 575.631 13.897H577.458L580.005 11.3526C580.11 11.2472 580.251 11.1891 580.4 11.1891H581.998L584.611 8.7492C584.649 8.7141 584.708 8.7161 584.743 8.7536C584.778 8.7911 584.776 8.85 584.739 8.885L582.099 11.3501C582.081 11.3662 582.059 11.3751 582.035 11.3751H580.4C580.3 11.3751 580.207 11.4138 580.137 11.4841L577.562 14.0558C577.545 14.0732 577.521 14.083 577.496 14.083H575.631C575.532 14.083 575.438 14.1217 575.368 14.192L573.651 15.9068C573.633 15.925 573.609 15.934 573.585 15.934Z" fill="url(#paint2_linear_27_6)"/>
<path d="M574.1 16.4481C574.076 16.4481 574.052 16.439 574.034 16.4209C573.998 16.3845 573.998 16.3257 574.034 16.2894L575.673 14.6525C575.709 14.6162 575.768 14.6162 575.804 14.6525C575.841 14.6888 575.841 14.7477 575.804 14.784L574.166 16.4209C574.148 16.439 574.124 16.4481 574.1 16.4481Z" fill="url(#paint3_linear_27_6)"/>
<path d="M574.677 17.0243C574.653 17.0243 574.629 17.0152 574.611 16.9971C574.575 16.9608 574.575 16.9019 574.611 16.8656L576.824 14.6555C576.86 14.6192 576.919 14.6192 576.955 14.6555C576.992 14.6919 576.992 14.7507 576.955 14.787L574.743 16.9971C574.725 17.0152 574.701 17.0243 574.677 17.0243Z" fill="url(#paint4_linear_27_6)"/>
<path d="M580.014 14.5039C579.99 14.5039 579.966 14.4948 579.948 14.4766C579.912 14.4403 579.912 14.3815 579.948 14.3452L583.769 10.5285C583.805 10.4921 583.864 10.4921 583.9 10.5285C583.937 10.5648 583.937 10.6237 583.9 10.6599L580.08 14.4766C580.062 14.4948 580.038 14.5039 580.014 14.5039Z" fill="url(#paint5_linear_27_6)"/>
<path d="M577.272 17.5334C577.248 17.5334 577.224 17.5243 577.206 17.5062C577.17 17.4698 577.17 17.411 577.206 17.3747L579.384 15.199V14.0139C579.384 13.9892 579.394 13.9656 579.411 13.9481L581.861 11.5014C581.897 11.465 581.956 11.465 581.992 11.5014C582.028 11.5377 582.028 11.5966 581.992 11.6328L579.57 14.0524V15.2375C579.57 15.2621 579.56 15.2858 579.543 15.3032L577.338 17.5062C577.319 17.5243 577.296 17.5334 577.272 17.5334Z" fill="url(#paint6_linear_27_6)"/>
<path d="M575.742 18.089C575.719 18.089 575.695 18.0799 575.677 18.0617C575.64 18.0254 575.64 17.9665 575.677 17.9303L577.378 16.2305V14.9726C577.378 14.9472 577.389 14.9229 577.407 14.9054L578.737 13.635C578.774 13.5995 578.833 13.6009 578.868 13.638C578.904 13.6751 578.902 13.7339 578.865 13.7694L577.564 15.0123V16.269C577.564 16.2937 577.555 16.3173 577.537 16.3347L575.808 18.0617C575.79 18.0799 575.766 18.089 575.742 18.089Z" fill="url(#paint7_linear_27_6)"/>
<path d="M575.455 17.1466C575.432 17.1466 575.408 17.1375 575.39 17.1194C575.353 17.0831 575.353 17.0242 575.39 16.9879L576.591 15.7874C576.628 15.751 576.687 15.751 576.723 15.7874C576.759 15.8237 576.759 15.8826 576.723 15.9189L575.521 17.1194C575.503 17.1375 575.479 17.1466 575.455 17.1466Z" fill="url(#paint8_linear_27_6)"/>
</g>
<mask id="mask1_27_6" style="mask-type:luminance" maskUnits="userSpaceOnUse" x="572" y="8" width="11" height="11">
<path d="M582.625 12.3843L576.575 18.4279L572.233 14.0903C571.933 13.7902 572.082 13.1546 572.567 12.6705L575.889 9.35179C575.997 9.24329 576.13 9.17049 576.252 9.15339L578.855 8.78429C578.949 8.77089 579.029 8.79229 579.082 8.84459L582.625 12.3843Z" fill="white"/>
</mask>
<g mask="url(#mask1_27_6)">
<path d="M579.383 11.2076L582.911 14.7323C583.142 14.9629 583.142 15.3367 582.911 15.5673L579.726 18.7494C579.495 18.9799 579.121 18.9799 578.89 18.7494L575.362 15.2247C575.131 14.9941 575.131 14.6203 575.362 14.3897L578.547 11.2076C578.778 10.977 579.152 10.977 579.383 11.2076Z" fill="#FDD341"/>
<path d="M582.933 14.7103L579.405 11.1855C579.162 10.9432 578.767 10.9432 578.525 11.1855L575.339 14.3676C575.097 14.61 575.097 15.0043 575.339 15.2467L578.868 18.7714C579.11 19.0138 579.505 19.0138 579.748 18.7714L582.933 15.5893C583.176 15.3469 583.176 14.9526 582.933 14.7103ZM578.569 11.2296C578.787 11.0115 579.142 11.0115 579.36 11.2296L580.335 12.2029L579.433 13.1042L578.062 11.7354L578.569 11.2296ZM576.998 12.7986L578.018 11.7794L579.389 13.1482L578.368 14.1674L576.998 12.7986ZM578.324 14.2114L577.403 15.132C577.348 15.1865 577.26 15.1865 577.205 15.132L575.934 13.8618L576.954 12.8426L578.324 14.2114ZM575.383 14.4117L575.89 13.9059L577.172 15.1873C577.245 15.2599 577.363 15.2599 577.436 15.1873L580.379 12.247L581.724 13.5908L577.747 17.5639L575.383 15.2026C575.165 14.9846 575.165 14.6298 575.383 14.4117ZM579.802 15.5993L580.822 14.5801L582.338 16.095L581.318 17.1142L579.802 15.5993ZM581.274 17.1583L580.254 18.1775L578.737 16.6627L579.758 15.6434L581.274 17.1583ZM579.703 18.7273C579.485 18.9454 579.13 18.9454 578.912 18.7273L577.791 17.6079L578.693 16.7066L580.21 18.2215L579.703 18.7273ZM582.889 15.5452L582.383 16.051L580.866 14.5361L581.768 13.6348L582.889 14.7542C583.107 14.9723 583.107 15.3271 582.889 15.5452Z" fill="#1F5CAC"/>
</g>
<path d="M587.545 9.35776L587.555 9.36816C587.555 9.36816 587.322 9.25516 586.991 9.60216C586.66 9.94926 578.67 17.7955 578.207 18.0969C577.507 18.5518 576.742 18.475 576.581 18.4093L576.323 18.1506L579.869 21.6979C579.873 21.7023 579.878 21.7065 579.882 21.711L576.912 18.7398C576.959 18.7402 577.729 18.7408 578.308 18.369C579.046 17.8953 587.222 9.80436 587.273 9.75086C587.507 9.50416 587.803 9.61646 587.803 9.61646L587.545 9.35776Z" fill="white"/>
<path d="M578.206 18.0969C578.67 17.7954 586.66 9.94932 586.991 9.60222C587.322 9.25522 587.555 9.36812 587.555 9.36812L587.282 9.09532C586.813 8.62692 586.053 8.62692 585.584 9.09532L577.908 16.6844C577.611 16.9577 577.069 17.0549 576.459 17.0391C575.989 17.0269 574.725 16.5521 574.725 16.5521L576.581 18.4093C576.742 18.475 577.507 18.5518 578.206 18.0969Z" fill="#ED1C24"/>
<path d="M591.814 13.6233L587.803 9.61652C587.803 9.61652 587.507 9.50432 587.272 9.75102C587.221 9.80452 579.046 17.8953 578.308 18.3691C577.729 18.7409 576.958 18.7403 576.911 18.7399L580.127 21.9568C581.519 23.3478 583.777 23.3478 585.17 21.9568L591.814 15.3195C592.283 14.8511 592.283 14.0917 591.814 13.6233Z" fill="#ED1C24"/>
<path d="M598.362 18.7636L597.687 18.5059C597.568 18.4564 596.795 18.1987 596.418 17.7528C596.219 17.5149 596.13 17.3466 596.021 17.0492L594.196 11.8567C594.126 11.6684 594.087 11.5396 593.977 11.3612C593.868 11.2225 593.809 11.1234 593.67 11.0045H596.209C596.219 11.1036 596.12 10.9649 596.388 11.9558C596.418 12.1243 596.467 12.2531 596.527 12.4117L597.955 16.5835L599.394 12.1441C599.473 11.9261 599.483 11.7775 599.413 11.5595C599.334 11.292 599.175 11.1135 598.908 11.0046H600.991L598.362 18.7636Z" fill="#ED1C24"/>
<path d="M608.182 11.4902C608.063 11.7181 608.024 11.8766 608.024 12.1342L608.014 18.8032C607.528 18.7041 607.23 18.615 606.794 18.3771C606.04 17.9808 605.692 17.6538 605.454 17.3366L602.845 13.8386V17.3366C602.845 17.6636 602.895 17.8817 603.074 18.1592C603.163 18.3079 603.242 18.3871 603.371 18.506H601.11C601.238 18.3871 601.308 18.3079 601.397 18.1592C601.546 17.9114 601.625 17.6538 601.625 17.3268V12.5604C601.625 12.2036 601.606 11.9757 601.457 11.6587C601.318 11.3811 601.04 11.0542 600.971 11.0046H603.341L606.823 15.662V12.1243C606.823 11.8766 606.764 11.728 606.665 11.51C606.556 11.3118 606.486 11.1532 606.327 11.0046H608.52C608.371 11.1532 608.282 11.3019 608.182 11.4902Z" fill="#ED1C24"/>
<path d="M610.943 18.6745C610.338 18.6745 609.673 18.5654 608.999 18.3177L608.721 18.2186L608.384 16.6529L609.197 17.1187C609.644 17.3763 610.298 17.5348 610.854 17.5052C611.459 17.4754 611.945 17.2376 611.935 16.7025C611.935 16.2169 611.568 15.9394 611.132 15.7314L610.338 15.3449C609.019 14.7007 608.453 14.1061 608.493 12.9566C608.533 11.6882 609.753 10.955 611.211 10.9054C611.628 10.8955 612.054 10.945 612.491 11.0441L613.205 11.2225V12.5504L612.758 12.3026C612.54 12.1837 612.104 12.0351 611.687 12.0152C611.241 11.9954 610.824 12.1143 610.655 12.5207C610.417 13.1251 611.032 13.3827 611.816 13.7593L612.57 14.1061C613.334 14.453 614.018 15.2358 614.038 16.1871C614.078 17.7133 612.719 18.6645 610.943 18.6745Z" fill="#005AAA"/>
<path d="M620.381 18.5357C620.19 18.5357 619.1 18.615 618.363 18.278C618.134 18.1789 617.942 17.961 617.875 17.842L616.355 15.1665V17.2772C616.355 17.6142 616.326 17.842 616.489 18.1294C616.594 18.3078 616.68 18.4069 616.842 18.5159H613.858C613.944 18.4663 613.983 18.4267 614.059 18.3474C614.279 18.1095 614.346 17.8717 614.346 17.5347L614.356 11.8368C614.356 11.8071 614.25 11.4504 614.145 11.3017C614.05 11.163 613.964 11.0936 613.811 11.0045H616.871C616.699 11.0936 616.613 11.1828 616.508 11.3413C616.403 11.48 616.355 11.7972 616.355 11.8368V14.4132L618.095 12.0845C618.22 11.916 618.258 11.7377 618.21 11.5296C618.162 11.262 618 11.0837 617.742 11.0044H620.496L618.028 14.0763L620.458 18.0401C620.544 18.1688 620.611 18.2283 620.706 18.3274C620.802 18.4067 620.85 18.4562 620.936 18.5356L620.381 18.5357Z" fill="#005AAA"/>
<path fill-rule="evenodd" clip-rule="evenodd" d="M623.5 15.0096L620.968 11.2492L620.711 11.0046H623.206L624.897 13.8473L625.034 13.7325L626.056 12.1583C626.307 11.7715 626.273 11.3223 625.915 11.0046H628.273L625.547 15.009L625.546 17.9143L626.026 18.506H623.097L623.51 17.9231C623.51 16.9548 623.476 15.9753 623.5 15.0096Z" fill="#005AAA"/>
<path d="M600.405 20.9301C600.405 21.2114 600.524 21.3569 600.832 21.3569C600.958 21.3569 601.075 21.3351 601.182 21.2938C601.237 21.272 601.254 21.2866 601.254 21.3472V21.3763C601.254 21.4272 601.24 21.4467 601.182 21.4733C601.092 21.5146 600.975 21.5339 600.837 21.5339C600.412 21.5339 600.213 21.3448 600.213 20.93V20.542C600.213 20.1224 600.412 19.9114 600.832 19.9114C600.953 19.9114 601.065 19.9332 601.169 19.9744C601.228 19.9962 601.24 20.0181 601.24 20.0666V20.0981C601.24 20.1587 601.216 20.1757 601.165 20.1539C601.063 20.1103 600.949 20.0885 600.825 20.0885C600.531 20.0885 600.405 20.2315 600.405 20.542V20.9301Z" fill="#37A2E0"/>
<path d="M601.655 21.0804C601.655 21.2721 601.735 21.3618 601.98 21.3618C602.225 21.3618 602.303 21.2744 602.303 21.0804V20.3917C602.303 20.3311 602.32 20.3141 602.381 20.3141H602.407C602.473 20.3141 602.485 20.3311 602.485 20.3917V21.0804C602.485 21.3739 602.337 21.534 601.98 21.534C601.643 21.534 601.473 21.3836 601.473 21.0804V20.3917C601.473 20.3311 601.49 20.3141 601.55 20.3141H601.577C601.643 20.3141 601.655 20.3311 601.655 20.3917V21.0804Z" fill="#37A2E0"/>
<path d="M602.757 21.0247V20.7991C602.757 20.4596 602.934 20.2898 603.291 20.2898C603.667 20.2898 603.82 20.4668 603.82 20.7991V21.0247C603.82 21.3642 603.643 21.534 603.291 21.534C602.912 21.534 602.757 21.3569 602.757 21.0247ZM603.638 20.7991C603.638 20.5663 603.556 20.462 603.291 20.462C603.021 20.462 602.939 20.5663 602.939 20.7991V21.0247C602.939 21.2575 603.026 21.3618 603.291 21.3618C603.556 21.3618 603.638 21.2575 603.638 21.0247V20.7991ZM603.119 19.9721C603.177 19.8824 603.211 19.8533 603.291 19.8533C603.371 19.8533 603.405 19.8775 603.463 19.9721L603.556 20.1152C603.585 20.1588 603.575 20.1709 603.524 20.1709H603.505C603.454 20.1709 603.432 20.1612 603.405 20.1152L603.349 20.0206C603.31 19.9527 603.272 19.9527 603.233 20.0206L603.179 20.1152C603.153 20.1612 603.131 20.1709 603.08 20.1709H603.058C603.007 20.1709 603 20.1563 603.026 20.1152L603.119 19.9721ZM603.208 21.7498C603.255 21.7038 603.332 21.7038 603.378 21.7498C603.425 21.7959 603.425 21.8735 603.378 21.9196C603.332 21.9657 603.255 21.9657 603.208 21.9196C603.162 21.8736 603.162 21.7959 603.208 21.7498Z" fill="#37A2E0"/>
<path d="M604.083 20.7918C604.083 20.4741 604.255 20.2898 604.624 20.2898C604.705 20.2898 604.775 20.2995 604.838 20.3213C604.896 20.3407 604.911 20.3577 604.911 20.4134V20.4377C604.911 20.4984 604.896 20.5153 604.838 20.4959C604.777 20.4741 604.707 20.462 604.629 20.462C604.357 20.462 604.265 20.5687 604.265 20.7942V21.0295C604.265 21.2745 604.374 21.3617 604.644 21.3617C604.726 21.3617 604.799 21.3521 604.862 21.3302C604.918 21.3108 604.935 21.3302 604.935 21.3908V21.4151C604.935 21.466 604.918 21.4854 604.857 21.5024C604.79 21.5242 604.714 21.5339 604.632 21.5339C604.26 21.5339 604.083 21.3739 604.083 21.0319V20.7918Z" fill="#37A2E0"/>
<path d="M605.792 21.3788C605.792 21.3182 605.811 21.3036 605.87 21.3158C605.984 21.3473 606.103 21.3643 606.227 21.3643C606.414 21.3643 606.491 21.3304 606.491 21.2261C606.491 21.1485 606.45 21.1073 606.333 21.0514L606.037 20.9108C605.882 20.8356 605.811 20.7629 605.811 20.5955C605.811 20.3845 605.947 20.2899 606.241 20.2899C606.355 20.2899 606.455 20.3044 606.545 20.336C606.603 20.3554 606.617 20.3699 606.617 20.4257V20.4475C606.617 20.5082 606.596 20.5227 606.54 20.5057C606.445 20.4742 606.343 20.4596 606.236 20.4596C606.059 20.4596 605.991 20.4984 605.991 20.5954C605.991 20.6633 606.035 20.7167 606.12 20.7555L606.428 20.8962C606.593 20.9738 606.671 21.049 606.671 21.2212C606.671 21.437 606.525 21.534 606.212 21.534C606.098 21.534 605.984 21.5195 605.87 21.488C605.809 21.471 605.792 21.4492 605.792 21.3983V21.3788Z" fill="#37A2E0"/>
<path d="M606.934 21.0247V20.7992C606.934 20.4597 607.111 20.2899 607.468 20.2899C607.844 20.2899 607.997 20.4669 607.997 20.7992V21.0247C607.997 21.3642 607.82 21.534 607.468 21.534C607.089 21.534 606.934 21.357 606.934 21.0247ZM607.815 20.7992C607.815 20.5663 607.732 20.462 607.468 20.462C607.198 20.462 607.116 20.5663 607.116 20.7992V21.0247C607.116 21.2576 607.203 21.3619 607.468 21.3619C607.732 21.3619 607.815 21.2576 607.815 21.0247V20.7992ZM607.295 19.9722C607.354 19.8824 607.388 19.8533 607.468 19.8533C607.548 19.8533 607.582 19.8776 607.64 19.9722L607.732 20.1152C607.761 20.1589 607.752 20.171 607.701 20.171H607.681C607.63 20.171 607.608 20.1613 607.582 20.1152L607.526 20.0206C607.487 19.9527 607.448 19.9527 607.409 20.0206L607.356 20.1152C607.329 20.1613 607.307 20.171 607.256 20.171H607.235C607.184 20.171 607.176 20.1564 607.203 20.1152L607.295 19.9722ZM607.914 19.8266C607.89 19.8654 607.856 19.8848 607.81 19.8848H607.786C607.73 19.8848 607.723 19.8727 607.749 19.8242L607.851 19.6278C607.883 19.5696 607.907 19.5551 607.973 19.5551H607.997C608.062 19.5551 608.072 19.5696 608.036 19.6254L607.914 19.8266Z" fill="#37A2E0"/>
<path d="M608.465 21.4321C608.465 21.4976 608.453 21.5097 608.388 21.5097H608.361C608.3 21.5097 608.283 21.4976 608.283 21.4321V20.7433C608.283 20.4402 608.453 20.2898 608.791 20.2898C609.148 20.2898 609.296 20.4498 609.296 20.7433V21.4321C609.296 21.4976 609.284 21.5097 609.218 21.5097H609.189C609.123 21.5097 609.111 21.4976 609.111 21.4321V20.7433C609.111 20.5493 609.036 20.462 608.791 20.462C608.545 20.462 608.465 20.5517 608.465 20.7433V21.4321Z" fill="#37A2E0"/>
<path d="M610.585 20.7385C610.585 21.0199 610.417 21.1605 610.082 21.1605C609.951 21.1605 609.866 21.1678 609.825 21.1799C609.786 21.1921 609.766 21.2163 609.766 21.2527C609.766 21.2866 609.786 21.3084 609.827 21.3206C609.868 21.3302 609.953 21.3351 610.082 21.3351C610.283 21.3351 610.422 21.3593 610.497 21.4103C610.575 21.4588 610.614 21.5437 610.614 21.6674C610.614 21.8056 610.575 21.9002 610.495 21.956C610.417 22.0117 610.279 22.0385 610.082 22.0385C609.88 22.0385 609.74 22.0118 609.662 21.956C609.587 21.9026 609.548 21.8177 609.548 21.7013C609.548 21.5849 609.594 21.4976 609.684 21.4418C609.618 21.4103 609.584 21.357 609.584 21.2818C609.584 21.1751 609.65 21.112 609.781 21.0926C609.645 21.0369 609.577 20.918 609.577 20.7385V20.7094C609.577 20.4451 609.764 20.2899 610.082 20.2899C610.177 20.2899 610.259 20.3068 610.332 20.3383L610.47 20.2147C610.512 20.1783 610.531 20.1783 610.57 20.2147L610.587 20.2316C610.626 20.268 610.626 20.2874 610.587 20.3263L610.478 20.4378C610.548 20.5033 610.585 20.593 610.585 20.7094V20.7385ZM609.844 21.4831C609.769 21.5195 609.73 21.5874 609.73 21.682C609.73 21.8397 609.82 21.8809 610.082 21.8809C610.335 21.8809 610.432 21.8397 610.432 21.6748C610.432 21.522 610.342 21.4953 610.082 21.4953C609.978 21.4953 609.898 21.4904 609.844 21.4831ZM610.4 20.7095C610.4 20.5373 610.293 20.4524 610.082 20.4524C609.866 20.4524 609.759 20.5372 609.759 20.7095V20.7386C609.759 20.9132 609.837 21.0005 610.082 21.0005C610.327 21.0005 610.4 20.9132 610.4 20.7386V20.7095Z" fill="#37A2E0"/>
<path d="M611.503 21.3788C611.503 21.3182 611.522 21.3036 611.581 21.3158C611.695 21.3473 611.814 21.3643 611.937 21.3643C612.124 21.3643 612.202 21.3304 612.202 21.2261C612.202 21.1485 612.161 21.1073 612.044 21.0514L611.748 20.9108C611.593 20.8356 611.522 20.7629 611.522 20.5955C611.522 20.3845 611.658 20.2899 611.952 20.2899C612.066 20.2899 612.166 20.3044 612.255 20.336C612.314 20.3554 612.328 20.3699 612.328 20.4257V20.4475C612.328 20.5082 612.306 20.5227 612.251 20.5057C612.156 20.4742 612.054 20.4596 611.947 20.4596C611.77 20.4596 611.702 20.4984 611.702 20.5954C611.702 20.6633 611.746 20.7167 611.831 20.7555L612.139 20.8962C612.304 20.9738 612.382 21.049 612.382 21.2212C612.382 21.437 612.236 21.534 611.923 21.534C611.809 21.534 611.695 21.5195 611.581 21.488C611.52 21.471 611.503 21.4492 611.503 21.3983V21.3788Z" fill="#37A2E0"/>
<path d="M612.644 21.0247V20.7992C612.644 20.4597 612.821 20.2899 613.178 20.2899C613.554 20.2899 613.707 20.4669 613.707 20.7992V21.0247C613.707 21.3642 613.53 21.534 613.178 21.534C612.799 21.534 612.644 21.357 612.644 21.0247ZM613.525 20.7992C613.525 20.5663 613.442 20.462 613.178 20.462C612.908 20.462 612.826 20.5663 612.826 20.7992V21.0247C612.826 21.2576 612.913 21.3619 613.178 21.3619C613.442 21.3619 613.525 21.2576 613.525 21.0247V20.7992ZM613.005 19.9722C613.064 19.8824 613.098 19.8533 613.178 19.8533C613.258 19.8533 613.292 19.8776 613.35 19.9722L613.442 20.1152C613.471 20.1589 613.462 20.171 613.411 20.171H613.391C613.34 20.171 613.319 20.1613 613.292 20.1152L613.236 20.0206C613.197 19.9527 613.158 19.9527 613.119 20.0206L613.066 20.1152C613.039 20.1613 613.017 20.171 612.966 20.171H612.945C612.894 20.171 612.886 20.1564 612.913 20.1152L613.005 19.9722ZM613.624 19.8266C613.6 19.8654 613.566 19.8848 613.52 19.8848H613.496C613.44 19.8848 613.433 19.8727 613.459 19.8242L613.561 19.6278C613.593 19.5696 613.617 19.5551 613.683 19.5551H613.707C613.772 19.5551 613.782 19.5696 613.746 19.6254L613.624 19.8266Z" fill="#37A2E0"/>
<path d="M615.708 21.0272C615.708 21.3643 615.531 21.5341 615.176 21.5341C614.81 21.5341 614.645 21.3643 614.645 21.0272V20.8017C614.645 20.4597 614.812 20.2899 615.147 20.2899C615.334 20.2899 615.46 20.3481 615.526 20.4669V19.8897C615.526 19.8243 615.538 19.8121 615.603 19.8121H615.63C615.691 19.8121 615.708 19.8243 615.708 19.8897V21.0272ZM614.827 21.0248C614.827 21.2576 614.907 21.3619 615.176 21.3619C615.441 21.3619 615.526 21.2576 615.526 21.0248V20.7992C615.526 20.5664 615.441 20.4621 615.176 20.4621C614.912 20.4621 614.827 20.5664 614.827 20.7992V21.0248Z" fill="#37A2E0"/>
<path d="M616.982 20.9058C616.975 20.9664 616.96 20.981 616.895 20.981H616.162V21.0538C616.162 21.2745 616.271 21.3618 616.54 21.3618C616.647 21.3618 616.756 21.3473 616.87 21.3157C616.929 21.2987 616.948 21.3182 616.948 21.3788V21.4006C616.948 21.4515 616.938 21.4685 616.873 21.4879C616.768 21.5194 616.657 21.534 616.54 21.534C616.159 21.534 615.979 21.3861 615.979 21.0271V20.8016C615.979 20.4596 616.149 20.2898 616.492 20.2898C616.812 20.2898 616.989 20.4547 616.989 20.7748C616.989 20.8307 616.987 20.8743 616.982 20.9058ZM616.162 20.8283H616.817V20.7482C616.817 20.5518 616.708 20.4523 616.489 20.4523C616.271 20.4523 616.162 20.5518 616.162 20.7482V20.8283ZM616.298 19.9721C616.356 19.8824 616.39 19.8533 616.47 19.8533C616.55 19.8533 616.584 19.8776 616.642 19.9721L616.735 20.1152C616.764 20.1588 616.754 20.171 616.703 20.171H616.684C616.633 20.171 616.611 20.1613 616.584 20.1152L616.528 20.0206C616.489 19.9527 616.45 19.9527 616.412 20.0206L616.358 20.1152C616.331 20.1613 616.31 20.171 616.259 20.171H616.237C616.186 20.171 616.179 20.1564 616.205 20.1152L616.298 19.9721ZM616.266 19.7902C616.225 19.7902 616.213 19.7805 616.215 19.7441C616.227 19.5986 616.298 19.5259 616.426 19.5259C616.482 19.5259 616.545 19.5525 616.613 19.6035C616.684 19.6544 616.732 19.6811 616.759 19.6811C616.805 19.6811 616.834 19.6496 616.841 19.5889C616.844 19.5525 616.856 19.5429 616.897 19.5429H616.912C616.953 19.5429 616.965 19.5525 616.963 19.5889C616.953 19.7345 616.883 19.8072 616.752 19.8072C616.696 19.8072 616.635 19.7805 616.565 19.7296C616.497 19.6787 616.448 19.652 616.421 19.652C616.373 19.652 616.346 19.6835 616.339 19.7441C616.336 19.7805 616.324 19.7902 616.283 19.7902H616.266Z" fill="#37A2E0"/>
<path d="M618.99 21.0272C618.99 21.3643 618.813 21.5341 618.458 21.5341C618.092 21.5341 617.927 21.3643 617.927 21.0272V20.8017C617.927 20.4597 618.094 20.2899 618.429 20.2899C618.616 20.2899 618.742 20.3481 618.808 20.4669V19.8897C618.808 19.8243 618.82 19.8121 618.886 19.8121H618.912C618.973 19.8121 618.99 19.8243 618.99 19.8897V21.0272ZM618.109 21.0248C618.109 21.2576 618.189 21.3619 618.458 21.3619C618.723 21.3619 618.808 21.2576 618.808 21.0248V20.7992C618.808 20.5664 618.723 20.4621 618.458 20.4621C618.194 20.4621 618.109 20.5664 618.109 20.7992V21.0248Z" fill="#37A2E0"/>
<path d="M620.197 21.1508C620.197 21.42 620.039 21.534 619.69 21.534C619.411 21.534 619.233 21.4225 619.233 21.1702C619.233 20.918 619.399 20.8161 619.729 20.8161H620.015V20.6706C620.015 20.5056 619.904 20.4499 619.697 20.4499C619.59 20.4499 619.501 20.4595 619.43 20.4765C619.372 20.4886 619.352 20.4741 619.352 20.4159V20.3965C619.352 20.3407 619.367 20.3261 619.425 20.314C619.505 20.297 619.593 20.2898 619.687 20.2898C620.027 20.2898 620.197 20.4159 620.197 20.6705V21.1508ZM620.015 20.9592H619.731C619.515 20.9592 619.416 21.0174 619.416 21.1702C619.416 21.3084 619.505 21.3764 619.687 21.3764C619.911 21.3764 620.015 21.3255 620.015 21.1435V20.9592ZM619.556 19.9187C619.52 19.863 619.53 19.8484 619.595 19.8484H619.619C619.685 19.8484 619.709 19.8629 619.741 19.9211L619.843 20.1176C619.869 20.1661 619.862 20.1782 619.806 20.1782H619.782C619.736 20.1782 619.702 20.1588 619.678 20.12L619.556 19.9187Z" fill="#37A2E0"/>
<path d="M620.665 21.4321C620.665 21.4976 620.653 21.5097 620.588 21.5097H620.561C620.5 21.5097 620.483 21.4976 620.483 21.4321V20.7433C620.483 20.4402 620.653 20.2898 620.991 20.2898C621.348 20.2898 621.496 20.4498 621.496 20.7433V21.4321C621.496 21.4976 621.484 21.5097 621.418 21.5097H621.389C621.323 21.5097 621.311 21.4976 621.311 21.4321V20.7433C621.311 20.5493 621.236 20.462 620.991 20.462C620.746 20.462 620.666 20.5517 620.666 20.7433V21.4321H620.665Z" fill="#37A2E0"/>
<path d="M622.785 20.7385C622.785 21.0199 622.617 21.1605 622.282 21.1605C622.151 21.1605 622.066 21.1678 622.025 21.1799C621.986 21.1921 621.967 21.2163 621.967 21.2527C621.967 21.2866 621.986 21.3084 622.027 21.3206C622.068 21.3302 622.153 21.3351 622.282 21.3351C622.484 21.3351 622.622 21.3593 622.697 21.4103C622.775 21.4588 622.814 21.5437 622.814 21.6674C622.814 21.8056 622.775 21.9002 622.695 21.956C622.617 22.0117 622.479 22.0385 622.282 22.0385C622.081 22.0385 621.94 22.0118 621.862 21.956C621.787 21.9026 621.748 21.8177 621.748 21.7013C621.748 21.5849 621.794 21.4976 621.884 21.4418C621.818 21.4103 621.784 21.357 621.784 21.2818C621.784 21.1751 621.85 21.112 621.981 21.0926C621.845 21.0369 621.777 20.918 621.777 20.7385V20.7094C621.777 20.4451 621.964 20.2899 622.282 20.2899C622.377 20.2899 622.459 20.3068 622.532 20.3383L622.671 20.2147C622.712 20.1783 622.731 20.1783 622.77 20.2147L622.787 20.2316C622.826 20.268 622.826 20.2874 622.787 20.3263L622.678 20.4378C622.748 20.5033 622.785 20.593 622.785 20.7094V20.7385ZM622.044 21.4831C621.969 21.5195 621.93 21.5874 621.93 21.682C621.93 21.8397 622.02 21.8809 622.282 21.8809C622.535 21.8809 622.632 21.8397 622.632 21.6748C622.632 21.522 622.542 21.4953 622.282 21.4953C622.178 21.4953 622.098 21.4904 622.044 21.4831ZM622.6 20.7095C622.6 20.5373 622.493 20.4524 622.282 20.4524C622.066 20.4524 621.959 20.5372 621.959 20.7095V20.7386C621.959 20.9132 622.037 21.0005 622.282 21.0005C622.527 21.0005 622.6 20.9132 622.6 20.7386V20.7095Z" fill="#37A2E0"/>
<path d="M354.736 14.0249C354.585 14.0243 354.434 14.0241 354.283 14.0243C353.263 14.0255 353.255 14.0234 352.983 15.0277C352.826 15.6053 352.666 16.1855 352.568 16.7744C352.306 18.3508 353.12 19.0925 354.686 18.7344C355.419 18.5668 355.422 18.5664 355.537 19.2968C355.628 19.8721 355.715 20.448 355.798 21.0246C355.823 21.2012 355.873 21.3867 355.626 21.4785C353.906 22.1173 352.185 22.2718 350.523 21.3537C349.088 20.5612 348.466 18.9244 348.787 17.061C348.946 16.1397 349.224 15.2504 349.505 14.3625C349.593 14.0849 349.531 13.9933 349.25 14.0226C349.183 14.0264 349.116 14.0265 349.049 14.0231C347.972 14.0194 347.972 14.0194 347.971 12.9273C347.971 12.4278 347.983 11.9278 347.966 11.4289C347.956 11.164 348.049 11.0845 348.311 11.0912C348.931 11.1071 349.552 11.0815 350.172 11.1019C350.439 11.1107 350.56 11.0179 350.632 10.7719C350.81 10.1651 351.018 9.56707 351.193 8.95967C351.265 8.71217 351.383 8.62197 351.649 8.62597C352.639 8.64097 353.629 8.64697 354.618 8.62027C355.004 8.60987 354.978 8.75717 354.886 9.02617C354.692 9.59287 354.527 10.1692 354.329 10.7344C354.226 11.0277 354.303 11.1144 354.609 11.0999C355.044 11.0792 355.482 11.1067 355.917 11.0898C356.173 11.0799 356.274 11.1513 356.268 11.4229C356.251 12.1885 356.253 12.9548 356.265 13.7206C356.269 13.9666 356.178 14.0379 355.943 14.0295C355.541 14.0151 355.138 14.0255 354.736 14.0249Z" fill="#FE0027"/>
<path d="M366.961 14.0353C367.437 15.034 367.457 16.0903 367.378 17.1632C367.354 17.489 367.146 17.4647 366.92 17.4643C364.942 17.4611 362.963 17.4599 360.984 17.4609C360.354 17.4608 360.29 17.5635 360.557 18.1457C361.039 19.1989 362.513 19.5115 363.413 18.7121C363.687 18.468 363.85 18.4795 364.13 18.6574C364.764 19.061 365.408 19.4526 366.072 19.8039C366.452 20.0049 366.407 20.1633 366.146 20.4158C364.615 21.9015 362.775 22.2513 360.755 21.804C358.544 21.3144 356.989 19.4729 356.719 17.1186C356.446 14.748 357.545 12.517 359.541 11.5615C361.221 10.7572 362.944 10.8088 364.652 11.5368C364.783 11.8284 364.532 11.9778 364.403 12.166C364.302 12.3143 364.153 12.427 364.039 12.5676C363.723 12.9487 363.464 13.3695 363.176 13.7706C363.085 13.8585 362.966 13.9112 362.84 13.9192C362.587 13.9277 362.347 13.8291 362.093 13.84C361.504 13.8653 361.016 14.0729 360.716 14.6029C360.628 14.759 360.534 14.9327 360.694 15.107C361.252 15.2417 361.816 15.1396 362.375 15.1686C362.754 15.1883 363.137 15.1368 363.514 15.2038C363.623 15.2557 363.753 15.3082 363.599 15.4447C363.498 15.5336 363.342 15.508 363.178 15.6147C363.637 16.0893 364.009 16.6109 364.522 17.0069C364.8 17.222 364.901 17.0351 364.985 16.8076C365.153 16.472 365.315 16.1333 365.491 15.8016C365.668 15.5587 365.803 15.2887 365.973 15.0405C366.178 14.7242 366.414 14.4287 366.678 14.1584C366.751 14.0783 366.817 13.9626 366.961 14.0353Z" fill="#FE0027"/>
<path d="M373.199 11.136C372.818 13.092 372.413 15.0437 372.066 17.0056C371.87 18.1131 372.589 18.8903 373.724 18.8695C373.975 18.8649 374.051 18.8813 373.99 19.1511C373.803 19.978 373.638 20.81 373.467 21.6407C373.433 21.808 373.413 21.9552 373.181 21.9745C371.116 22.1463 368.755 21.1601 368.315 18.7537C368.133 17.7555 368.321 16.7647 368.519 15.7821C368.753 14.6245 368.979 13.4652 369.208 12.3066C369.332 12.0572 369.542 11.9204 369.794 11.8065C370.522 11.4871 371.284 11.2524 372.066 11.1072C372.444 11.111 372.83 10.8179 373.199 11.136Z" fill="#FE0027"/>
<path d="M346.741 16.4084C346.741 18.0559 346.727 19.7037 346.751 21.3508C346.757 21.7397 346.637 21.8211 346.272 21.8117C345.317 21.7872 344.361 21.7935 343.406 21.8092C343.109 21.8141 342.999 21.7423 343 21.4233C343.011 18.095 343.011 14.7667 343 11.4383C343 11.1847 343.057 11.0884 343.331 11.0922C344.354 11.1064 345.377 11.1088 346.399 11.09C346.704 11.0844 346.749 11.201 346.747 11.4658C346.736 13.1133 346.742 14.7609 346.741 16.4084Z" fill="#FE0027"/>
<path d="M376.943 11.1075C376.671 11.1098 376.4 11.0587 376.148 10.9571C375.895 10.8555 375.666 10.7055 375.472 10.5155C375.278 10.3255 375.124 10.0994 375.018 9.85008C374.913 9.60078 374.858 9.33328 374.856 9.06288C374.855 8.79248 374.908 8.52448 375.011 8.27428C375.115 8.02408 375.267 7.79668 375.459 7.60498C375.651 7.41338 375.88 7.26128 376.131 7.15748C376.383 7.05368 376.652 7.00028 376.925 7.00028C377.197 6.99576 377.467 7.04528 377.72 7.14598C377.972 7.24668 378.202 7.39648 378.395 7.58658C378.589 7.77668 378.742 8.00328 378.845 8.25298C378.949 8.50268 379.002 8.77048 379 9.04068C379.004 9.31098 378.953 9.57928 378.851 9.83008C378.749 10.0808 378.598 10.309 378.407 10.5013C378.216 10.6936 377.988 10.8462 377.736 10.9503C377.485 11.0544 377.215 11.1078 376.943 11.1075Z" fill="#FE0027"/>
<path d="M373.199 11.1358C372.806 11.1628 372.413 11.1897 372.02 11.2166C371.978 11.246 371.901 11.2744 371.886 11.2476C371.395 10.3419 370.517 9.77762 369.88 9.00212C369.854 8.48172 370.097 8.28712 370.622 8.16112C371.542 7.93762 372.485 7.81732 373.432 7.80262C373.678 7.79912 373.898 7.82852 373.826 8.14112C373.594 9.13492 373.525 10.1621 373.199 11.1358Z" fill="#FEC993"/>
<path d="M363.951 12.5056C364.141 12.1515 364.571 11.9685 364.651 11.5366C365.478 11.9784 366.192 12.5438 366.673 13.3619C366.798 13.5738 366.944 13.7776 366.961 14.0352C366.609 14.3467 366.333 14.7229 366.049 15.092L365.999 15.0949C365.999 14.46 365.497 14.1618 365.1 13.8042C364.719 13.4612 364.396 13.0652 364.023 12.7156C363.964 12.6596 363.902 12.6001 363.951 12.5056Z" fill="#FEC590"/>
<path d="M369.88 9.00208C370.433 9.34278 370.875 9.80368 371.294 10.2879C371.552 10.5853 371.889 10.822 372.021 11.2166C371.237 11.4359 370.442 11.6201 369.703 11.979C369.52 12.0589 369.353 12.1698 369.208 12.3066C369.432 11.205 369.656 10.1035 369.88 9.00208Z" fill="#FEAA82"/>
<path d="M363.951 12.5056C364.627 13.1592 365.275 13.844 365.99 14.4516C366.292 14.7086 365.912 14.8964 366.049 15.0921C365.894 15.3366 365.738 15.5811 365.583 15.8256C365.545 15.8431 365.501 15.8466 365.461 15.8356C365.42 15.8246 365.384 15.7998 365.36 15.7655C364.701 14.9933 363.933 14.3362 363.143 13.7034C363.335 13.2528 363.645 12.8803 363.951 12.5056Z" fill="#FE8C75"/>
<path d="M360.436 15.2091C361.403 15.2121 362.371 15.2172 363.339 15.2173C363.801 15.2173 363.853 15.1271 363.693 14.6907C363.538 14.27 363.186 14.0524 362.834 13.8307C362.937 13.7883 363.04 13.7459 363.142 13.7035C363.679 13.7012 363.891 14.1879 364.23 14.4603C364.726 14.8595 365.136 15.3652 365.583 15.8257C365.455 16.1772 365.282 16.5105 365.067 16.8172C364.627 16.2801 364.02 15.9023 363.622 15.3253C362.713 15.3193 361.803 15.317 360.894 15.3039C360.739 15.3017 360.559 15.377 360.436 15.2091Z" fill="#FC565C"/>
<path d="M363.623 15.3251C364.149 15.7796 364.787 16.1272 365.067 16.817C364.954 17.3862 364.856 17.4207 364.419 17.0973C363.91 16.7209 363.611 16.1436 363.098 15.772C363.063 15.7377 363.036 15.6961 363.019 15.6501C363.002 15.6042 362.996 15.5551 363 15.5064C363.018 15.3793 363.156 15.4201 363.249 15.4067C363.376 15.3887 363.521 15.455 363.623 15.3251Z" fill="#FE2A50"/>
<path d="M227.203 13.5643C227.109 13.17 226.941 12.8398 226.687 12.5532C226.341 12.1703 225.899 11.9181 225.336 11.7782C224.815 11.643 224.051 11.5787 222.997 11.5787C221.849 11.5787 221.109 11.7094 220.585 11.9067C220.352 11.9891 220.098 12.168 219.91 12.3422V11.964H218.424V19.592H219.917V14.7474C219.917 13.4817 221.235 12.9819 222.548 12.9819H223.207C224.52 12.9819 225.852 13.4817 225.852 14.7474V19.592H227.324V15.4306C227.324 14.486 227.287 13.9105 227.205 13.5666L227.203 13.5643Z" fill="#ED1C24"/>
<path d="M202.092 11.5534H203.578C203.594 10.7715 203.622 10.0286 203.709 9.68934C203.778 9.35232 203.933 9.06345 204.157 8.84335C204.417 8.53837 204.779 8.31826 205.244 8.16694C205.692 8.04772 206.456 7.94684 207.457 7.93079H208.852L207.51 9.21243C207.461 9.21243 206.989 9.21243 206.942 9.21243C204.968 9.21243 205.106 10.4528 205.106 11.5511H208.578L207.174 12.9542H205.071L205.078 19.5758H203.578V12.9542H202.092V11.5511V11.5534Z" fill="#ED1C24"/>
<path d="M200.607 9.04504V10.54H202.094V9.04504H200.607Z" fill="#ED1C24"/>
<path d="M189.136 15.5888C189.136 16.4944 189.027 17.2419 188.812 17.7991C188.595 18.3791 187.857 19.6906 184.268 19.6906C180.679 19.6906 179.941 18.3791 179.724 17.7991C179.508 17.2419 179.401 16.4944 179.401 15.5888C179.401 14.6832 179.508 13.9357 179.724 13.3785C179.941 12.7985 180.679 11.4871 184.268 11.4871C187.857 11.4871 188.595 12.7962 188.812 13.3785C189.027 13.9357 189.136 14.6809 189.136 15.5888ZM187.257 13.8348C187.119 13.5047 186.878 13.2914 186.509 13.1653C186.125 13.0438 185.45 12.975 184.268 12.9567C183.088 12.9727 182.412 13.0438 182.027 13.1653C181.658 13.2914 181.417 13.5047 181.279 13.8348C181.17 14.0871 181.046 14.7015 181.046 15.5888C181.046 16.4761 181.17 17.0882 181.279 17.3428C181.417 17.673 181.658 17.8862 182.027 18.0123C182.41 18.1338 183.086 18.2026 184.268 18.2209C185.448 18.2048 186.123 18.1338 186.509 18.0123C186.878 17.8862 187.119 17.673 187.257 17.3428C187.367 17.0906 187.49 16.4761 187.49 15.5888C187.49 14.7015 187.367 14.0893 187.257 13.8348Z" fill="#0061AF"/>
<path d="M217.333 15.5888C217.333 16.4944 217.225 17.2419 217.01 17.7991C216.793 18.3791 216.055 19.6906 212.466 19.6906C208.877 19.6906 208.139 18.3791 207.922 17.7991C207.706 17.2419 207.599 16.4944 207.599 15.5888C207.599 14.6832 207.706 13.9357 207.922 13.3785C208.139 12.7985 208.877 11.4871 212.466 11.4871C216.055 11.4871 216.793 12.7962 217.01 13.3785C217.225 13.9357 217.333 14.6809 217.333 15.5888ZM215.455 13.8348C215.317 13.5047 215.076 13.2914 214.707 13.1653C214.323 13.0438 213.646 12.975 212.466 12.9567C211.286 12.9727 210.61 13.0438 210.225 13.1653C209.856 13.2914 209.615 13.5047 209.477 13.8348C209.368 14.0871 209.244 14.7015 209.244 15.5888C209.244 16.4761 209.368 17.0882 209.477 17.3428C209.615 17.673 209.856 17.8862 210.225 18.0123C210.608 18.1338 211.284 18.2026 212.466 18.2209C213.646 18.2048 214.321 18.1338 214.707 18.0123C215.076 17.8862 215.317 17.673 215.455 17.3428C215.565 17.0906 215.688 16.4761 215.688 15.5888C215.688 14.7015 215.565 14.0893 215.455 13.8348Z" fill="#ED1C24"/>
<path d="M178.211 13.5527C178.118 13.1583 177.948 12.8281 177.693 12.5415C177.345 12.1586 176.898 11.9065 176.332 11.7666C175.809 11.6313 175.053 11.5672 173.992 11.5672C172.833 11.5672 172.047 11.6588 171.517 11.8538C171.08 12.0097 170.716 12.2963 170.447 12.6906C170.134 12.2779 169.746 11.9959 169.262 11.8354C168.713 11.6543 167.692 11.5648 166.404 11.5648C165.437 11.5648 164.773 11.6313 164.374 11.7712H164.37C164.068 11.8836 163.781 12.0715 163.498 12.3398V11.9501H162V19.5781H163.484V14.7335C163.484 13.4678 164.795 12.968 166.119 12.968H166.783C168.108 12.968 169.43 13.4678 169.43 14.7335V19.5781H170.914V14.7335C170.914 13.4678 172.209 12.968 173.534 12.968H174.197C175.521 12.968 176.849 13.4678 176.849 14.7335V19.5781H178.33V15.4167C178.33 14.4721 178.293 13.8966 178.209 13.5527H178.211Z" fill="#0061AF"/>
<path d="M237.224 16.146H237.984C237.993 15.9671 238 15.7814 238 15.5888C238 14.6809 237.893 13.9357 237.678 13.3785C237.461 12.7985 236.722 11.4871 233.133 11.4871C229.544 11.4871 228.805 12.7962 228.588 13.3785C228.373 13.9357 228.266 14.6809 228.266 15.5888C228.266 16.4968 228.373 17.2419 228.588 17.7991C228.805 18.3791 229.544 19.6906 233.133 19.6906C236.722 19.6906 237.461 18.3791 237.678 17.7991C237.697 17.7486 237.715 17.6936 237.731 17.6408H235.939C235.801 17.8059 235.614 17.9274 235.372 18.01C234.986 18.1314 234.311 18.2003 233.131 18.2186C231.95 18.2026 231.275 18.1314 230.89 18.01C230.52 17.8839 230.279 17.6706 230.142 17.3405C230.058 17.1456 229.964 16.7351 229.927 16.1529H237.222V16.1437L237.224 16.146ZM230.894 13.1676C231.278 13.0461 231.953 12.9773 233.135 12.959C234.315 12.975 234.991 13.0461 235.376 13.1676C235.745 13.2938 235.986 13.507 236.124 13.8371C236.196 14.0022 236.273 14.3232 236.32 14.7748H229.952C229.997 14.3232 230.076 14.0022 230.149 13.8371C230.287 13.507 230.527 13.2938 230.897 13.1676H230.894Z" fill="#ED1C24"/>
<path d="M200.607 11.5536V19.576H202.094V11.5536H200.607Z" fill="#0061AF"/>
<path d="M199.238 13.3785C199.021 12.7984 198.282 11.487 194.693 11.487C193.32 11.487 192.366 11.6795 191.698 11.9501V7.92859H190.214V19.5965H191.698V19.2274C192.366 19.4979 193.32 19.6905 194.693 19.6905C198.282 19.6905 199.021 18.3813 199.238 17.799C199.453 17.2418 199.561 16.4944 199.561 15.5887C199.561 14.6831 199.453 13.9356 199.238 13.3785ZM197.682 17.3427C197.544 17.6729 197.303 17.8861 196.934 18.0122C196.549 18.1337 195.874 18.2025 194.693 18.2208C193.513 18.2048 193.048 18.1337 192.663 18.0122C192.294 17.8861 192.053 17.6729 191.915 17.3427C191.829 17.1433 191.733 16.7168 191.696 16.1092V15.0683C191.733 14.4607 191.829 14.0343 191.915 13.8348C192.053 13.5046 192.294 13.2914 192.663 13.1653C193.046 13.0438 193.511 12.975 194.693 12.9566C195.874 12.9726 196.549 13.0438 196.934 13.1653C197.303 13.2914 197.544 13.5046 197.682 13.8348C197.792 14.087 197.915 14.7014 197.915 15.5887C197.915 16.476 197.792 17.0882 197.682 17.3427Z" fill="#0061AF"/>
<mask id="mask2_27_6" style="mask-type:luminance" maskUnits="userSpaceOnUse" x="5" y="6" width="70" height="18">
<path d="M5 6V24H75V6H5Z" fill="white"/>
</mask>
<g mask="url(#mask2_27_6)">
<path fill-rule="evenodd" clip-rule="evenodd" d="M19.9843 8.34778H21.1499C21.6143 8.34778 21.9824 8.72538 21.9824 9.18198V9.41028C21.9824 9.87568 21.6056 10.2533 21.1411 10.2533H20.5627C19.774 10.2533 19.2306 10.7538 19.1517 11.2279H19.143V9.41028V9.18198C19.143 8.72538 19.5198 8.34778 19.9843 8.34778ZM52.9497 19.7884C52.4414 19.7884 51.3722 19.7709 50.7412 19.3406C49.976 18.8349 49.9821 17.958 49.9868 17.2728V17.2717C49.9872 17.2196 49.9875 17.1686 49.9875 17.119V12.9744H52.7394C53.2038 12.9744 53.5807 12.5968 53.5807 12.1314V11.2357H49.9875V9.65518C49.9875 9.18978 49.6107 8.81218 49.1462 8.81218H47.9806C47.5162 8.81218 47.1393 9.18978 47.1393 9.65518V11.2357H41.215V9.65518C41.215 9.18978 40.8382 8.81218 40.3737 8.81218H39.2081C38.7437 8.81218 38.3668 9.18978 38.3668 9.65518V11.2357H36.5965V12.149C36.5965 12.6144 36.9734 12.9919 37.4379 12.9919H38.3668V18.1815C38.3668 19.4811 38.8313 20.245 39.6551 20.7895C40.4526 21.3163 41.3815 21.5446 43.0992 21.5446H44.037C44.5014 21.5446 44.8695 21.1671 44.8695 20.7017V19.7884H44.1684C43.6601 19.7884 42.5909 19.7709 41.96 19.3406C41.1948 18.8349 41.2008 17.958 41.2056 17.2728C41.2059 17.2203 41.2063 17.169 41.2063 17.119V12.9744H47.1306V18.164C47.1306 19.4635 47.595 20.2275 48.4188 20.7719C49.2163 21.2988 50.1365 21.5271 51.863 21.5271H52.7919C53.2564 21.5271 53.6333 21.1495 53.6333 20.6841V19.7709H52.9497V19.7884ZM70.2882 8.81388C70.7526 8.81388 71.1295 9.19148 71.1295 9.65688H71.1207V17.1207C71.1207 17.1693 71.1203 17.2193 71.12 17.2703V17.2723V17.2734V17.2745C71.1153 17.9597 71.1092 18.8366 71.8744 19.3423C72.5054 19.7726 73.5746 19.7901 74.0829 19.7901H74.784V20.7034C74.784 21.1687 74.4159 21.5463 73.9514 21.5463H73.0137C71.296 21.5463 70.367 21.318 69.5695 20.7912C68.7457 20.2467 68.2813 19.4828 68.2813 18.1832V9.65688C68.2813 9.19148 68.6581 8.81388 69.1226 8.81388H70.2882ZM16.9713 11.2378C16.2351 11.2378 15.6217 11.6768 15.3237 12.3091L12.2389 18.886C12.1687 19.0441 12.0198 19.29 11.8971 19.29C11.7744 19.29 11.6254 19.0353 11.5553 18.886L8.4442 12.3091C8.1462 11.6768 7.5327 11.2378 6.7966 11.2378H5L9.8989 20.7388C10.3684 21.654 11.3285 21.6528 11.8478 21.6521H11.8883C12.5894 21.6521 13.4132 21.6169 13.8514 20.7388L18.7503 11.229H16.9713V11.2378ZM21.1499 11.2378H19.9843C19.5198 11.2378 19.143 11.6154 19.143 12.0807V20.7125C19.143 21.1779 19.5198 21.5554 19.9843 21.5554H21.1499C21.6143 21.5554 21.9912 21.1779 21.9912 20.7125V12.0807C21.9824 11.6066 21.6143 11.2378 21.1499 11.2378ZM32.4217 15.3942C32.9825 15.3942 33.0526 15.0606 33.0526 14.7884C33.0526 14.1473 32.6407 13.6644 32.2289 13.401C31.519 12.9707 30.5988 12.9356 29.8013 12.9356L29.7474 12.9355C28.993 12.9351 27.8639 12.9345 27.1108 13.6205C26.5666 14.1088 26.5494 14.6273 26.5288 15.2459L26.5287 15.2489C26.5271 15.2967 26.5255 15.3452 26.5237 15.3942V16.448C26.5237 15.8596 27.3562 15.3942 28.3816 15.3942H32.4217ZM35.5766 19.7935V20.7067C35.5766 21.1634 35.1998 21.5409 34.744 21.5585H28.4429C27.1371 21.5585 25.5859 21.4531 24.5168 20.2501C23.6667 19.2842 23.5966 17.8617 23.5966 16.5007C23.5966 14.5776 23.7193 13.1551 25.1302 12.1804C26.5324 11.2057 28.7234 11.2057 29.9328 11.2057C31.4314 11.2057 32.9913 11.2584 34.1744 11.8643C35.6818 12.6282 35.9973 13.9103 35.9973 15.2098C35.9973 15.7367 35.9271 16.3426 35.3926 16.7641C35.007 17.0714 34.5162 17.1504 34.0079 17.1504H26.5324C26.5324 17.5983 26.6025 18.2569 26.6989 18.573C27.0582 19.6794 28.2501 19.7935 29.293 19.7935H35.5766ZM63.7474 14.7884C63.7474 15.0606 63.6773 15.3943 63.1164 15.3943H59.0763C58.0509 15.3943 57.2184 15.8597 57.2184 16.448V15.3943C57.2203 15.3435 57.222 15.2934 57.2236 15.2439C57.2441 14.6262 57.2613 14.1083 57.7968 13.6205C58.5499 12.9345 59.6874 12.9352 60.434 12.9356H60.4873C61.2935 12.9356 62.2137 12.9707 62.9148 13.401C63.3355 13.6644 63.7474 14.1474 63.7474 14.7884ZM66.2713 20.7068V19.7935H59.9877C58.9448 19.7935 57.753 19.6794 57.3937 18.573C57.2973 18.2569 57.2271 17.5983 57.2271 17.1505H64.7026C65.2109 17.1505 65.7017 17.0714 66.0873 16.7641C66.6219 16.3426 66.692 15.7367 66.692 15.2099C66.692 13.9103 66.3765 12.6282 64.8691 11.8643C63.6773 11.2584 62.1261 11.2057 60.6187 11.2057C59.4093 11.2057 57.2184 11.2057 55.8162 12.1804C54.414 13.1551 54.2913 14.5776 54.2913 16.5007C54.2913 17.8617 54.3614 19.2842 55.2115 20.2502C56.2807 21.4532 57.8318 21.5585 59.1464 21.5585H65.4475C65.8945 21.541 66.2713 21.1634 66.2713 20.7068Z" fill="#EF0032"/>
</g>
<path d="M92.6212 8V10.2221H94.8458V8H92.6212ZM122.618 8V19.8322H124.841V14.822C124.841 14.822 124.857 12.9405 126.555 12.9868C126.555 12.9868 127.413 12.913 127.733 13.5939C127.845 13.8312 127.86 14.1685 127.867 14.606V19.8322H130.167V13.6808C130.167 13.6808 130.167 11.2596 127.342 11.1979C127.342 11.1979 125.551 11.1208 124.841 12.3545V8H122.618ZM135.437 11.1344C134.968 11.1344 133.031 11.2287 132.005 12.74C132.005 12.74 130.784 14.236 131.31 16.796C131.31 16.796 131.773 19.726 135.447 19.8493C139.122 19.9727 139.662 16.7652 139.662 16.7652C139.662 16.7652 140.258 13.9493 138.705 12.4163C138.278 11.9953 137.821 11.6973 137.358 11.5077C136.412 11.1208 135.54 11.1362 135.54 11.1362C135.54 11.1362 135.503 11.1344 135.437 11.1344ZM153.299 11.1814C153.223 11.1801 153.144 11.1802 153.063 11.1821C152.218 11.202 151.219 11.4135 150.453 12.1849C150.453 12.1849 149.312 13.1256 149.327 15.3772C149.342 17.6287 150.222 18.5231 150.222 18.5231C150.222 18.5231 151.133 19.8323 153.279 19.8323C153.279 19.8323 156.182 19.942 156.892 17.1508H154.653C154.653 17.1508 154.359 18.076 153.341 18.0451C152.459 18.0184 151.67 17.5519 151.494 16.1174H156.984C156.984 16.1174 157.309 12.7092 154.993 11.5525C154.993 11.5525 154.436 11.2004 153.299 11.1814ZM145.343 11.1951C144.919 11.2016 143.727 11.3173 143.074 12.3699V11.1979H140.82V19.8322H143.074V14.5906C143.074 14.5906 143.059 13.0177 144.71 12.956C144.71 12.956 146.131 12.8788 146.131 14.3439V19.8322H148.354V13.5265C148.354 13.5265 148.406 12.5828 147.442 11.8161C147.023 11.4825 146.435 11.1979 145.498 11.1979C145.498 11.1979 145.441 11.1936 145.343 11.1951ZM83 11.2096L86.2507 19.8322H88.4377L91.7086 11.2096H89.4263L87.3346 16.9454L85.2055 11.2096H83ZM92.6212 11.2096V19.8322H94.8458V11.2096H92.6212ZM95.8343 11.2096V19.8322H98.0965V14.7747C98.0965 13.7047 98.7645 12.9823 99.7858 12.9726C101.243 12.9588 101.139 14.2766 101.139 14.2766V19.8322H103.384V13.4763C103.121 11.158 100.517 11.2096 100.517 11.2096C99.7502 11.2177 99.1678 11.3985 98.7857 11.6307C98.4507 11.8347 98.236 12.0872 98.0965 12.3262V11.2096H95.8343ZM108.597 11.2185C108.501 11.2163 108.447 11.2189 108.447 11.2189C104.483 11.2432 104.739 14.1669 104.739 14.1669H106.91C106.972 13.0462 108.179 12.9609 108.179 12.9609C108.179 12.9609 109.008 12.8877 109.447 13.509C110.008 14.4186 108.709 14.5958 108.264 14.6421C106.703 14.7882 105.91 15.117 105.91 15.117C104.386 15.6774 104.459 17.3951 104.459 17.3951C104.478 18.4597 104.93 19.0692 105.482 19.4071C106.177 19.8323 107.447 19.8323 107.447 19.8323C108.572 19.8323 109.287 19.3967 109.703 19.007C109.789 19.4954 109.885 19.8323 109.885 19.8323H111.947V14.4471C111.947 11.4838 109.267 11.2346 108.597 11.2185ZM117.759 11.2392C116.687 11.243 115.869 11.6956 115.142 12.4829V11.2555H112.996V22H115.203V18.5768C115.203 18.5768 116.142 19.8681 117.984 19.8072C117.984 19.8072 120.13 19.7585 120.886 18.2966C121.643 16.8347 121.582 16.0673 121.582 16.0673C121.582 16.0673 121.765 14.7639 121.253 13.5335C121.253 13.5335 120.814 12.0837 118.923 11.3893C118.503 11.2865 118.118 11.238 117.759 11.2392ZM153.245 12.999C153.759 13.0138 154.607 13.2577 154.776 14.6677H151.532C151.821 13.2784 152.847 13.0331 152.847 13.0331C152.847 13.0331 153.011 12.9924 153.245 12.999ZM135.41 13.0282C135.464 13.0295 135.493 13.0331 135.493 13.0331C136.373 13.0948 137.423 13.2645 137.454 15.6856C137.485 18.1068 135.555 17.9681 135.555 17.9681C135.201 17.9681 133.425 18.0142 133.486 15.408C133.54 13.1275 135.037 13.0196 135.41 13.0282ZM117.181 13.1666C117.573 13.1729 119.137 13.3373 119.13 15.5556C119.123 17.9184 117.399 17.9921 117.399 17.9921C117.399 17.9921 115.276 18.3211 115.239 15.6897C115.203 13.0584 117.093 13.1679 117.093 13.1679C117.093 13.1679 117.125 13.1656 117.181 13.1666ZM109.6 15.6183C109.611 16.8029 109.711 17.715 108.264 18.2114C108.264 18.2114 106.716 18.6499 106.703 17.4926C106.691 16.3353 107.459 16.3475 108.703 16.0429C109.131 15.9383 109.411 15.7805 109.6 15.6183Z" fill="#00A1E4"/>
<path d="M678.985 8.6802C678.228 7.63787 676.902 6.69706 675.25 6.03116C673.608 5.36889 671.701 5.00262 669.881 5.00004C668.06 4.99549 666.151 5.35797 664.506 6.01508C662.852 6.676 661.522 7.61274 660.762 8.6526C660.032 9.6513 659.821 10.7278 660.153 11.7657C660.369 12.439 660.997 12.8921 661.717 12.8931L664.183 12.8955H664.186C664.678 12.8953 665.139 12.6801 665.454 12.3046C665.763 11.9332 665.892 11.4476 665.806 10.9725C665.804 10.9585 665.8 10.9447 665.798 10.931L665.668 10.4265C666.386 10.0837 668.014 9.4213 669.873 9.4319C671.731 9.4414 673.357 10.1033 674.077 10.4464L673.945 10.9479C673.941 10.9622 673.938 10.9764 673.935 10.9908C673.848 11.4656 673.975 11.9515 674.285 12.3239C674.599 12.701 675.06 12.9177 675.554 12.9184L678.02 12.9206H678.022C678.741 12.9206 679.369 12.4697 679.586 11.7979C679.921 10.7601 679.714 9.6822 678.985 8.6802Z" fill="url(#paint9_linear_27_6)"/>
<path d="M675.446 15.4377L673.606 13.5068C673.495 13.3901 673.341 13.324 673.18 13.324H671.992V12.5212C671.992 12.1959 671.728 11.9321 671.402 11.9321C671.077 11.9321 670.814 12.1959 670.814 12.5212V13.324H668.927V12.5212C668.927 12.1959 668.663 11.9321 668.338 11.9321C668.012 11.9321 667.749 12.1959 667.749 12.5212V13.324H666.561C666.399 13.324 666.246 13.3902 666.133 13.5068L664.295 15.4377C662.853 16.9515 662.06 18.9365 662.06 21.0271V23.4506C662.06 23.7759 662.323 24.0397 662.648 24.0397H677.092C677.418 24.0397 677.681 23.7759 677.681 23.4506V21.0271C677.681 18.9365 676.887 16.9517 675.446 15.4377ZM669.87 21.8865C668.17 21.8865 666.787 20.5034 666.787 18.8033C666.787 17.1034 668.17 15.7202 669.87 15.7202C671.57 15.7202 672.953 17.1034 672.953 18.8033C672.953 20.5034 671.57 21.8865 669.87 21.8865Z" fill="url(#paint10_linear_27_6)"/>
<path d="M669.872 17.3746C668.611 17.3746 667.586 18.4 667.586 19.6605C667.586 20.921 668.611 21.9464 669.872 21.9464C671.132 21.9464 672.157 20.921 672.157 19.6605C672.157 18.4 671.132 17.3746 669.872 17.3746Z" fill="url(#paint11_linear_27_6)"/>
<path d="M438.5 20.4241C438.349 19.8583 438.462 19.2166 438.84 18.4992L444.15 8.40248C444.493 7.76048 444.938 7.34898 445.487 7.16788C445.759 7.07538 446.048 7.04148 446.334 7.06868C446.62 7.09578 446.898 7.18318 447.148 7.32528C447.404 7.45218 447.63 7.63248 447.808 7.85398C447.989 8.07548 448.119 8.33298 448.193 8.60918C448.337 9.16268 448.216 9.79748 447.845 10.496L442.587 20.4982C442.222 21.1906 441.763 21.6495 441.222 21.851C440.952 21.9577 440.663 22.0022 440.374 21.9816C440.085 21.9611 439.804 21.8757 439.553 21.7318C439.296 21.6014 439.068 21.4179 438.885 21.1934C438.704 20.9689 438.571 20.7085 438.497 20.4293" fill="#DC000B"/>
<path d="M432.726 20.4241C432.574 19.8583 432.686 19.2166 433.065 18.4991L438.374 8.40239C438.718 7.76049 439.163 7.34899 439.712 7.16779C439.985 7.07529 440.273 7.04149 440.559 7.06869C440.845 7.09579 441.123 7.18329 441.373 7.32519C441.629 7.45329 441.853 7.63399 442.033 7.85529C442.214 8.07659 442.345 8.33349 442.418 8.60919C442.562 9.16269 442.442 9.79739 442.071 10.4961L436.811 20.4983C436.447 21.1906 435.989 21.6495 435.448 21.8511C435.178 21.9578 434.889 22.0025 434.6 21.9818C434.312 21.9612 434.032 21.8756 433.78 21.7317C433.521 21.6014 433.293 21.4178 433.112 21.1934C432.929 20.9689 432.799 20.7084 432.725 20.4292" fill="#DC000B"/>
<path d="M409.114 7.30192C409.366 7.16132 409.646 7.07782 409.933 7.05712C410.221 7.03662 410.509 7.07942 410.777 7.18252C411.318 7.38832 411.779 7.84922 412.143 8.53442L417.402 18.5376C417.774 19.2422 417.887 19.875 417.748 20.4243C417.677 20.7008 417.547 20.9588 417.367 21.1805C417.187 21.402 416.961 21.582 416.704 21.7083C416.455 21.849 416.177 21.9356 415.892 21.9625C415.604 21.9893 415.316 21.9561 415.043 21.8648C414.491 21.6764 414.044 21.2608 413.706 20.6302L408.405 10.5323C408.027 9.81902 407.913 9.17632 408.065 8.60442C408.136 8.32412 408.266 8.06262 408.447 7.83762C408.628 7.61272 408.855 7.42992 409.114 7.30192Z" fill="#DC000B"/>
<path d="M415.481 7.30139C415.734 7.16029 416.013 7.07639 416.301 7.05579C416.59 7.03519 416.879 7.07829 417.149 7.18219C417.69 7.38789 418.147 7.84879 418.513 8.53399L423.772 18.5372C424.144 19.2419 424.257 19.8746 424.118 20.424C424.047 20.7005 423.917 20.9584 423.737 21.1801C423.557 21.4016 423.331 21.5817 423.074 21.7079C422.825 21.8487 422.547 21.9352 422.259 21.9621C421.974 21.989 421.687 21.9558 421.413 21.8643C420.859 21.6761 420.412 21.2605 420.075 20.6298L414.769 10.5319C414.392 9.82069 414.279 9.17899 414.431 8.60699C414.501 8.32619 414.631 8.06399 414.812 7.83859C414.994 7.61319 415.221 7.42989 415.481 7.30139Z" fill="#DC000B"/>
<path d="M438.923 21.3347C438.533 20.9066 438.332 20.284 438.332 19.4908L438.324 9.40849C438.324 8.68839 438.531 8.11319 438.93 7.69769C439.126 7.49109 439.363 7.32779 439.626 7.21839C439.89 7.10889 440.172 7.05559 440.458 7.06179C440.741 7.05389 441.023 7.10769 441.284 7.21969C441.545 7.33159 441.776 7.49889 441.967 7.70999C442.35 8.13799 442.539 8.73879 442.539 9.52789L442.547 19.4991C442.547 20.2728 442.341 20.89 441.967 21.317C441.782 21.5355 441.548 21.7091 441.286 21.8247C441.023 21.9402 440.738 21.9951 440.452 21.9848C439.834 21.9714 439.32 21.7647 438.923 21.3304" fill="#FF0000"/>
<path d="M420.116 20.455C419.962 19.8892 420.073 19.2463 420.444 18.5269L425.693 8.39723C426.026 7.75423 426.471 7.33553 427.024 7.14933C427.296 7.05333 427.584 7.01673 427.871 7.04213C428.156 7.06753 428.434 7.15433 428.685 7.29643C428.941 7.42203 429.169 7.60143 429.351 7.82243C429.532 8.04353 429.663 8.30093 429.737 8.57733C429.885 9.12963 429.771 9.76653 429.403 10.4671L424.207 20.5023C423.847 21.1968 423.389 21.6587 422.85 21.8633C422.581 21.9704 422.292 22.0155 422.003 21.9952C421.714 21.975 421.433 21.8896 421.183 21.7461C420.924 21.6169 420.695 21.4351 420.511 21.2117C420.328 20.9887 420.194 20.7292 420.116 20.4509" fill="#FF0000"/>
<path d="M413.701 20.424C413.55 19.8582 413.664 19.2167 414.04 18.4992L419.351 8.40246C419.694 7.76036 420.14 7.34886 420.688 7.16786C420.961 7.07276 421.248 7.03716 421.536 7.06346C421.822 7.08966 422.102 7.17726 422.352 7.32006C422.606 7.44726 422.832 7.62756 423.013 7.84906C423.193 8.07046 423.324 8.32786 423.396 8.60406C423.54 9.15756 423.42 9.79226 423.05 10.4909L417.79 20.493C417.426 21.1855 416.966 21.6442 416.425 21.846C416.155 21.9526 415.866 21.9974 415.577 21.9766C415.288 21.9559 415.009 21.8705 414.759 21.7267C414.499 21.5983 414.269 21.4155 414.087 21.1908C413.906 20.9659 413.774 20.7044 413.701 20.424Z" fill="#FF0000"/>
<path d="M434.109 7.04321C434.528 7.04301 434.938 7.16681 435.285 7.39911C435.633 7.63121 435.904 7.96131 436.064 8.34761C436.224 8.73401 436.267 9.15911 436.185 9.56931C436.104 9.97951 435.902 10.3563 435.606 10.6521C435.311 10.9478 434.933 11.1493 434.524 11.231C434.113 11.3126 433.689 11.2708 433.304 11.1108C432.917 10.9508 432.586 10.6799 432.353 10.3322C432.122 9.98441 431.997 9.57561 431.997 9.15741C431.997 8.59691 432.22 8.05941 432.616 7.66291C433.012 7.26641 433.55 7.04351 434.109 7.04321Z" fill="#FF0000"/>
<path d="M426.46 20.4241C426.31 19.8583 426.423 19.2166 426.8 18.4992L429.612 13.0887C429.951 12.4477 430.397 12.0321 430.949 11.8542C431.221 11.7688 431.507 11.7384 431.791 11.7649C432.075 11.7913 432.352 11.8739 432.604 12.0079C432.855 12.1419 433.078 12.3247 433.258 12.5455C433.44 12.7664 433.573 13.0211 433.655 13.2944C433.799 13.8481 433.679 14.4838 433.307 15.1812L430.545 20.491C430.182 21.1834 429.723 21.6423 429.181 21.8438C428.914 21.9507 428.623 21.9952 428.334 21.9745C428.045 21.954 427.766 21.8685 427.514 21.7245C427.255 21.5964 427.028 21.4145 426.845 21.1908C426.662 20.9674 426.532 20.7074 426.459 20.4282" fill="#FF0000"/>
<path d="M471.754 19.5157C471.754 20.2841 471.556 20.8975 471.183 21.3223C471.028 21.5053 470.839 21.6574 470.627 21.7709H470.621L470.599 21.7823C470.317 21.9218 470.004 21.9908 469.69 21.9827C469.082 21.9704 468.573 21.7637 468.183 21.3325C467.793 20.9016 467.601 20.2884 467.601 19.5014V17.7442V9.38697C467.601 8.66677 467.806 8.09997 468.195 7.68747C468.388 7.48337 468.62 7.32167 468.878 7.21287C469.136 7.10407 469.416 7.05057 469.695 7.05577C469.736 7.05577 469.776 7.05577 469.816 7.05577C470.075 7.06317 470.33 7.12386 470.565 7.23416C470.802 7.34446 471.012 7.50187 471.183 7.69667C471.561 8.12157 471.747 8.72546 471.747 9.50326V11.6329L471.754 19.5157Z" fill="#353535"/>
<path d="M466.473 15.8498C466.473 17.2677 465.736 17.7697 464.158 17.7697H459.374C459.613 18.5331 460.435 18.996 461.669 18.996C462.195 18.9861 462.715 18.8817 463.204 18.6874C463.428 18.5956 463.67 18.5608 463.91 18.5861C464.151 18.6116 464.381 18.6959 464.58 18.832C464.78 18.9682 464.943 19.1519 465.052 19.3662C465.165 19.5806 465.221 19.8193 465.217 20.0608C465.217 20.672 464.804 21.1926 464.265 21.4354C463.274 21.8044 462.226 21.9893 461.169 21.9807C457.878 21.9807 455.351 19.9683 455.351 16.5443C455.351 13.4682 457.731 11.0259 461.041 11.0259C464.025 10.9641 466.541 13.2984 466.473 15.8498ZM462.769 15.2831C462.615 14.6502 462.14 14.0186 461.037 14.0186C459.998 14.0186 459.502 14.607 459.329 15.2831H462.769Z" fill="#353535"/>
<path d="M455.55 20.3285C455.552 20.6669 455.438 20.9962 455.23 21.2625C455.021 21.5289 454.728 21.7167 454.4 21.7955C453.916 21.9273 453.417 21.9911 452.916 21.9849C450.608 21.9849 449.36 20.8254 449.36 18.6247V8.8623C449.353 8.6207 449.393 8.38 449.48 8.1544C449.567 7.9289 449.697 7.7231 449.865 7.5493C450.034 7.3756 450.234 7.2374 450.457 7.143C450.68 7.0486 450.92 7 451.161 7C451.402 7 451.642 7.0486 451.864 7.143C452.087 7.2374 452.287 7.3756 452.456 7.5493C452.624 7.7231 452.756 7.9289 452.842 8.1544C452.928 8.38 452.969 8.6207 452.961 8.8623V10.5824H453.904C454.323 10.5824 454.727 10.7495 455.024 11.0468C455.323 11.3441 455.489 11.7475 455.489 12.1679C455.489 12.5884 455.323 12.9916 455.024 13.2889C454.727 13.5862 454.323 13.7533 453.904 13.7533H452.959V17.6073C452.959 18.2462 453.312 18.739 453.901 18.7668H454.254C455.032 18.814 455.55 19.524 455.55 20.3285Z" fill="#353535"/>
<path d="M540.64 10.3928C540.226 10.3928 539.998 10.6188 539.998 11.0385C539.998 11.2753 540.085 11.6844 540.64 11.6844C541.216 11.6844 541.302 11.2861 541.302 11.0385C541.302 10.8017 541.216 10.3928 540.64 10.3928Z" fill="#020202"/>
<path d="M542.898 7.70178C542.476 7.70178 542.225 7.96008 542.225 8.40138V17.766C542.225 18.2073 542.476 18.4656 542.91 18.4656C543.344 18.4656 543.584 18.2073 543.584 17.766V8.40138C543.584 7.96008 543.333 7.70178 542.898 7.70178Z" fill="#020202"/>
<path d="M528.082 12.1794H525.258C523.488 12.1794 522.802 12.75 522.802 14.2032V16.4636C522.802 17.8952 523.488 18.4548 525.225 18.4548H528.082C529.788 18.4548 530.45 17.8952 530.45 16.4636V14.2032C530.45 12.7716 529.766 12.1794 528.082 12.1794ZM524.237 14.2032C524.237 13.6865 524.237 13.482 525.106 13.482H528.245C528.994 13.482 528.994 13.6326 528.994 14.117V16.4742C528.994 17.0232 528.994 17.1524 528.245 17.1524H525.106C524.237 17.1524 524.237 16.9802 524.237 16.4742V14.2032Z" fill="#020202"/>
<path d="M536.588 12.1796H532.786V8.39068C532.786 7.96008 532.514 7.70178 532.08 7.70178C531.634 7.70178 531.373 7.94928 531.373 8.39068V16.485C531.373 17.8952 532.112 18.4656 533.937 18.4656H536.598C538.369 18.4656 539.097 17.8736 539.097 16.442V14.2032C539.086 12.7716 538.358 12.1796 536.588 12.1796ZM536.978 17.1524H533.73C532.764 17.1524 532.764 16.948 532.764 16.485V13.482H536.772C537.674 13.482 537.674 13.708 537.674 14.2354V16.4205C537.685 17.0233 537.685 17.1524 536.978 17.1524Z" fill="#020202"/>
<path d="M540.618 11.9858C540.216 11.9858 539.977 12.2549 539.977 12.7069V17.7229C539.977 18.1857 540.216 18.4656 540.64 18.4656C541.052 18.4656 541.313 18.1857 541.313 17.7229V12.7177C541.313 12.2549 541.064 11.9858 540.618 11.9858Z" fill="#020202"/>
<path d="M550.08 12.1794H546.994C545.202 12.1794 544.474 12.7608 544.474 14.1816V16.442C544.474 17.7874 545.484 18.4656 547.461 18.4656H548.286C548.689 18.4656 548.928 18.2073 548.928 17.7982C548.928 17.3892 548.689 17.1524 548.286 17.1524H547.201C545.908 17.1524 545.908 16.7218 545.908 16.5712V16.0545H551.513C551.762 16.0545 552.186 15.9684 552.186 15.3656V13.9662C552.186 12.89 551.828 12.1794 550.08 12.1794ZM545.908 14.117C545.908 13.6541 545.908 13.482 546.777 13.482H550.285C550.601 13.482 550.698 13.525 550.72 13.5573C550.774 13.611 550.774 13.7725 550.774 13.9662V14.7197H545.908V14.117Z" fill="#020202"/>
<path d="M519.446 12.1257H518.393C517.61 12.1257 517.057 12.2441 516.665 12.4809C516.274 12.2333 515.721 12.1257 514.938 12.1257H513.885C512.125 12.1257 511.441 12.6961 511.441 14.1493V17.7766C511.441 18.1749 511.658 18.3364 511.842 18.401C512.049 18.4764 512.277 18.4764 512.484 18.401C512.625 18.3472 512.874 18.1857 512.874 17.7766V14.1493C512.874 13.6434 512.874 13.4281 513.744 13.4281H515.09C515.949 13.4281 515.949 13.6541 515.96 14.0954V14.1493V17.7766C515.949 17.9381 516.002 18.0889 516.09 18.218C516.154 18.3041 516.242 18.3686 516.34 18.4117C516.437 18.4441 516.546 18.4656 516.654 18.4656H516.688C516.796 18.4656 516.905 18.4441 517.002 18.4117C517.1 18.3686 517.186 18.3041 517.252 18.2288C517.35 18.0996 517.393 17.9489 517.393 17.7874V14.1493V14.0954C517.393 13.6541 517.393 13.4281 518.262 13.4281H519.588C520.457 13.4281 520.457 13.6434 520.457 14.1493V17.7766C520.457 18.1965 520.696 18.3472 520.848 18.401C520.945 18.4333 521.044 18.4548 521.141 18.4548H521.162C521.272 18.4548 521.38 18.4333 521.489 18.401C521.641 18.3472 521.89 18.1857 521.89 17.766V14.1493C521.88 12.6961 521.196 12.1257 519.446 12.1257Z" fill="#020202"/>
<path d="M507.714 13.3312C508.041 13.6541 508.301 14.0309 508.474 14.4506C508.649 14.8705 508.736 15.3225 508.736 15.7746C508.736 16.2268 508.649 16.6788 508.474 17.0986C508.301 17.5184 508.041 17.8952 507.714 18.218L500.338 25.5266C499.688 26.1725 498.796 26.5385 497.873 26.5385C496.949 26.5385 496.058 26.1725 495.408 25.5266L488.021 18.218C487.694 17.8952 487.445 17.5184 487.26 17.0986C487.086 16.6788 487 16.2268 487 15.7746C487 15.3225 487.086 14.8705 487.26 14.4506C487.434 14.0309 487.694 13.6541 488.021 13.3312L495.408 6.01179C496.058 5.36598 496.949 5 497.873 5C498.796 5 499.688 5.36598 500.338 6.01179L507.714 13.3312Z" fill="#FFC425"/>
<path d="M500.338 11.7597L499.101 12.9868C498.992 13.0945 498.894 13.2344 498.84 13.385C498.774 13.5357 498.742 13.6865 498.742 13.848C498.742 14.1708 498.872 14.483 499.101 14.709C499.329 14.935 499.644 15.0642 499.969 15.0642C500.296 15.0642 500.61 14.935 500.838 14.709L501.61 13.9448C501.61 13.9448 501.892 14.2138 502.554 14.8705L503.326 15.6348L498.036 20.8768C497.797 21.1136 497.504 21.135 497.276 20.909L492.778 16.4636C492.734 16.4205 492.692 16.3666 492.67 16.3021C492.648 16.2374 492.637 16.1837 492.637 16.119C492.637 16.0545 492.648 15.99 492.681 15.9361C492.702 15.8822 492.746 15.8285 492.789 15.7854L498.992 9.63928C499.112 9.53158 499.209 9.39168 499.274 9.24098C499.34 9.09028 499.372 8.92878 499.372 8.76738C499.372 8.60588 499.34 8.44448 499.285 8.29378C499.22 8.14308 499.133 8.00318 499.013 7.89548C498.894 7.77708 498.764 7.69098 498.612 7.62638C498.46 7.56178 498.297 7.54028 498.133 7.54028C497.97 7.54028 497.808 7.57258 497.656 7.63718C497.504 7.70178 497.373 7.79858 497.254 7.91698L490.193 14.9028C489.868 15.2365 489.682 15.6885 489.682 16.1514C489.682 16.6142 489.878 17.0664 490.214 17.3892L496.352 23.46C496.678 23.7937 497.134 23.9766 497.601 23.9874C498.069 23.9874 498.525 23.8153 498.861 23.4816L505.532 16.8725C505.857 16.5389 506.042 16.0976 506.042 15.624C506.042 15.1612 505.846 14.709 505.509 14.3861L504.565 13.4497L504.272 13.159L502.837 11.7382C502.501 11.4153 502.044 11.2322 501.577 11.2322C501.11 11.243 500.665 11.4261 500.338 11.7597Z" fill="black"/>
<path d="M251.004 25.796L252.493 22.5192H254.003L251.504 27.8876H250.499L248 22.5192H249.51L251.004 25.796Z" fill="#FF6B00"/>
<path d="M255.307 19.6958C255.833 19.6958 256.258 20.095 256.258 20.6148C256.258 21.1346 255.833 21.5338 255.307 21.5338C254.781 21.5338 254.356 21.1346 254.356 20.6148C254.356 20.095 254.781 19.6958 255.307 19.6958ZM256.035 27.8878H254.579V22.5193H256.035V27.8878Z" fill="#FF6B00"/>
<path d="M261.95 27.0352C261.424 27.6548 260.562 28 259.72 28C258.096 28 256.872 26.8938 256.872 25.2097C256.872 23.7127 257.903 22.407 259.518 22.407C261.02 22.407 262.085 23.6586 262.085 25.1515C262.085 25.297 262.072 25.4384 262.051 25.5632H258.286C258.366 26.3158 258.98 26.8356 259.754 26.8356C260.368 26.8356 260.864 26.4946 261.121 26.216L261.95 27.0352ZM260.595 24.5111C260.549 24.0329 260.116 23.5713 259.518 23.5713C258.921 23.5713 258.42 24.0246 258.353 24.5111H260.595Z" fill="#FF6B00"/>
<path d="M266.835 27.8877C266.646 27.9542 266.208 27.9999 265.93 27.9999C265.055 27.9999 264.416 27.713 264.05 27.2265C263.768 26.8605 263.646 26.3865 263.646 25.6213V23.7376H262.136V22.5192H263.646V21.0264H265.102V22.5192H266.894V23.7376H265.102V25.7877C265.102 26.1204 265.156 26.32 265.283 26.4613C265.43 26.6277 265.665 26.7275 266.023 26.7275C266.238 26.7275 266.515 26.6942 266.616 26.6734L266.839 27.8918L266.835 27.8877Z" fill="#FF6B00"/>
<path d="M267.73 27.8877V22.5192H269.131V22.9517C269.544 22.619 270.061 22.4111 270.667 22.4111C271.42 22.4111 272.102 22.7438 272.547 23.2761C272.905 23.6961 273.107 24.2408 273.107 25.1598V27.896H271.651V25.0517C271.651 24.5194 271.529 24.245 271.327 24.0454C271.138 23.8582 270.844 23.746 270.511 23.746C269.897 23.746 269.392 24.1327 269.19 24.4113V27.9002H267.735L267.73 27.8877Z" fill="#FF6B00"/>
<path d="M279.447 27.8877H278.047V27.4552C277.596 27.8336 277.083 27.9958 276.532 27.9958C275.724 27.9958 274.963 27.6424 274.483 27.0893C274.058 26.6028 273.789 25.9374 273.789 25.2056C273.789 23.6212 274.975 22.4028 276.456 22.4028C277.07 22.4028 277.622 22.6024 278.047 22.9476V22.5151H279.447V27.8835V27.8877ZM277.992 24.403C277.689 24.0038 277.205 23.7377 276.646 23.7377C275.796 23.7377 275.245 24.4363 275.245 25.2097C275.245 26.0497 275.859 26.6693 276.679 26.6693C277.226 26.6693 277.71 26.4032 277.992 26.004V24.3988V24.403Z" fill="#FF6B00"/>
<path d="M280.6 27.8877V22.5192H282.001V22.9517C282.425 22.5775 282.943 22.4111 283.469 22.4111C284.209 22.4111 284.87 22.7438 285.295 23.2511C285.732 22.7979 286.414 22.4111 287.221 22.4111C287.97 22.4111 288.69 22.7438 289.127 23.2761C289.476 23.6961 289.674 24.2491 289.674 25.0475V27.8918H288.218V24.9893C288.218 24.5028 288.117 24.2574 287.949 24.0703C287.726 23.825 287.411 23.7376 287.133 23.7376C286.506 23.7376 286.014 24.1701 285.82 24.4446C285.841 24.6234 285.867 24.823 285.867 25.0434V27.8877H284.411V24.9852C284.411 24.4986 284.31 24.2533 284.142 24.0662C283.919 23.8208 283.603 23.7335 283.326 23.7335C282.712 23.7335 282.261 24.1452 282.059 24.3988V27.8877H280.604H280.6Z" fill="#FF6B00"/>
<path d="M293.251 22.407C294.895 22.407 296.141 23.6586 296.141 25.2097C296.141 26.7608 294.895 28 293.251 28C291.606 28 290.36 26.7608 290.36 25.2097C290.36 23.6586 291.606 22.407 293.251 22.407ZM293.251 26.6735C294.1 26.6735 294.685 26.0206 294.685 25.2097C294.685 24.3988 294.105 23.7377 293.251 23.7377C292.397 23.7377 291.816 24.403 291.816 25.2097C291.816 26.0164 292.397 26.6735 293.251 26.6735Z" fill="#FF6B00"/>
<path d="M296.91 27.8876V20.0242H298.366V22.9018C298.791 22.5691 299.304 22.4028 299.901 22.4028C301.382 22.4028 302.569 23.6211 302.569 25.2055C302.569 25.9374 302.299 26.5985 301.874 27.0892C301.395 27.6423 300.633 27.9957 299.826 27.9957C299.279 27.9957 298.761 27.8294 298.311 27.4552V27.8876H296.91ZM298.366 26.008C298.643 26.4072 299.127 26.6734 299.678 26.6734C300.494 26.6734 301.113 26.0538 301.113 25.2096C301.113 24.4362 300.566 23.7376 299.712 23.7376C299.152 23.7376 298.669 24.0037 298.37 24.4029V26.008H298.366Z" fill="#FF6B00"/>
<path d="M304.1 19.6958C304.626 19.6958 305.051 20.095 305.051 20.6148C305.051 21.1346 304.626 21.5338 304.1 21.5338C303.574 21.5338 303.149 21.1346 303.149 20.6148C303.149 20.095 303.574 19.6958 304.1 19.6958ZM304.832 27.8878H303.377V22.5193H304.832V27.8878Z" fill="#FF6B00"/>
<path d="M307.474 20.0283H306.019V27.8918H307.474V20.0283Z" fill="#FF6B00"/>
<path d="M313.343 27.0352C312.817 27.6548 311.955 28 311.113 28C309.49 28 308.27 26.8938 308.27 25.2097C308.27 23.7127 309.3 22.407 310.916 22.407C312.418 22.407 313.482 23.6586 313.482 25.1515C313.482 25.297 313.469 25.4384 313.448 25.5632H309.683C309.763 26.3158 310.377 26.8356 311.151 26.8356C311.77 26.8356 312.262 26.4946 312.519 26.216L313.347 27.0352H313.343ZM311.988 24.5111C311.942 24.0329 311.505 23.5713 310.912 23.5713C310.318 23.5713 309.813 24.0246 309.746 24.5111H311.988Z" fill="#FF6B00"/>
<path d="M273.099 16.9637C272.312 16.9637 271.55 16.5603 271.13 15.8409L265.013 5.37016C264.386 4.2973 264.756 2.92088 265.846 2.30129C266.931 1.68169 268.319 2.04763 268.951 3.12465L275.067 13.5954C275.694 14.6682 275.324 16.0405 274.239 16.6643C273.881 16.868 273.49 16.9637 273.103 16.9637" fill="#FF6B00"/>
<path d="M288.383 16.9636C287.996 16.9636 287.605 16.868 287.251 16.6642C286.166 16.0446 285.791 14.6723 286.418 13.5953L292.535 3.12459C293.162 2.05174 294.55 1.68164 295.64 2.30124C296.725 2.92083 297.1 4.29309 296.473 5.37011L290.356 15.8408C289.935 16.5602 289.174 16.9636 288.387 16.9636" fill="#FF6B00"/>
<path d="M280.739 16.9636C280.352 16.9636 279.96 16.868 279.603 16.6642C278.517 16.0446 278.143 14.6723 278.77 13.5953L284.887 3.12459C285.513 2.05174 286.902 1.68164 287.991 2.30124C289.077 2.92083 289.451 4.29309 288.824 5.37011L282.707 15.8408C282.287 16.5602 281.521 16.9636 280.739 16.9636Z" fill="#FF6B00"/>
<path d="M273.095 16.9636C272.708 16.9636 272.317 16.868 271.959 16.6642C270.874 16.0446 270.499 14.6723 271.126 13.5953L277.243 3.12459C277.87 2.05174 279.258 1.68164 280.348 2.30124C281.433 2.92083 281.808 4.29309 281.181 5.37011L275.064 15.8408C274.643 16.5602 273.882 16.9636 273.095 16.9636Z" fill="#FF6B00"/>
<defs>
<linearGradient id="paint0_linear_27_6" x1="572.924" y1="15.3125" x2="579.853" y2="8.3764" gradientUnits="userSpaceOnUse">
<stop stop-color="#2582C5" stop-opacity="0"/>
<stop offset="0.063" stop-color="#2090CD" stop-opacity="0.063"/>
<stop offset="0.2347" stop-color="#15B1DF" stop-opacity="0.2347"/>
<stop offset="0.4118" stop-color="#0BCAED" stop-opacity="0.4118"/>
<stop offset="0.5942" stop-color="#05DDF7" stop-opacity="0.5942"/>
<stop offset="0.7856" stop-color="#01E7FD" stop-opacity="0.7856"/>
<stop offset="1" stop-color="#00EBFF"/>
</linearGradient>
<linearGradient id="paint1_linear_27_6" x1="573.87" y1="16.2586" x2="583.772" y2="6.34653" gradientUnits="userSpaceOnUse">
<stop stop-color="#2582C5" stop-opacity="0"/>
<stop offset="0.063" stop-color="#2090CD" stop-opacity="0.063"/>
<stop offset="0.2347" stop-color="#15B1DF" stop-opacity="0.2347"/>
<stop offset="0.4118" stop-color="#0BCAED" stop-opacity="0.4118"/>
<stop offset="0.5942" stop-color="#05DDF7" stop-opacity="0.5942"/>
<stop offset="0.7856" stop-color="#01E7FD" stop-opacity="0.7856"/>
<stop offset="1" stop-color="#00EBFF"/>
</linearGradient>
<linearGradient id="paint2_linear_27_6" x1="574.534" y1="16.9206" x2="583.716" y2="7.72859" gradientUnits="userSpaceOnUse">
<stop stop-color="#2582C5" stop-opacity="0"/>
<stop offset="0.063" stop-color="#2090CD" stop-opacity="0.063"/>
<stop offset="0.2347" stop-color="#15B1DF" stop-opacity="0.2347"/>
<stop offset="0.4118" stop-color="#0BCAED" stop-opacity="0.4118"/>
<stop offset="0.5942" stop-color="#05DDF7" stop-opacity="0.5942"/>
<stop offset="0.7856" stop-color="#01E7FD" stop-opacity="0.7856"/>
<stop offset="1" stop-color="#00EBFF"/>
</linearGradient>
<linearGradient id="paint3_linear_27_6" x1="574.034" y1="16.4211" x2="575.802" y2="14.6508" gradientUnits="userSpaceOnUse">
<stop stop-color="#2582C5" stop-opacity="0"/>
<stop offset="0.063" stop-color="#2090CD" stop-opacity="0.063"/>
<stop offset="0.2347" stop-color="#15B1DF" stop-opacity="0.2347"/>
<stop offset="0.4118" stop-color="#0BCAED" stop-opacity="0.4118"/>
<stop offset="0.5942" stop-color="#05DDF7" stop-opacity="0.5942"/>
<stop offset="0.7856" stop-color="#01E7FD" stop-opacity="0.7856"/>
<stop offset="1" stop-color="#00EBFF"/>
</linearGradient>
<linearGradient id="paint4_linear_27_6" x1="574.611" y1="16.9973" x2="576.952" y2="14.6533" gradientUnits="userSpaceOnUse">
<stop stop-color="#2582C5" stop-opacity="0"/>
<stop offset="0.063" stop-color="#2090CD" stop-opacity="0.063"/>
<stop offset="0.2347" stop-color="#15B1DF" stop-opacity="0.2347"/>
<stop offset="0.4118" stop-color="#0BCAED" stop-opacity="0.4118"/>
<stop offset="0.5942" stop-color="#05DDF7" stop-opacity="0.5942"/>
<stop offset="0.7856" stop-color="#01E7FD" stop-opacity="0.7856"/>
<stop offset="1" stop-color="#00EBFF"/>
</linearGradient>
<linearGradient id="paint5_linear_27_6" x1="579.948" y1="14.4769" x2="583.896" y2="10.5246" gradientUnits="userSpaceOnUse">
<stop stop-color="#2582C5" stop-opacity="0"/>
<stop offset="0.063" stop-color="#2090CD" stop-opacity="0.063"/>
<stop offset="0.2347" stop-color="#15B1DF" stop-opacity="0.2347"/>
<stop offset="0.4118" stop-color="#0BCAED" stop-opacity="0.4118"/>
<stop offset="0.5942" stop-color="#05DDF7" stop-opacity="0.5942"/>
<stop offset="0.7856" stop-color="#01E7FD" stop-opacity="0.7856"/>
<stop offset="1" stop-color="#00EBFF"/>
</linearGradient>
<linearGradient id="paint6_linear_27_6" x1="576.899" y1="17.2005" x2="582.292" y2="11.8019" gradientUnits="userSpaceOnUse">
<stop stop-color="#2582C5" stop-opacity="0"/>
<stop offset="0.063" stop-color="#2090CD" stop-opacity="0.063"/>
<stop offset="0.2347" stop-color="#15B1DF" stop-opacity="0.2347"/>
<stop offset="0.4118" stop-color="#0BCAED" stop-opacity="0.4118"/>
<stop offset="0.5942" stop-color="#05DDF7" stop-opacity="0.5942"/>
<stop offset="0.7856" stop-color="#01E7FD" stop-opacity="0.7856"/>
<stop offset="1" stop-color="#00EBFF"/>
</linearGradient>
<linearGradient id="paint7_linear_27_6" x1="575.352" y1="17.7379" x2="579.158" y2="13.9279" gradientUnits="userSpaceOnUse">
<stop stop-color="#2582C5" stop-opacity="0"/>
<stop offset="0.063" stop-color="#2090CD" stop-opacity="0.063"/>
<stop offset="0.2347" stop-color="#15B1DF" stop-opacity="0.2347"/>
<stop offset="0.4118" stop-color="#0BCAED" stop-opacity="0.4118"/>
<stop offset="0.5942" stop-color="#05DDF7" stop-opacity="0.5942"/>
<stop offset="0.7856" stop-color="#01E7FD" stop-opacity="0.7856"/>
<stop offset="1" stop-color="#00EBFF"/>
</linearGradient>
<linearGradient id="paint8_linear_27_6" x1="575.389" y1="17.1196" x2="576.721" y2="15.7862" gradientUnits="userSpaceOnUse">
<stop stop-color="#2582C5" stop-opacity="0"/>
<stop offset="0.063" stop-color="#2090CD" stop-opacity="0.063"/>
<stop offset="0.2347" stop-color="#15B1DF" stop-opacity="0.2347"/>
<stop offset="0.4118" stop-color="#0BCAED" stop-opacity="0.4118"/>
<stop offset="0.5942" stop-color="#05DDF7" stop-opacity="0.5942"/>
<stop offset="0.7856" stop-color="#01E7FD" stop-opacity="0.7856"/>
<stop offset="1" stop-color="#00EBFF"/>
</linearGradient>
<linearGradient id="paint9_linear_27_6" x1="663.501" y1="5.46105" x2="668.792" y2="16.1714" gradientUnits="userSpaceOnUse">
<stop stop-color="#F97045"/>
<stop offset="1" stop-color="#EF2827"/>
</linearGradient>
<linearGradient id="paint10_linear_27_6" x1="664.83" y1="12.6369" x2="675.002" y2="23.2963" gradientUnits="userSpaceOnUse">
<stop stop-color="#F97045"/>
<stop offset="1" stop-color="#EF2827"/>
</linearGradient>
<linearGradient id="paint11_linear_27_6" x1="668.397" y1="17.6407" x2="672.16" y2="20.6971" gradientUnits="userSpaceOnUse">
<stop stop-color="#F97045"/>
<stop offset="1" stop-color="#EF2827"/>
</linearGradient>
</defs>
</svg>
