<svg width="540" height="30" viewBox="0 0 540 30" fill="none" xmlns="http://www.w3.org/2000/svg">
<g clip-path="url(#clip0_3_166)">
<path d="M60 0H0V30H60V0Z" fill="white"/>
<path d="M56.5384 8.07693H3.46155V20.7692H56.5384V8.07693Z" fill="white"/>
<mask id="mask0_3_166" style="mask-type:luminance" maskUnits="userSpaceOnUse" x="3" y="8" width="54" height="13">
<path d="M3.46155 8.077V20.7693H56.5384V8.077H3.46155Z" fill="white"/>
</mask>
<g mask="url(#mask0_3_166)">
<path fill-rule="evenodd" clip-rule="evenodd" d="M14.8232 9.73245H15.707C16.0592 9.73245 16.3383 9.9987 16.3383 10.3207V10.4817C16.3383 10.8098 16.0525 11.0761 15.7003 11.0761H15.2618C14.6637 11.0761 14.2517 11.429 14.1919 11.7633H14.1853V10.4817V10.3207C14.1853 9.9987 14.471 9.73245 14.8232 9.73245ZM39.8189 17.7996C39.4335 17.7996 38.6228 17.7872 38.1444 17.4838C37.5642 17.1272 37.5688 16.5089 37.5724 16.0257C37.5726 15.9889 37.5729 15.9523 37.5729 15.9173V12.9948H39.6595C40.0116 12.9948 40.2974 12.7286 40.2974 12.4004V11.7688H37.5729V10.6543C37.5729 10.3262 37.2872 10.0599 36.935 10.0599H36.0512C35.699 10.0599 35.4133 10.3262 35.4133 10.6543V11.7688H30.9212V10.6543C30.9212 10.3262 30.6355 10.0599 30.2833 10.0599H29.3995C29.0473 10.0599 28.7616 10.3262 28.7616 10.6543V11.7688H27.4193V12.4128C27.4193 12.7409 27.705 13.0072 28.0572 13.0072H28.7616V16.6665C28.7616 17.5829 29.1138 18.1216 29.7384 18.5054C30.3431 18.8769 31.0475 19.0379 32.3499 19.0379H33.0609C33.4131 19.0379 33.6922 18.7717 33.6922 18.4435V17.7996H33.1606C32.7752 17.7996 31.9645 17.7872 31.4861 17.4838C30.9059 17.1272 30.9105 16.5089 30.9141 16.0257C30.9143 15.9887 30.9146 15.9525 30.9146 15.9173V12.9948H35.4066V16.6541C35.4066 17.5705 35.7588 18.1092 36.3835 18.4931C36.9882 18.8646 37.6859 19.0255 38.995 19.0255H39.6993C40.0515 19.0255 40.3373 18.7593 40.3373 18.4311V17.7872H39.8189V17.7996ZM52.9657 10.0611C53.3179 10.0611 53.6036 10.3274 53.6036 10.6555H53.597V15.9185C53.597 15.9528 53.5967 15.988 53.5964 16.0239V16.0254V16.0269C53.5928 16.5101 53.5882 17.1284 54.1684 17.485C54.6469 17.7884 55.4576 17.8008 55.843 17.8008H56.3746V18.4447C56.3746 18.7729 56.0955 19.0391 55.7433 19.0391H55.0323C53.7299 19.0391 53.0255 18.8781 52.4208 18.5066C51.7962 18.1227 51.444 17.5841 51.444 16.6677V10.6555C51.444 10.3274 51.7297 10.0611 52.0819 10.0611H52.9657ZM12.5386 11.7703C11.9804 11.7703 11.5153 12.0799 11.2893 12.5257L8.95029 17.1633C8.89713 17.2747 8.78416 17.4481 8.69113 17.4481C8.5981 17.4481 8.48513 17.2685 8.43197 17.1633L6.07299 12.5257C5.84705 12.0799 5.3819 11.7703 4.82372 11.7703H3.46149L7.17606 18.4697C7.53206 19.1151 8.26005 19.1142 8.65376 19.1137H8.68449C9.21609 19.1137 9.84072 19.0889 10.173 18.4697L13.8875 11.7641H12.5386V11.7703ZM15.707 11.7703H14.8232C14.471 11.7703 14.1853 12.0365 14.1853 12.3647V18.4511C14.1853 18.7793 14.471 19.0455 14.8232 19.0455H15.707C16.0592 19.0455 16.3449 18.7793 16.3449 18.4511V12.3647C16.3383 12.0303 16.0592 11.7703 15.707 11.7703ZM24.2537 14.7011C24.679 14.7011 24.7322 14.4658 24.7322 14.2739C24.7322 13.8219 24.4199 13.4813 24.1075 13.2956C23.5693 12.9922 22.8716 12.9674 22.2669 12.9674H22.226C21.654 12.9671 20.7978 12.9667 20.2268 13.4504C19.8142 13.7947 19.8011 14.1603 19.7856 14.5965L19.7855 14.5986C19.7843 14.6323 19.783 14.6665 19.7816 14.7011V15.4441C19.7816 15.0293 20.4129 14.7011 21.1904 14.7011H24.2537ZM26.6459 17.8032V18.4471C26.6459 18.7691 26.3602 19.0353 26.0147 19.0477H21.2369C20.2468 19.0477 19.0706 18.9734 18.2599 18.1251C17.6153 17.4441 17.5622 16.441 17.5622 15.4813C17.5622 14.1253 17.6552 13.1222 18.7251 12.4349C19.7883 11.7477 21.4495 11.7477 22.3665 11.7477C23.5028 11.7477 24.6857 11.7848 25.5827 12.212C26.7257 12.7507 26.9649 13.6547 26.9649 14.5711C26.9649 14.9426 26.9117 15.3698 26.5064 15.667C26.214 15.8837 25.8419 15.9395 25.4565 15.9395H19.7883C19.7883 16.2552 19.8414 16.7196 19.9145 16.9425C20.187 17.7227 21.0907 17.8032 21.8815 17.8032H26.6459ZM48.0062 14.2739C48.0062 14.4658 47.953 14.7011 47.5278 14.7011H44.4644C43.6869 14.7011 43.0556 15.0293 43.0556 15.4441V14.7011C43.0571 14.6653 43.0584 14.63 43.0596 14.5951C43.0751 14.1596 43.0882 13.7944 43.4942 13.4504C44.0652 12.9667 44.9277 12.9671 45.4939 12.9674H45.5343C46.1456 12.9674 46.8433 12.9922 47.3749 13.2956C47.6939 13.4814 48.0062 13.8219 48.0062 14.2739ZM49.92 18.4471V17.8032H45.1555C44.3647 17.8032 43.461 17.7227 43.1886 16.9425C43.1155 16.7196 43.0623 16.2552 43.0623 15.9395H48.7305C49.1159 15.9395 49.488 15.8837 49.7804 15.667C50.1858 15.3698 50.2389 14.9426 50.2389 14.5711C50.2389 13.6547 49.9997 12.7507 48.8568 12.2121C47.953 11.7848 46.7769 11.7477 45.6339 11.7477C44.7169 11.7477 43.0556 11.7477 41.9924 12.435C40.9292 13.1222 40.8362 14.1253 40.8362 15.4813C40.8362 16.441 40.8894 17.4441 41.5339 18.1252C42.3446 18.9734 43.5208 19.0477 44.5176 19.0477H49.2953C49.6342 19.0353 49.92 18.7691 49.92 18.4471Z" fill="#EF0032"/>
</g>
<path d="M120 0H60V30H120V0Z" fill="white"/>
<path d="M117.692 8.07693H62.3077V20.7692H117.692V8.07693Z" fill="white"/>
<mask id="mask1_3_166" style="mask-type:luminance" maskUnits="userSpaceOnUse" x="62" y="8" width="56" height="13">
<path d="M62.3077 8.077V20.7693H117.692V8.077H62.3077Z" fill="white"/>
</mask>
<g mask="url(#mask1_3_166)">
<path d="M69.5083 9.18063V10.8396H71.1733V9.18063H69.5083ZM91.9593 9.18063V18.0141H93.6233V14.2737C93.6233 14.2737 93.6348 12.869 94.9058 12.9036C94.9058 12.9036 95.5487 12.8485 95.788 13.3568C95.8714 13.534 95.8825 13.7858 95.888 14.1125V18.0141H97.6097V13.4217C97.6097 13.4217 97.6097 11.6141 95.4951 11.568C95.4951 11.568 94.1548 11.5105 93.6233 12.4315V9.18063H91.9593ZM101.553 11.5206C101.203 11.5206 99.7532 11.591 98.9848 12.7193C98.9848 12.7193 98.0719 13.8362 98.4648 15.7474C98.4648 15.7474 98.8113 17.9348 101.561 18.0269C104.312 18.119 104.716 15.7243 104.716 15.7243C104.716 15.7243 105.162 13.6221 104 12.4777C103.68 12.1634 103.338 11.9409 102.991 11.7993C102.284 11.5105 101.631 11.522 101.631 11.522C101.631 11.522 101.603 11.5206 101.553 11.5206ZM114.922 11.5557C114.865 11.5548 114.806 11.5549 114.746 11.5563C114.113 11.5711 113.366 11.729 112.793 12.3049C112.793 12.3049 111.938 13.0072 111.949 14.6881C111.961 16.369 112.62 17.0368 112.62 17.0368C112.62 17.0368 113.301 18.0141 114.908 18.0141C114.908 18.0141 117.08 18.0961 117.611 16.0122H115.936C115.936 16.0122 115.716 16.7029 114.954 16.6799C114.294 16.66 113.703 16.3117 113.571 15.2408H117.681C117.681 15.2408 117.923 12.6963 116.19 11.8328C116.19 11.8328 115.774 11.5699 114.922 11.5557ZM108.968 11.566C108.65 11.5708 107.758 11.6572 107.27 12.443V11.568H105.583V18.0141H107.27V14.1009C107.27 14.1009 107.258 12.9266 108.494 12.8806C108.494 12.8806 109.557 12.8229 109.557 13.9167V18.0141H111.221V13.3065C111.221 13.3065 111.26 12.6019 110.539 12.0296C110.225 11.7806 109.785 11.568 109.084 11.568C109.084 11.568 109.041 11.5649 108.968 11.566ZM62.3077 11.5768L64.741 18.0141H66.3775L68.8252 11.5768H67.1176L65.5521 15.859L63.9584 11.5768H62.3077ZM69.5083 11.5768V18.0141H71.1733V11.5768H69.5083ZM71.9132 11.5768V18.0141H73.6066V14.2384C73.6066 13.4396 74.1063 12.9002 74.8706 12.893C75.9614 12.8827 75.8839 13.8665 75.8839 13.8665V18.0141H77.564V13.269C77.3676 11.5383 75.4186 11.5768 75.4186 11.5768C74.8444 11.5828 74.4083 11.7178 74.1225 11.8912C73.8715 12.0435 73.7107 12.2319 73.6066 12.4104V11.5768H71.9132ZM81.4657 11.5835C81.3941 11.5818 81.3532 11.5837 81.3532 11.5837C78.3867 11.6019 78.5783 13.7846 78.5783 13.7846H80.2031C80.2487 12.9479 81.1524 12.8842 81.1524 12.8842C81.1524 12.8842 81.7731 12.8296 82.1017 13.2934C82.5215 13.9725 81.5497 14.1048 81.2163 14.1393C80.0479 14.2484 79.4546 14.4939 79.4546 14.4939C78.3136 14.9123 78.3684 16.1946 78.3684 16.1946C78.3826 16.9894 78.7211 17.4444 79.1342 17.6967C79.654 18.0142 80.6047 18.0141 80.6047 18.0141C81.4473 18.0141 81.982 17.6889 82.2927 17.398C82.3578 17.7626 82.4302 18.0141 82.4302 18.0141H83.9729V13.9938C83.9729 11.7815 81.9672 11.5954 81.4657 11.5835ZM88.3234 11.5989C87.5207 11.6017 86.9081 11.9396 86.3643 12.5274V11.611H84.7579V19.6325H86.4099V17.0768C86.4099 17.0768 87.1128 18.0409 88.4911 17.9954C88.4911 17.9954 90.0976 17.959 90.6635 16.8677C91.2294 15.7763 91.1837 15.2033 91.1837 15.2033C91.1837 15.2033 91.3207 14.2303 90.9373 13.3117C90.9373 13.3117 90.6088 12.2294 89.194 11.711C88.8797 11.6342 88.5909 11.598 88.3234 11.5989ZM114.882 12.9127C115.266 12.9237 115.901 13.1058 116.028 14.1585H113.6C113.817 13.1212 114.584 12.9381 114.584 12.9381C114.584 12.9381 114.707 12.9077 114.882 12.9127ZM101.533 12.9345C101.573 12.9354 101.596 12.9381 101.596 12.9381C102.255 12.9842 103.041 13.1108 103.064 14.9184C103.087 16.726 101.642 16.6224 101.642 16.6224C101.377 16.6224 100.048 16.6569 100.094 14.7111C100.134 13.0086 101.254 12.9281 101.533 12.9345ZM87.8904 13.0377C88.1833 13.0425 89.3542 13.1652 89.3491 14.8214C89.3437 16.5853 88.053 16.6403 88.053 16.6403C88.053 16.6403 86.4647 16.8859 86.4373 14.9214C86.41 12.957 87.8248 13.0388 87.8248 13.0388C87.8248 13.0388 87.8486 13.0371 87.8904 13.0377ZM82.2156 14.8682C82.2245 15.7525 82.2993 16.4334 81.2163 16.804C81.2163 16.804 80.0571 17.1314 80.048 16.2674C80.0389 15.4034 80.6139 15.4125 81.5449 15.1851C81.8647 15.107 82.075 14.9892 82.2156 14.8682Z" fill="#00A1E4"/>
</g>
<path d="M180 0H120V30H180V0Z" fill="white"/>
<path d="M176.539 8.07693H123.462V19.6154H176.539V8.07693Z" fill="white"/>
<mask id="mask2_3_166" style="mask-type:luminance" maskUnits="userSpaceOnUse" x="123" y="8" width="54" height="12">
<path d="M123.462 8.0769V19.6154H176.539V8.0769H123.462Z" fill="white"/>
</mask>
<g mask="url(#mask2_3_166)">
<mask id="mask3_3_166" style="mask-type:luminance" maskUnits="userSpaceOnUse" x="123" y="9" width="54" height="9">
<path d="M176.539 9.88998H123.462V17.8023H176.539V9.88998Z" fill="white"/>
</mask>
<g mask="url(#mask3_3_166)">
<path d="M168.998 13.6811C168.933 13.4158 168.815 13.1937 168.637 13.0009C168.396 12.7434 168.087 12.5737 167.694 12.4796C167.33 12.3886 166.796 12.3454 166.06 12.3454C165.259 12.3454 164.742 12.4333 164.376 12.566C164.213 12.6215 164.035 12.7418 163.905 12.859V12.6045H162.867V17.736H163.91V14.477C163.91 13.6256 164.83 13.2894 165.747 13.2894H166.207C167.124 13.2894 168.055 13.6256 168.055 14.477V17.736H169.083V14.9366C169.083 14.3012 169.057 13.914 168.999 13.6827L168.998 13.6811Z" fill="#ED1C24"/>
<path d="M151.461 12.3285H152.498C152.51 11.8025 152.529 11.3028 152.59 11.0745C152.639 10.8478 152.746 10.6535 152.903 10.5054C153.084 10.3003 153.337 10.1522 153.662 10.0504C153.975 9.9702 154.509 9.90234 155.207 9.89154H156.181L155.245 10.7537C155.21 10.7537 154.881 10.7537 154.848 10.7537C153.469 10.7537 153.566 11.5881 153.566 12.3269H155.99L155.01 13.2709H153.541L153.546 17.7252H152.498V13.2709H151.461V12.3269V12.3285Z" fill="#ED1C24"/>
<path d="M150.424 10.6411V11.6467H151.462V10.6411H150.424Z" fill="#ED1C24"/>
<path d="M142.412 15.043C142.412 15.6523 142.337 16.1551 142.187 16.5299C142.035 16.9201 141.519 17.8023 139.013 17.8023C136.506 17.8023 135.991 16.9201 135.839 16.5299C135.689 16.1551 135.614 15.6523 135.614 15.043C135.614 14.4338 135.689 13.931 135.839 13.5562C135.991 13.166 136.506 12.2838 139.013 12.2838C141.519 12.2838 142.035 13.1644 142.187 13.5562C142.337 13.931 142.412 14.4323 142.412 15.043ZM141.1 13.8631C141.004 13.641 140.836 13.4976 140.578 13.4128C140.31 13.331 139.839 13.2847 139.013 13.2724C138.189 13.2832 137.717 13.331 137.448 13.4128C137.19 13.4976 137.022 13.641 136.926 13.8631C136.849 14.0328 136.763 14.4462 136.763 15.043C136.763 15.6399 136.849 16.0518 136.926 16.223C137.022 16.4451 137.19 16.5885 137.448 16.6733C137.716 16.7551 138.187 16.8013 139.013 16.8137C139.837 16.8029 140.309 16.7551 140.578 16.6733C140.836 16.5885 141.004 16.4451 141.1 16.223C141.177 16.0533 141.263 15.6399 141.263 15.043C141.263 14.4462 141.177 14.0343 141.1 13.8631Z" fill="#0061AF"/>
<path d="M162.105 15.043C162.105 15.6523 162.03 16.1551 161.88 16.5299C161.728 16.9201 161.212 17.8023 158.706 17.8023C156.199 17.8023 155.684 16.9201 155.532 16.5299C155.382 16.1551 155.307 15.6523 155.307 15.043C155.307 14.4338 155.382 13.931 155.532 13.5562C155.684 13.166 156.199 12.2838 158.706 12.2838C161.212 12.2838 161.728 13.1644 161.88 13.5562C162.03 13.931 162.105 14.4323 162.105 15.043ZM160.793 13.8631C160.697 13.641 160.529 13.4976 160.271 13.4128C160.003 13.331 159.53 13.2847 158.706 13.2724C157.882 13.2832 157.41 13.331 157.141 13.4128C156.883 13.4976 156.715 13.641 156.619 13.8631C156.542 14.0328 156.456 14.4462 156.456 15.043C156.456 15.6399 156.542 16.0518 156.619 16.223C156.715 16.4451 156.883 16.5885 157.141 16.6733C157.409 16.7551 157.88 16.8013 158.706 16.8137C159.53 16.8029 160.002 16.7551 160.271 16.6733C160.529 16.5885 160.697 16.4451 160.793 16.223C160.87 16.0533 160.956 15.6399 160.956 15.043C160.956 14.4462 160.87 14.0343 160.793 13.8631Z" fill="#ED1C24"/>
<path d="M134.783 13.6734C134.718 13.4081 134.599 13.186 134.421 12.9932C134.178 12.7357 133.866 12.566 133.471 12.4719C133.106 12.3809 132.577 12.3377 131.836 12.3377C131.027 12.3377 130.478 12.3994 130.108 12.5305C129.803 12.6354 129.548 12.8282 129.361 13.0935C129.142 12.8159 128.871 12.6261 128.533 12.5182C128.15 12.3963 127.437 12.3362 126.538 12.3362C125.862 12.3362 125.399 12.3809 125.119 12.475H125.116C124.906 12.5506 124.705 12.677 124.508 12.8575V12.5953H123.462V17.7268H124.498V14.4677C124.498 13.6163 125.413 13.2801 126.338 13.2801H126.802C127.727 13.2801 128.651 13.6163 128.651 14.4677V17.7268H129.687V14.4677C129.687 13.6163 130.591 13.2801 131.516 13.2801H131.98C132.905 13.2801 133.832 13.6163 133.832 14.4677V17.7268H134.866V14.9274C134.866 14.2919 134.84 13.9048 134.782 13.6734H134.783Z" fill="#0061AF"/>
<path d="M175.997 15.4178H176.527C176.534 15.2975 176.538 15.1726 176.538 15.043C176.538 14.4323 176.463 13.931 176.313 13.5562C176.162 13.166 175.646 12.2838 173.139 12.2838C170.633 12.2838 170.117 13.1644 169.965 13.5562C169.815 13.931 169.74 14.4323 169.74 15.043C169.74 15.6538 169.815 16.1551 169.965 16.5299C170.117 16.9201 170.633 17.8023 173.139 17.8023C175.646 17.8023 176.162 16.9201 176.313 16.5299C176.326 16.496 176.339 16.4589 176.351 16.4235H175.099C175.003 16.5345 174.872 16.6163 174.703 16.6718C174.433 16.7535 173.962 16.7998 173.138 16.8121C172.314 16.8013 171.842 16.7535 171.573 16.6718C171.315 16.587 171.147 16.4435 171.051 16.2214C170.992 16.0903 170.927 15.8142 170.9 15.4225H175.995V15.4163L175.997 15.4178ZM171.576 13.4143C171.844 13.3326 172.315 13.2863 173.141 13.274C173.965 13.2847 174.437 13.3326 174.706 13.4143C174.964 13.4991 175.132 13.6426 175.228 13.8647C175.279 13.9757 175.333 14.1917 175.365 14.4955H170.918C170.949 14.1917 171.005 13.9757 171.056 13.8647C171.152 13.6426 171.32 13.4991 171.578 13.4143H171.576Z" fill="#ED1C24"/>
<path d="M150.424 12.3285V17.7252H151.462V12.3285H150.424Z" fill="#0061AF"/>
<path d="M149.468 13.5562C149.316 13.166 148.801 12.2837 146.294 12.2837C145.335 12.2837 144.669 12.4133 144.202 12.5953V9.88998H143.166V17.7391H144.202V17.4908C144.669 17.6728 145.335 17.8023 146.294 17.8023C148.801 17.8023 149.316 16.9216 149.468 16.5299C149.618 16.1551 149.693 15.6523 149.693 15.043C149.693 14.4338 149.618 13.931 149.468 13.5562ZM148.381 16.2229C148.285 16.445 148.117 16.5885 147.859 16.6733C147.59 16.7551 147.118 16.8013 146.294 16.8137C145.47 16.8029 145.145 16.7551 144.876 16.6733C144.618 16.5885 144.45 16.445 144.354 16.2229C144.293 16.0888 144.227 15.8019 144.2 15.3932V14.6929C144.227 14.2842 144.293 13.9973 144.354 13.8631C144.45 13.641 144.618 13.4976 144.876 13.4128C145.144 13.331 145.468 13.2847 146.294 13.2724C147.118 13.2832 147.59 13.331 147.859 13.4128C148.117 13.4976 148.285 13.641 148.381 13.8631C148.458 14.0328 148.544 14.4461 148.544 15.043C148.544 15.6399 148.458 16.0517 148.381 16.2229Z" fill="#0061AF"/>
</g>
</g>
<path d="M240 0H180V30H240V0Z" fill="white"/>
<mask id="mask4_3_166" style="mask-type:luminance" maskUnits="userSpaceOnUse" x="192" y="6" width="36" height="16">
<path d="M192.692 6.9231V21.9231H227.307V6.9231H192.692Z" fill="white"/>
</mask>
<g mask="url(#mask4_3_166)">
<mask id="mask5_3_166" style="mask-type:luminance" maskUnits="userSpaceOnUse" x="193" y="7" width="34" height="14">
<path d="M226.616 7.90134H193.385V20.9448H226.616V7.90134Z" fill="white"/>
</mask>
<g mask="url(#mask5_3_166)">
<path d="M204.217 14.01C204.078 14.0094 203.939 14.0093 203.799 14.0094C202.858 14.0104 202.85 14.0086 202.599 14.8819C202.455 15.3842 202.307 15.8887 202.217 16.4008C201.975 17.7716 202.726 18.4165 204.172 18.1051C204.848 17.9594 204.851 17.9591 204.957 18.5942C205.041 19.0945 205.121 19.5953 205.198 20.0966C205.221 20.2502 205.267 20.4115 205.039 20.4913C203.452 21.0468 201.863 21.1811 200.329 20.3828C199.004 19.6937 198.43 18.2703 198.726 16.6501C198.873 15.8489 199.13 15.0756 199.389 14.3035C199.471 14.0621 199.413 13.9825 199.154 14.008C199.092 14.0112 199.03 14.0113 198.968 14.0084C197.974 14.0052 197.974 14.0052 197.973 13.0555C197.973 12.6211 197.985 12.1864 197.968 11.7525C197.959 11.5222 198.045 11.4531 198.287 11.4589C198.859 11.4727 199.433 11.4505 200.005 11.4682C200.251 11.4759 200.363 11.3952 200.43 11.1813C200.593 10.6536 200.786 10.1336 200.947 9.6054C201.013 9.39022 201.122 9.31176 201.369 9.31528C202.282 9.32833 203.196 9.33348 204.109 9.31026C204.465 9.30121 204.441 9.42936 204.356 9.66325C204.177 10.156 204.025 10.6572 203.842 11.1486C203.747 11.4037 203.818 11.4791 204.1 11.4664C204.502 11.4485 204.906 11.4724 205.308 11.4577C205.544 11.449 205.637 11.5112 205.632 11.7473C205.617 12.4131 205.618 13.0794 205.629 13.7453C205.633 13.9592 205.549 14.0213 205.332 14.0139C204.961 14.0014 204.589 14.0105 204.217 14.01Z" fill="#FE0027"/>
<path d="M215.503 14.0191C215.941 14.8874 215.961 15.806 215.887 16.7389C215.865 17.0223 215.673 17.0011 215.465 17.0008C213.638 16.998 211.812 16.997 209.985 16.9978C209.403 16.9977 209.345 17.0871 209.59 17.5933C210.036 18.5091 211.397 18.781 212.227 18.0858C212.48 17.8736 212.631 17.8835 212.889 18.0382C213.474 18.3892 214.069 18.7297 214.682 19.0352C215.033 19.21 214.99 19.3477 214.75 19.5673C213.336 20.8592 211.638 21.1634 209.774 20.7745C207.733 20.3487 206.298 18.7474 206.048 16.7002C205.796 14.6388 206.81 12.6988 208.653 11.868C210.204 11.1685 211.794 11.2134 213.371 11.8464C213.492 12.1001 213.26 12.23 213.141 12.3936C213.048 12.5226 212.91 12.6206 212.805 12.7428C212.514 13.0742 212.274 13.4401 212.008 13.7889C211.925 13.8653 211.815 13.9111 211.698 13.9181C211.465 13.9255 211.243 13.8398 211.009 13.8492C210.465 13.8713 210.015 14.0518 209.738 14.5127C209.656 14.6483 209.57 14.7994 209.718 14.951C210.232 15.0681 210.753 14.9793 211.269 15.0045C211.619 15.0217 211.972 14.9769 212.321 15.0352C212.421 15.0803 212.541 15.1259 212.399 15.2446C212.306 15.3219 212.161 15.2996 212.01 15.3925C212.434 15.8052 212.778 16.2587 213.251 16.6031C213.508 16.7901 213.601 16.6276 213.678 16.4298C213.833 16.1379 213.983 15.8434 214.145 15.555C214.309 15.3438 214.433 15.109 214.59 14.8932C214.78 14.6181 214.998 14.3611 215.241 14.1261C215.308 14.0565 215.37 13.9558 215.503 14.0191Z" fill="#FE0027"/>
<path d="M221.261 11.4978C220.909 13.1986 220.535 14.8958 220.215 16.6018C220.035 17.5648 220.698 18.2406 221.746 18.2226C221.977 18.2186 222.048 18.2328 221.991 18.4674C221.818 19.1865 221.666 19.9099 221.509 20.6323C221.477 20.7778 221.458 20.9057 221.245 20.9225C219.338 21.0719 217.158 20.2143 216.753 18.1218C216.585 17.2538 216.758 16.3923 216.941 15.5379C217.157 14.5313 217.365 13.5231 217.577 12.5157C217.691 12.2988 217.885 12.1799 218.118 12.0808C218.789 11.803 219.493 11.599 220.216 11.4728C220.564 11.476 220.92 11.2211 221.261 11.4978Z" fill="#FE0027"/>
<path d="M196.838 16.0826C196.838 17.5152 196.825 18.948 196.847 20.3803C196.853 20.7185 196.742 20.7892 196.405 20.7811C195.524 20.7597 194.641 20.7652 193.759 20.7789C193.485 20.7831 193.384 20.7207 193.385 20.4433C193.395 17.5492 193.395 14.655 193.385 11.7607C193.384 11.5402 193.438 11.4565 193.691 11.4598C194.634 11.4721 195.579 11.4742 196.522 11.4579C196.804 11.453 196.845 11.5544 196.843 11.7847C196.833 13.2172 196.838 14.6499 196.838 16.0826Z" fill="#FE0027"/>
<path d="M224.716 11.4731C224.465 11.4751 224.216 11.4307 223.983 11.3423C223.75 11.254 223.538 11.1235 223.359 10.9583C223.18 10.7931 223.037 10.5965 222.94 10.3797C222.842 10.1629 222.792 9.93031 222.79 9.69515C222.789 9.46 222.838 9.22696 222.933 9.00941C223.029 8.79186 223.169 8.59408 223.347 8.42743C223.524 8.26078 223.735 8.12854 223.967 8.0383C224.199 7.94806 224.448 7.9016 224.7 7.90158C224.951 7.89767 225.2 7.94076 225.433 8.02832C225.667 8.11589 225.879 8.24615 226.057 8.41146C226.235 8.57677 226.377 8.77378 226.473 8.99092C226.569 9.20805 226.617 9.44092 226.615 9.67583C226.619 9.9109 226.572 10.1442 226.478 10.3623C226.384 10.5803 226.245 10.7787 226.068 10.9459C225.891 11.1132 225.681 11.2459 225.449 11.3364C225.217 11.4269 224.968 11.4733 224.716 11.4731Z" fill="#FE0027"/>
<path d="M221.261 11.4978C220.898 11.5212 220.535 11.5446 220.173 11.568C220.134 11.5936 220.062 11.6182 220.049 11.5949C219.596 10.8073 218.785 10.3167 218.197 9.64234C218.173 9.18979 218.398 9.02058 218.882 8.91105C219.731 8.71666 220.602 8.61209 221.476 8.59932C221.703 8.59621 221.907 8.62178 221.839 8.89362C221.626 9.7578 221.562 10.651 221.261 11.4978Z" fill="#FEC993"/>
<path d="M212.724 12.6889C212.899 12.381 213.296 12.222 213.37 11.8464C214.134 12.2305 214.792 12.7222 215.237 13.4336C215.352 13.6179 215.487 13.795 215.503 14.0191C215.178 14.2899 214.923 14.617 214.66 14.938L214.615 14.9406C214.614 14.3885 214.151 14.1292 213.784 13.8182C213.433 13.5199 213.134 13.1756 212.791 12.8716C212.736 12.8229 212.679 12.7711 212.724 12.6889Z" fill="#FEC590"/>
<path d="M218.197 9.64233C218.707 9.93865 219.115 10.3394 219.502 10.7604C219.74 11.019 220.051 11.2249 220.173 11.568C219.449 11.7587 218.715 11.9189 218.033 12.231C217.865 12.3005 217.71 12.3968 217.576 12.5158C217.783 11.5579 217.99 10.6001 218.197 9.64233Z" fill="#FEAA82"/>
<path d="M212.724 12.6889C213.348 13.2573 213.946 13.8527 214.606 14.3811C214.885 14.6046 214.534 14.7678 214.66 14.9381C214.517 15.1507 214.374 15.3633 214.23 15.5759C214.195 15.591 214.155 15.5941 214.117 15.5846C214.08 15.575 214.047 15.5534 214.025 15.5236C213.416 14.8522 212.708 14.2807 211.978 13.7304C212.155 13.3386 212.441 13.0148 212.724 12.6889Z" fill="#FE8C75"/>
<path d="M209.479 15.0397C210.372 15.0423 211.266 15.0467 212.159 15.0468C212.586 15.0468 212.634 14.9684 212.486 14.5889C212.343 14.223 212.018 14.0338 211.693 13.841C211.788 13.8042 211.883 13.7673 211.978 13.7304C212.474 13.7285 212.669 14.1517 212.982 14.3885C213.44 14.7357 213.818 15.1754 214.23 15.5758C214.113 15.8815 213.952 16.1713 213.754 16.438C213.348 15.971 212.788 15.6424 212.421 15.1407C211.581 15.1355 210.742 15.1335 209.902 15.1221C209.76 15.1202 209.593 15.1857 209.479 15.0397Z" fill="#FC565C"/>
<path d="M212.421 15.1407C212.907 15.5359 213.496 15.8382 213.754 16.438C213.65 16.933 213.559 16.963 213.156 16.6817C212.686 16.3545 212.41 15.8525 211.937 15.5293C211.904 15.4995 211.879 15.4633 211.864 15.4233C211.848 15.3834 211.842 15.3407 211.846 15.2983C211.863 15.1878 211.99 15.2233 212.076 15.2117C212.193 15.196 212.327 15.2537 212.421 15.1407Z" fill="#FE2A50"/>
</g>
</g>
<path d="M300 0H240V30H300V0Z" fill="white"/>
<path d="M247.974 23.5181L249.067 21.074H250.175L248.341 25.0782H247.603L245.769 21.074H246.878L247.974 23.5181Z" fill="#FF6B00"/>
<path d="M251.133 18.968C251.519 18.968 251.83 19.2658 251.83 19.6535C251.83 20.0412 251.519 20.3389 251.133 20.3389C250.747 20.3389 250.435 20.0412 250.435 19.6535C250.435 19.2658 250.747 18.968 251.133 18.968ZM251.667 25.0782H250.598V21.074H251.667V25.0782Z" fill="#FF6B00"/>
<path d="M256.008 24.4424C255.622 24.9045 254.989 25.1619 254.372 25.1619C253.18 25.1619 252.281 24.3369 252.281 23.0808C252.281 21.9642 253.038 20.9903 254.223 20.9903C255.326 20.9903 256.107 21.9238 256.107 23.0373C256.107 23.1459 256.098 23.2513 256.082 23.3444H253.319C253.377 23.9058 253.828 24.2935 254.396 24.2935C254.847 24.2935 255.211 24.0391 255.4 23.8313L256.008 24.4424ZM255.014 22.5597C254.98 22.203 254.662 21.8587 254.223 21.8587C253.785 21.8587 253.417 22.1968 253.368 22.5597H255.014Z" fill="#FF6B00"/>
<path d="M259.593 25.0782C259.454 25.1278 259.133 25.1619 258.929 25.1619C258.287 25.1619 257.818 24.9479 257.549 24.585C257.342 24.3121 257.252 23.9585 257.252 23.3878V21.9828H256.144V21.074H257.252V19.9605H258.321V21.074H259.636V21.9828H258.321V23.5119C258.321 23.76 258.361 23.9089 258.454 24.0143C258.562 24.1384 258.735 24.2129 258.997 24.2129C259.154 24.2129 259.358 24.188 259.432 24.1725L259.596 25.0813L259.593 25.0782Z" fill="#FF6B00"/>
<path d="M260.251 25.0782V21.074H261.279V21.3966C261.581 21.1484 261.961 20.9933 262.406 20.9933C262.959 20.9933 263.459 21.2415 263.786 21.6385C264.048 21.9517 264.197 22.3581 264.197 23.0435V25.0844H263.128V22.9629C263.128 22.5659 263.039 22.3612 262.891 22.2123C262.752 22.0727 262.536 21.989 262.292 21.989C261.841 21.989 261.47 22.2774 261.322 22.4852V25.0875H260.254L260.251 25.0782Z" fill="#FF6B00"/>
<path d="M268.85 25.0782H267.822V24.7556C267.491 25.0379 267.115 25.1588 266.71 25.1588C266.117 25.1588 265.558 24.8952 265.206 24.4827C264.895 24.1198 264.697 23.6235 264.697 23.0776C264.697 21.8959 265.568 20.9872 266.655 20.9872C267.105 20.9872 267.51 21.136 267.822 21.3935V21.0709H268.85V25.0751V25.0782ZM267.782 22.479C267.559 22.1813 267.204 21.9828 266.793 21.9828C266.17 21.9828 265.765 22.5038 265.765 23.0807C265.765 23.7073 266.216 24.1694 266.818 24.1694C267.22 24.1694 267.575 23.9709 267.782 23.6731V22.4759V22.479Z" fill="#FF6B00"/>
<path d="M269.696 25.0782V21.074H270.724V21.3966C271.036 21.1174 271.416 20.9933 271.802 20.9933C272.345 20.9933 272.83 21.2415 273.142 21.6199C273.463 21.2818 273.963 20.9933 274.556 20.9933C275.106 20.9933 275.634 21.2415 275.955 21.6385C276.211 21.9517 276.356 22.3643 276.356 22.9598V25.0813H275.288V22.9163C275.288 22.5535 275.214 22.3705 275.09 22.2309C274.927 22.0479 274.695 21.9828 274.491 21.9828C274.031 21.9828 273.67 22.3053 273.528 22.51C273.543 22.6434 273.562 22.7923 273.562 22.9567V25.0782H272.493V22.9132C272.493 22.5504 272.419 22.3674 272.296 22.2278C272.132 22.0448 271.901 21.9797 271.697 21.9797C271.246 21.9797 270.916 22.2867 270.767 22.4759V25.0782H269.699H269.696Z" fill="#FF6B00"/>
<path d="M278.981 20.9903C280.188 20.9903 281.102 21.9238 281.102 23.0808C281.102 24.2377 280.188 25.1619 278.981 25.1619C277.773 25.1619 276.859 24.2377 276.859 23.0808C276.859 21.9238 277.773 20.9903 278.981 20.9903ZM278.981 24.1725C279.604 24.1725 280.034 23.6856 280.034 23.0808C280.034 22.4759 279.607 21.9828 278.981 21.9828C278.354 21.9828 277.928 22.479 277.928 23.0808C277.928 23.6825 278.354 24.1725 278.981 24.1725Z" fill="#FF6B00"/>
<path d="M281.667 25.0782V19.213H282.735V21.3594C283.047 21.1112 283.424 20.9872 283.862 20.9872C284.949 20.9872 285.82 21.8959 285.82 23.0777C285.82 23.6235 285.622 24.1167 285.31 24.4827C284.958 24.8952 284.4 25.1588 283.807 25.1588C283.405 25.1588 283.026 25.0348 282.695 24.7556V25.0782H281.667ZM282.735 23.6763C282.939 23.974 283.294 24.1725 283.699 24.1725C284.298 24.1725 284.752 23.7104 284.752 23.0808C284.752 22.5039 284.35 21.9828 283.723 21.9828C283.313 21.9828 282.958 22.1813 282.738 22.479V23.6763H282.735Z" fill="#FF6B00"/>
<path d="M286.944 18.968C287.33 18.968 287.642 19.2658 287.642 19.6535C287.642 20.0412 287.33 20.3389 286.944 20.3389C286.558 20.3389 286.246 20.0412 286.246 19.6535C286.246 19.2658 286.558 18.968 286.944 18.968ZM287.481 25.0782H286.413V21.074H287.481V25.0782Z" fill="#FF6B00"/>
<path d="M289.42 19.2161H288.352V25.0812H289.42V19.2161Z" fill="#FF6B00"/>
<path d="M293.728 24.4424C293.342 24.9045 292.709 25.1619 292.091 25.1619C290.899 25.1619 290.004 24.3369 290.004 23.0808C290.004 21.9642 290.76 20.9903 291.946 20.9903C293.048 20.9903 293.829 21.9238 293.829 23.0373C293.829 23.1459 293.82 23.2513 293.805 23.3444H291.041C291.1 23.9058 291.551 24.2935 292.119 24.2935C292.573 24.2935 292.934 24.0391 293.122 23.8313L293.731 24.4424H293.728ZM292.733 22.5597C292.699 22.203 292.378 21.8587 291.943 21.8587C291.508 21.8587 291.137 22.1968 291.088 22.5597H292.733Z" fill="#FF6B00"/>
<path d="M264.191 16.9302C263.613 16.9302 263.054 16.6294 262.745 16.0928L258.256 8.28294C257.796 7.48272 258.068 6.45609 258.867 5.99395C259.664 5.53181 260.683 5.80475 261.146 6.60807L265.636 14.4179C266.096 15.2181 265.824 16.2417 265.027 16.7069C264.765 16.8589 264.478 16.9302 264.194 16.9302" fill="#FF6B00"/>
<path d="M275.408 16.9303C275.124 16.9303 274.837 16.8589 274.578 16.7069C273.781 16.2448 273.506 15.2213 273.966 14.418L278.456 6.6081C278.916 5.80788 279.935 5.53184 280.735 5.99398C281.531 6.45612 281.806 7.47965 281.346 8.28297L276.856 16.0928C276.548 16.6294 275.989 16.9303 275.411 16.9303" fill="#FF6B00"/>
<path d="M269.798 16.9303C269.514 16.9303 269.227 16.8589 268.964 16.7069C268.168 16.2448 267.893 15.2213 268.353 14.418L272.842 6.6081C273.302 5.80788 274.321 5.53184 275.121 5.99398C275.918 6.45612 276.192 7.47965 275.732 8.28297L271.243 16.0928C270.934 16.6294 270.372 16.9303 269.798 16.9303Z" fill="#FF6B00"/>
<path d="M264.187 16.9303C263.903 16.9303 263.616 16.8589 263.354 16.7069C262.557 16.2448 262.282 15.2213 262.742 14.418L267.232 6.6081C267.692 5.80788 268.711 5.53184 269.511 5.99398C270.307 6.45612 270.582 7.47965 270.122 8.28297L265.632 16.0928C265.324 16.6294 264.765 16.9303 264.187 16.9303Z" fill="#FF6B00"/>
<path d="M360 0H300V30H360V0Z" fill="white"/>
<path d="M354.23 6.92307H304.615V23.0769H354.23V6.92307Z" fill="white"/>
<mask id="mask6_3_166" style="mask-type:luminance" maskUnits="userSpaceOnUse" x="304" y="6" width="51" height="18">
<path d="M304.615 6.9231V23.0769H354.23V6.9231H304.615Z" fill="white"/>
</mask>
<g mask="url(#mask6_3_166)">
<mask id="mask7_3_166" style="mask-type:luminance" maskUnits="userSpaceOnUse" x="304" y="6" width="50" height="18">
<path d="M353.86 6.92303H304.97V23.0768H353.86V6.92303Z" fill="white"/>
</mask>
<g mask="url(#mask7_3_166)">
<path d="M345.2 10.9676C344.89 10.9676 344.719 11.1371 344.719 11.4519C344.719 11.6295 344.784 11.9363 345.2 11.9363C345.632 11.9363 345.697 11.6376 345.697 11.4519C345.697 11.2743 345.632 10.9676 345.2 10.9676Z" fill="#020202"/>
<path d="M335.782 12.3076H333.664C332.336 12.3076 331.822 12.7355 331.822 13.8254V15.5207C331.822 16.5944 332.336 17.0141 333.639 17.0141H335.782C337.061 17.0141 337.558 16.5944 337.558 15.5207V13.8254C337.558 12.7517 337.045 12.3076 335.782 12.3076ZM332.898 13.8254C332.898 13.4379 332.898 13.2845 333.55 13.2845H335.904C336.466 13.2845 336.466 13.3975 336.466 13.7608V15.5287C336.466 15.9404 336.466 16.0373 335.904 16.0373H333.55C332.898 16.0373 332.898 15.9082 332.898 15.5287V13.8254Z" fill="#020202"/>
<path d="M342.161 12.3077H339.31V9.46601C339.31 9.14309 339.106 8.94934 338.78 8.94934C338.446 8.94934 338.25 9.13502 338.25 9.46601V15.5368C338.25 16.5944 338.804 17.0222 340.173 17.0222H342.169C343.497 17.0222 344.043 16.5782 344.043 15.5045V13.8254C344.035 12.7517 343.489 12.3077 342.161 12.3077ZM342.454 16.0373H340.018C339.293 16.0373 339.293 15.884 339.293 15.5368V13.2845H342.299C342.976 13.2845 342.976 13.454 342.976 13.8496V15.4884C342.984 15.9405 342.984 16.0373 342.454 16.0373Z" fill="#020202"/>
<path d="M345.184 12.1624C344.882 12.1624 344.703 12.3642 344.703 12.7032V16.4652C344.703 16.8123 344.882 17.0222 345.2 17.0222C345.509 17.0222 345.705 16.8123 345.705 16.4652V12.7113C345.705 12.3642 345.518 12.1624 345.184 12.1624Z" fill="#020202"/>
<path d="M346.894 8.94934C346.577 8.94934 346.389 9.14309 346.389 9.47408V16.4975C346.389 16.8285 346.577 17.0222 346.903 17.0222C347.228 17.0222 347.408 16.8285 347.408 16.4975V9.47408C347.408 9.14309 347.22 8.94934 346.894 8.94934Z" fill="#020202"/>
<path d="M352.28 12.3076H349.966C348.622 12.3076 348.076 12.7436 348.076 13.8092V15.5045C348.076 16.5136 348.833 17.0222 350.316 17.0222H350.935C351.237 17.0222 351.416 16.8285 351.416 16.5217C351.416 16.2149 351.237 16.0373 350.935 16.0373H350.121C349.151 16.0373 349.151 15.7144 349.151 15.6014V15.2139H353.355C353.542 15.2139 353.86 15.1493 353.86 14.6972V13.6477C353.86 12.8405 353.591 12.3076 352.28 12.3076ZM349.151 13.7608C349.151 13.4136 349.151 13.2845 349.803 13.2845H352.434C352.671 13.2845 352.744 13.3168 352.76 13.341C352.801 13.3813 352.801 13.5024 352.801 13.6477V14.2128H349.151V13.7608Z" fill="#020202"/>
<path d="M329.305 12.2673H328.515C327.928 12.2673 327.513 12.3561 327.219 12.5337C326.926 12.348 326.511 12.2673 325.924 12.2673H325.134C323.814 12.2673 323.301 12.6951 323.301 13.785V16.5055C323.301 16.8042 323.464 16.9253 323.602 16.9738C323.757 17.0303 323.928 17.0303 324.083 16.9738C324.189 16.9334 324.376 16.8123 324.376 16.5055V13.785C324.376 13.4056 324.376 13.2441 325.028 13.2441H326.038C326.682 13.2441 326.682 13.4136 326.69 13.7446V13.785V16.5055C326.682 16.6266 326.722 16.7397 326.788 16.8365C326.836 16.9011 326.902 16.9495 326.975 16.9818C327.048 17.0061 327.13 17.0222 327.211 17.0222H327.236C327.317 17.0222 327.399 17.0061 327.472 16.9818C327.545 16.9495 327.61 16.9011 327.659 16.8446C327.733 16.7477 327.765 16.6347 327.765 16.5136V13.785V13.7446C327.765 13.4136 327.765 13.2441 328.417 13.2441H329.411C330.063 13.2441 330.063 13.4056 330.063 13.785V16.5055C330.063 16.8204 330.242 16.9334 330.356 16.9738C330.429 16.998 330.503 17.0141 330.576 17.0141H330.592C330.674 17.0141 330.755 16.998 330.837 16.9738C330.951 16.9334 331.138 16.8123 331.138 16.4975V13.785C331.13 12.6951 330.617 12.2673 329.305 12.2673Z" fill="#020202"/>
<path d="M320.506 13.1714C320.751 13.4136 320.946 13.6962 321.076 14.011C321.207 14.3259 321.272 14.6649 321.272 15.004C321.272 15.3431 321.207 15.6821 321.076 15.997C320.946 16.3118 320.751 16.5944 320.506 16.8365L314.974 22.318C314.486 22.8024 313.817 23.0769 313.125 23.0769C312.432 23.0769 311.764 22.8024 311.276 22.318L305.736 16.8365C305.491 16.5944 305.304 16.3118 305.165 15.997C305.035 15.6821 304.97 15.3431 304.97 15.004C304.97 14.6649 305.035 14.3259 305.165 14.011C305.296 13.6962 305.491 13.4136 305.736 13.1714L311.276 7.68189C311.764 7.19751 312.432 6.92303 313.125 6.92303C313.817 6.92303 314.486 7.19751 314.974 7.68189L320.506 13.1714Z" fill="#FFC425"/>
<path d="M314.974 11.9928L314.046 12.9131C313.964 12.9939 313.891 13.0988 313.85 13.2118C313.801 13.3248 313.777 13.4379 313.777 13.559C313.777 13.8011 313.874 14.0353 314.046 14.2048C314.217 14.3743 314.453 14.4712 314.697 14.4712C314.942 14.4712 315.178 14.3743 315.349 14.2048L315.928 13.6316C315.928 13.6316 316.139 13.8334 316.636 14.3259L317.215 14.8991L313.247 18.8306C313.068 19.0082 312.848 19.0243 312.677 18.8548L309.304 15.5207C309.271 15.4884 309.239 15.448 309.223 15.3996C309.206 15.3511 309.198 15.3108 309.198 15.2623C309.198 15.2139 309.206 15.1655 309.231 15.1251C309.247 15.0847 309.28 15.0444 309.312 15.0121L313.964 10.4025C314.054 10.3217 314.127 10.2168 314.176 10.1038C314.225 9.99074 314.249 9.86965 314.249 9.74856C314.249 9.62746 314.225 9.50637 314.184 9.39335C314.135 9.28033 314.07 9.17538 313.98 9.09465C313.891 9.00585 313.793 8.94127 313.679 8.89283C313.565 8.84439 313.443 8.82825 313.32 8.82825C313.198 8.82825 313.076 8.85247 312.962 8.9009C312.848 8.94934 312.75 9.022 312.661 9.1108L307.365 14.3501C307.121 14.6004 306.982 14.9394 306.982 15.2866C306.982 15.6337 307.129 15.9728 307.381 16.2149L311.984 20.768C312.229 21.0183 312.571 21.1555 312.921 21.1636C313.272 21.1636 313.614 21.0345 313.866 20.7842L318.869 15.8274C319.113 15.5772 319.252 15.2462 319.252 14.891C319.252 14.5439 319.105 14.2048 318.852 13.9626L318.144 13.2603L317.924 13.0423L316.848 11.9767C316.596 11.7345 316.253 11.5972 315.903 11.5972C315.553 11.6053 315.219 11.7426 314.974 11.9928Z" fill="black"/>
</g>
</g>
<path d="M420 0H360V30H420V0Z" fill="white"/>
<path d="M389.319 20.1037C389.197 19.6454 389.288 19.1257 389.594 18.5446L393.895 10.3667C394.173 9.84673 394.533 9.51341 394.978 9.36675C395.198 9.29179 395.432 9.2644 395.664 9.28638C395.896 9.30836 396.121 9.3792 396.323 9.49425C396.53 9.59705 396.713 9.74308 396.858 9.92248C397.004 10.1019 397.11 10.3105 397.169 10.5342C397.286 10.9825 397.188 11.4966 396.888 12.0624L392.629 20.1637C392.333 20.7245 391.962 21.0962 391.523 21.2594C391.305 21.3458 391.071 21.3819 390.837 21.3652C390.602 21.3486 390.375 21.2794 390.172 21.1628C389.963 21.0572 389.779 20.9086 389.631 20.7268C389.484 20.545 389.376 20.334 389.316 20.1079" fill="#DC000B"/>
<path d="M384.642 20.1037C384.519 19.6454 384.61 19.1257 384.917 18.5446L389.217 10.3667C389.495 9.84674 389.856 9.51342 390.301 9.36676C390.522 9.29184 390.755 9.26447 390.987 9.28644C391.219 9.30841 391.444 9.37925 391.646 9.49426C391.853 9.59799 392.035 9.74431 392.18 9.92357C392.327 10.1028 392.433 10.3109 392.492 10.5342C392.609 10.9825 392.512 11.4966 392.211 12.0625L387.951 20.1638C387.656 20.7245 387.285 21.0962 386.847 21.2595C386.628 21.3459 386.394 21.3821 386.16 21.3654C385.927 21.3487 385.7 21.2794 385.496 21.1628C385.286 21.0572 385.102 20.9086 384.955 20.7268C384.807 20.545 384.701 20.334 384.641 20.1079" fill="#DC000B"/>
<path d="M365.518 9.47525C365.722 9.36143 365.948 9.29377 366.181 9.27707C366.414 9.26036 366.647 9.29502 366.865 9.37858C367.303 9.54524 367.676 9.91856 367.971 10.4735L372.23 18.5757C372.532 19.1464 372.623 19.6589 372.511 20.1038C372.453 20.3278 372.348 20.5367 372.202 20.7163C372.056 20.8957 371.873 21.0415 371.665 21.1438C371.463 21.2578 371.238 21.3279 371.007 21.3497C370.774 21.3714 370.541 21.3445 370.32 21.2705C369.872 21.118 369.511 20.7814 369.237 20.2706L364.943 12.0918C364.637 11.514 364.545 10.9935 364.668 10.5302C364.725 10.3032 364.831 10.0914 364.977 9.90921C365.124 9.72706 365.308 9.579 365.518 9.47525Z" fill="#DC000B"/>
<path d="M370.675 9.47508C370.88 9.36074 371.106 9.29281 371.339 9.2761C371.573 9.25939 371.807 9.29432 372.026 9.37842C372.464 9.54508 372.835 9.91839 373.131 10.4734L377.39 18.5755C377.692 19.1463 377.783 19.6587 377.671 20.1037C377.613 20.3277 377.508 20.5366 377.362 20.7161C377.216 20.8955 377.033 21.0414 376.825 21.1436C376.623 21.2576 376.398 21.3277 376.165 21.3495C375.934 21.3713 375.701 21.3444 375.48 21.2703C375.031 21.1178 374.669 20.7812 374.396 20.2704L370.099 12.0916C369.793 11.5155 369.701 10.9958 369.824 10.5325C369.881 10.3051 369.986 10.0927 370.133 9.91015C370.28 9.72755 370.465 9.57909 370.675 9.47508Z" fill="#DC000B"/>
<path d="M389.661 20.8412C389.345 20.4945 389.182 19.9903 389.182 19.3478L389.176 11.1816C389.176 10.5983 389.343 10.1325 389.666 9.79586C389.825 9.62858 390.017 9.49636 390.23 9.4077C390.444 9.31902 390.673 9.27583 390.904 9.28089C391.133 9.27447 391.362 9.3181 391.573 9.40875C391.784 9.49941 391.972 9.63491 392.126 9.80586C392.437 10.1525 392.59 10.6392 392.59 11.2783L392.596 19.3545C392.596 19.9812 392.429 20.4811 392.126 20.8269C391.976 21.0039 391.787 21.1445 391.574 21.2381C391.362 21.3317 391.131 21.3761 390.899 21.3678C390.399 21.3569 389.982 21.1895 389.661 20.8378" fill="#FF0000"/>
<path d="M374.429 20.1288C374.304 19.6705 374.394 19.1498 374.695 18.5671L378.946 10.3625C379.216 9.84174 379.576 9.50258 380.024 9.35176C380.244 9.27404 380.477 9.24445 380.71 9.26501C380.941 9.28556 381.166 9.35578 381.37 9.47092C381.577 9.57271 381.761 9.71801 381.909 9.897C382.055 10.076 382.162 10.2845 382.222 10.5084C382.341 10.9558 382.249 11.4716 381.951 12.0391L377.742 20.1671C377.451 20.7296 377.08 21.1037 376.643 21.2695C376.426 21.3562 376.191 21.3927 375.957 21.3763C375.723 21.3599 375.496 21.2908 375.293 21.1745C375.083 21.0699 374.898 20.9226 374.749 20.7417C374.6 20.561 374.492 20.3509 374.429 20.1254" fill="#FF0000"/>
<path d="M369.233 20.1036C369.111 19.6453 369.203 19.1257 369.508 18.5446L373.809 10.3667C374.087 9.84669 374.448 9.51337 374.892 9.36671C375.113 9.28969 375.346 9.26084 375.579 9.28212C375.811 9.30339 376.037 9.3743 376.24 9.49004C376.446 9.59299 376.629 9.73905 376.775 9.91843C376.921 10.0978 377.027 10.3063 377.086 10.53C377.202 10.9783 377.105 11.4924 376.805 12.0582L372.545 20.1595C372.25 20.7203 371.878 21.0919 371.439 21.2553C371.221 21.3417 370.987 21.3779 370.753 21.3611C370.519 21.3443 370.292 21.2752 370.09 21.1587C369.879 21.0547 369.693 20.9066 369.546 20.7246C369.399 20.5425 369.292 20.3307 369.233 20.1036Z" fill="#FF0000"/>
<path d="M385.762 9.2659C386.101 9.26573 386.433 9.36602 386.714 9.55409C386.996 9.74214 387.215 10.0095 387.345 10.3224C387.475 10.6353 387.509 10.9796 387.443 11.3119C387.377 11.6441 387.214 11.9493 386.974 12.1889C386.735 12.4284 386.429 12.5916 386.098 12.6578C385.765 12.7239 385.421 12.69 385.109 12.5604C384.796 12.4309 384.528 12.2114 384.339 11.9298C384.152 11.6481 384.051 11.317 384.051 10.9783C384.051 10.5243 384.232 10.0889 384.552 9.76774C384.873 9.44663 385.309 9.26612 385.762 9.2659Z" fill="#FF0000"/>
<path d="M379.567 20.1037C379.445 19.6454 379.537 19.1257 379.842 18.5446L382.12 14.1623C382.394 13.6432 382.756 13.3066 383.203 13.1624C383.423 13.0933 383.655 13.0687 383.885 13.0901C384.115 13.1115 384.339 13.1784 384.543 13.2869C384.747 13.3955 384.927 13.5436 385.073 13.7224C385.22 13.9013 385.328 14.1076 385.394 14.329C385.511 14.7774 385.414 15.2923 385.113 15.8572L382.876 20.1579C382.582 20.7187 382.21 21.0904 381.771 21.2536C381.554 21.3401 381.319 21.3762 381.085 21.3594C380.851 21.3428 380.625 21.2736 380.421 21.157C380.211 21.0532 380.027 20.9059 379.879 20.7247C379.731 20.5437 379.625 20.3331 379.566 20.107" fill="#FF0000"/>
<path d="M416.253 19.3679C416.253 19.9903 416.093 20.4871 415.791 20.8312C415.665 20.9794 415.512 21.1026 415.34 21.1945H415.336L415.318 21.2037C415.089 21.3167 414.836 21.3726 414.581 21.3661C414.089 21.3561 413.677 21.1886 413.361 20.8394C413.045 20.4904 412.889 19.9937 412.889 19.3563V17.933V11.1641C412.889 10.5808 413.056 10.1217 413.371 9.78755C413.527 9.62224 413.715 9.49132 413.924 9.4032C414.133 9.31509 414.359 9.27172 414.586 9.27591C414.619 9.27591 414.651 9.27591 414.683 9.27591C414.893 9.28195 415.1 9.33115 415.29 9.42045C415.482 9.50974 415.652 9.63725 415.791 9.79505C416.097 10.1392 416.248 10.6283 416.248 11.2583V12.9832L416.253 19.3679Z" fill="#353535"/>
<path d="M411.974 16.3988C411.974 17.5472 411.378 17.9538 410.099 17.9538H406.225C406.418 18.5721 407.084 18.9471 408.083 18.9471C408.509 18.9391 408.931 18.8545 409.327 18.6971C409.508 18.6228 409.705 18.5946 409.899 18.6151C410.094 18.6357 410.28 18.704 410.441 18.8143C410.603 18.9245 410.735 19.0733 410.824 19.2469C410.915 19.4206 410.96 19.6139 410.957 19.8095C410.957 20.3045 410.623 20.7262 410.186 20.9229C409.384 21.2218 408.535 21.3715 407.679 21.3645C405.013 21.3645 402.966 19.7346 402.966 16.9613C402.966 14.4698 404.894 12.4916 407.575 12.4916C409.992 12.4416 412.03 14.3323 411.974 16.3988ZM408.974 15.9398C408.85 15.4272 408.465 14.9156 407.572 14.9156C406.73 14.9156 406.328 15.3922 406.188 15.9398H408.974Z" fill="#353535"/>
<path d="M403.129 20.0262C403.13 20.3003 403.038 20.567 402.869 20.7827C402.7 20.9985 402.463 21.1506 402.197 21.2144C401.805 21.3212 401.401 21.3728 400.995 21.3678C399.126 21.3678 398.115 20.4287 398.115 18.6463V10.7392C398.109 10.5435 398.141 10.3485 398.212 10.1658C398.282 9.98314 398.388 9.81646 398.524 9.67571C398.661 9.53497 398.823 9.42305 399.003 9.34661C399.184 9.27017 399.378 9.23077 399.574 9.23077C399.769 9.23077 399.963 9.27017 400.143 9.34661C400.324 9.42305 400.486 9.53497 400.622 9.67571C400.759 9.81646 400.865 9.98314 400.935 10.1658C401.005 10.3485 401.038 10.5435 401.032 10.7392V12.1324H401.795C402.135 12.1324 402.462 12.2677 402.702 12.5085C402.944 12.7493 403.079 13.076 403.079 13.4165C403.079 13.7571 402.944 14.0837 402.702 14.3245C402.462 14.5653 402.135 14.7006 401.795 14.7006H401.03V17.8222C401.03 18.3397 401.316 18.7388 401.793 18.7613H402.079C402.709 18.7996 403.129 19.3746 403.129 20.0262Z" fill="#353535"/>
</g>
<path d="M480 0H420V30H480V0Z" fill="white"/>
<path d="M540 0H480V30H540V0Z" fill="white"/>
<path d="M432.556 13.4538L427.972 18.0398C427.484 18.5272 426.694 18.5272 426.207 18.0398L421.264 13.0953C420.861 12.6922 420.927 11.973 421.411 11.489L424.728 8.17032C424.837 8.06183 424.98 7.99936 425.119 8L428.102 8.01412C428.21 8.01465 428.307 8.05337 428.377 8.12366L432.556 12.3039C432.874 12.6214 432.874 13.1363 432.556 13.4538Z" fill="#005AAA"/>
<mask id="mask8_3_166" style="mask-type:luminance" maskUnits="userSpaceOnUse" x="422" y="8" width="13" height="13">
<path d="M434.447 14.1957L428.406 20.2392L422.49 14.3214L428.594 8.34034L434.447 14.1957Z" fill="white"/>
</mask>
<g mask="url(#mask8_3_166)">
<path d="M422.46 14.8122C422.436 14.8122 422.412 14.8032 422.394 14.785C422.358 14.7487 422.358 14.6898 422.394 14.6535L424.281 12.7663C424.386 12.6609 424.526 12.6028 424.675 12.6028H426.399C426.498 12.6028 426.591 12.5642 426.662 12.4939L430.244 8.91061C430.28 8.87427 430.339 8.87427 430.375 8.91061C430.411 8.94695 430.411 9.0058 430.375 9.04208L426.793 12.6253C426.688 12.7307 426.548 12.7888 426.399 12.7888H424.675C424.576 12.7888 424.483 12.8274 424.412 12.8977L422.526 14.785C422.508 14.8032 422.484 14.8122 422.46 14.8122Z" fill="url(#paint0_linear_3_166)"/>
<path d="M423.054 15.4068C423.03 15.4068 423.007 15.3977 422.989 15.3795C422.952 15.3432 422.952 15.2843 422.989 15.248L424.875 13.3607C424.981 13.2553 425.121 13.1973 425.27 13.1973H427.147L429.946 10.3975C430.051 10.2921 430.191 10.2341 430.34 10.2341H431.515L434.513 7.23528C434.549 7.19894 434.608 7.19894 434.644 7.23528C434.681 7.27162 434.681 7.33047 434.644 7.36675L431.619 10.3928C431.602 10.4103 431.578 10.4201 431.553 10.4201H430.34C430.241 10.4201 430.148 10.4587 430.077 10.529L427.251 13.3561C427.234 13.3735 427.21 13.3833 427.186 13.3833H425.27C425.17 13.3833 425.077 13.422 425.007 13.4923L423.12 15.3795C423.102 15.3977 423.078 15.4068 423.054 15.4068Z" fill="url(#paint1_linear_3_166)"/>
<path d="M423.581 15.934C423.558 15.934 423.534 15.9249 423.516 15.9068C423.479 15.8704 423.479 15.8116 423.516 15.7753L425.23 14.0605C425.335 13.9551 425.475 13.897 425.624 13.897H427.449L429.992 11.3526C430.098 11.2472 430.238 11.1892 430.387 11.1892H431.983L434.593 8.74922C434.63 8.71416 434.689 8.71609 434.724 8.75365C434.759 8.79116 434.757 8.85001 434.72 8.88506L432.083 11.3501C432.066 11.3662 432.043 11.3752 432.02 11.3752H430.387C430.287 11.3752 430.194 11.4138 430.124 11.4841L427.553 14.0558C427.535 14.0732 427.512 14.083 427.487 14.083H425.624C425.525 14.083 425.432 14.1217 425.361 14.192L423.647 15.9068C423.629 15.925 423.605 15.934 423.581 15.934Z" fill="url(#paint2_linear_3_166)"/>
<path d="M424.095 16.448C424.071 16.448 424.048 16.4389 424.029 16.4208C423.993 16.3845 423.993 16.3256 424.029 16.2893L425.666 14.6524C425.702 14.6161 425.761 14.6161 425.797 14.6524C425.834 14.6888 425.834 14.7476 425.797 14.7839L424.161 16.4208C424.143 16.4389 424.119 16.448 424.095 16.448Z" fill="url(#paint3_linear_3_166)"/>
<path d="M424.671 17.0243C424.648 17.0243 424.624 17.0152 424.606 16.9971C424.569 16.9607 424.569 16.9019 424.606 16.8656L426.815 14.6555C426.851 14.6192 426.91 14.6192 426.946 14.6555C426.983 14.6919 426.983 14.7507 426.946 14.787L424.737 16.9971C424.719 17.0152 424.695 17.0243 424.671 17.0243Z" fill="url(#paint4_linear_3_166)"/>
<path d="M430.001 14.5038C429.978 14.5038 429.954 14.4947 429.936 14.4766C429.899 14.4402 429.899 14.3814 429.936 14.3451L433.751 10.5284C433.787 10.4921 433.846 10.4921 433.883 10.5284C433.919 10.5648 433.919 10.6236 433.883 10.6599L430.067 14.4766C430.049 14.4947 430.025 14.5038 430.001 14.5038Z" fill="url(#paint5_linear_3_166)"/>
<path d="M427.263 17.5334C427.239 17.5334 427.215 17.5243 427.197 17.5062C427.161 17.4699 427.161 17.411 427.197 17.3747L429.372 15.199V14.0139C429.372 13.9893 429.382 13.9656 429.399 13.9482L431.845 11.5014C431.882 11.4651 431.94 11.4651 431.977 11.5014C432.013 11.5378 432.013 11.5966 431.977 11.6329L429.558 14.0524V15.2375C429.558 15.2622 429.548 15.2858 429.531 15.3032L427.328 17.5062C427.31 17.5243 427.287 17.5334 427.263 17.5334Z" fill="url(#paint6_linear_3_166)"/>
<path d="M425.736 18.0889C425.712 18.0889 425.688 18.0798 425.67 18.0617C425.634 18.0254 425.634 17.9665 425.67 17.9302L427.369 16.2305V14.9725C427.369 14.9472 427.38 14.9228 427.398 14.9053L428.726 13.635C428.763 13.5995 428.822 13.6009 428.857 13.638C428.893 13.6751 428.891 13.7339 428.854 13.7694L427.555 15.0123V16.269C427.555 16.2936 427.545 16.3173 427.528 16.3347L425.801 18.0617C425.783 18.0799 425.759 18.0889 425.736 18.0889Z" fill="url(#paint7_linear_3_166)"/>
<path d="M425.449 17.1466C425.426 17.1466 425.402 17.1375 425.384 17.1194C425.347 17.083 425.347 17.0242 425.384 16.9879L426.584 15.7874C426.62 15.751 426.679 15.751 426.715 15.7874C426.752 15.8237 426.752 15.8826 426.715 15.9188L425.515 17.1194C425.497 17.1375 425.473 17.1466 425.449 17.1466Z" fill="url(#paint8_linear_3_166)"/>
</g>
<mask id="mask9_3_166" style="mask-type:luminance" maskUnits="userSpaceOnUse" x="422" y="8" width="11" height="11">
<path d="M432.609 12.3844L426.567 18.4281L422.231 14.0905C421.931 13.7904 422.08 13.1547 422.564 12.6707L425.882 9.35197C425.99 9.24348 426.123 9.17069 426.244 9.15354L428.844 8.78445C428.938 8.77109 429.018 8.79244 429.071 8.84476L432.609 12.3844Z" fill="white"/>
</mask>
<g mask="url(#mask9_3_166)">
<path d="M429.371 11.2078L432.895 14.7325C433.125 14.963 433.125 15.3368 432.895 15.5674L429.714 18.7495C429.483 18.9801 429.11 18.9801 428.879 18.7495L425.355 15.2248C425.125 14.9942 425.125 14.6204 425.355 14.3898L428.537 11.2078C428.767 10.9772 429.141 10.9772 429.371 11.2078Z" fill="#FDD341"/>
<path d="M432.917 14.7104L429.393 11.1857C429.151 10.9434 428.757 10.9434 428.514 11.1857L425.333 14.3678C425.091 14.6101 425.091 15.0045 425.333 15.2468L428.857 18.7715C429.099 19.0139 429.494 19.0139 429.736 18.7715L432.917 15.5895C433.159 15.3471 433.159 14.9528 432.917 14.7104ZM428.559 11.2298C428.777 11.0117 429.131 11.0117 429.349 11.2298L430.322 12.2031L429.421 13.1043L428.053 11.7356L428.559 11.2298ZM426.99 12.7988L428.009 11.7796L429.377 13.1484L428.358 14.1676L426.99 12.7988ZM428.314 14.2116L427.394 15.1322C427.34 15.1867 427.251 15.1867 427.197 15.1322L425.927 13.862L426.946 12.8428L428.314 14.2116ZM425.378 14.4118L425.883 13.9061L427.164 15.1874C427.237 15.26 427.354 15.26 427.427 15.1874L430.366 12.2471L431.71 13.591L427.738 17.564L425.377 15.2028C425.16 14.9847 425.16 14.6299 425.378 14.4118ZM429.79 15.5995L430.809 14.5803L432.323 16.0952L431.304 17.1144L429.79 15.5995ZM431.26 17.1585L430.241 18.1777L428.727 16.6628L429.746 15.6436L431.26 17.1585ZM429.692 18.7275C429.474 18.9455 429.119 18.9455 428.901 18.7275L427.782 17.608L428.683 16.7068L430.197 18.2216L429.692 18.7275ZM432.873 15.5454L432.367 16.0511L430.853 14.5362L431.754 13.635L432.873 14.7544C433.091 14.9725 433.091 15.3273 432.873 15.5454Z" fill="#1F5CAC"/>
</g>
<path d="M437.522 9.3578L437.533 9.36818C437.533 9.36818 437.3 9.2552 436.97 9.60225C436.639 9.94929 428.66 17.7954 428.197 18.0969C427.498 18.5518 426.735 18.4749 426.574 18.4093L426.316 18.1505C426.315 18.1505 426.315 18.1505 426.315 18.1505L429.857 21.6979C429.861 21.7023 429.866 21.7065 429.87 21.7109L426.904 18.7398C426.951 18.7402 427.72 18.7408 428.299 18.369C429.036 17.8952 437.2 9.80447 437.251 9.75092C437.485 9.50426 437.781 9.61648 437.781 9.61648L437.522 9.3578Z" fill="white"/>
<path d="M428.197 18.0969C428.66 17.7954 436.639 9.94929 436.97 9.60225C437.3 9.2552 437.533 9.36818 437.533 9.36818L437.26 9.09533C436.792 8.62696 436.033 8.62696 435.564 9.09533L427.899 16.6844C427.603 16.9577 427.061 17.0549 426.452 17.0391C425.982 17.0269 424.72 16.5521 424.72 16.5521L426.574 18.4093C426.735 18.475 427.498 18.5518 428.197 18.0969Z" fill="#ED1C24"/>
<path d="M441.786 13.6232L437.781 9.61654C437.781 9.61654 437.485 9.50431 437.251 9.75098C437.2 9.80452 429.036 17.8953 428.299 18.369C427.72 18.7409 426.951 18.7402 426.904 18.7399L430.115 21.9567C431.506 23.3478 433.761 23.3478 435.151 21.9567L441.786 15.3195C442.255 14.851 442.255 14.0917 441.786 13.6232Z" fill="#ED1C24"/>
<path d="M448.325 18.7635L447.651 18.5059C447.533 18.4563 446.76 18.1987 446.383 17.7527C446.185 17.5148 446.096 17.3465 445.987 17.0491L444.164 11.8566C444.095 11.6684 444.055 11.5396 443.946 11.3612C443.837 11.2225 443.778 11.1234 443.639 11.0045H446.175C446.185 11.1036 446.086 10.9649 446.354 11.9557C446.383 12.1242 446.433 12.2531 446.492 12.4116L447.919 16.5835L449.355 12.1441C449.435 11.9261 449.444 11.7774 449.375 11.5595C449.296 11.2919 449.137 11.1134 448.87 11.0045H450.95L448.325 18.7635Z" fill="#ED1C24"/>
<path d="M458.132 11.4901C458.013 11.718 457.974 11.8765 457.974 12.1341L457.964 18.8031C457.478 18.704 457.181 18.6149 456.745 18.377C455.992 17.9807 455.646 17.6537 455.408 17.3365L452.802 13.8385V17.3365C452.802 17.6635 452.852 17.8816 453.03 18.159C453.12 18.3077 453.199 18.387 453.327 18.5059H451.069C451.198 18.387 451.267 18.3077 451.356 18.159C451.505 17.9113 451.584 17.6537 451.584 17.3267V12.5603C451.584 12.2035 451.564 11.9756 451.416 11.6586C451.277 11.381 450.999 11.0541 450.93 11.0045H453.298L456.775 15.6619V12.1242C456.775 11.8765 456.715 11.7279 456.616 11.5099C456.507 11.3118 456.438 11.1531 456.28 11.0045H458.469C458.32 11.1531 458.231 11.3018 458.132 11.4901Z" fill="#ED1C24"/>
<path d="M460.889 18.6744C460.284 18.6744 459.621 18.5654 458.947 18.3176L458.67 18.2185L458.333 16.6529L459.145 17.1186C459.591 17.3762 460.245 17.5347 460.8 17.5051C461.404 17.4753 461.889 17.2375 461.879 16.7024C461.879 16.2169 461.513 15.9394 461.077 15.7313L460.285 15.3448C458.967 14.7007 458.402 14.1061 458.442 12.9566C458.482 11.6882 459.7 10.9549 461.156 10.9054C461.572 10.8954 461.998 10.945 462.434 11.0441L463.147 11.2225V12.5503L462.702 12.3026C462.484 12.1837 462.048 12.035 461.632 12.0152C461.186 11.9953 460.77 12.1143 460.601 12.5206C460.364 13.1251 460.978 13.3827 461.76 13.7593L462.513 14.1061C463.276 14.4529 463.96 15.2358 463.98 16.187C464.019 17.7132 462.662 18.6644 460.889 18.6744Z" fill="#005AAA"/>
<path d="M470.315 18.5357C470.124 18.5357 469.035 18.6149 468.299 18.278C468.07 18.1789 467.879 17.9609 467.812 17.8419L466.293 15.1664V17.2771C466.293 17.6141 466.265 17.8419 466.427 18.1293C466.532 18.3077 466.618 18.4068 466.781 18.5158H463.8C463.886 18.4663 463.925 18.4266 464.001 18.3473C464.221 18.1094 464.288 17.8717 464.288 17.5347L464.297 11.8368C464.297 11.8071 464.192 11.4503 464.087 11.3017C463.992 11.163 463.906 11.0936 463.753 11.0044H466.809C466.637 11.0936 466.551 11.1828 466.446 11.3413C466.341 11.48 466.293 11.7972 466.293 11.8368V14.4132L468.032 12.0845C468.156 11.916 468.194 11.7377 468.146 11.5295C468.099 11.262 467.936 11.0836 467.678 11.0044H470.429L467.965 14.0763L470.391 18.04C470.477 18.1687 470.544 18.2283 470.639 18.3274C470.735 18.4066 470.783 18.4561 470.869 18.5355H470.315V18.5357Z" fill="#005AAA"/>
<path fill-rule="evenodd" clip-rule="evenodd" d="M473.429 15.0094L470.901 11.2491L470.644 11.0045H473.136L474.825 13.8472L474.961 13.7324L475.981 12.1582C476.232 11.7714 476.198 11.3223 475.841 11.0045H478.195L475.474 15.0089L475.472 17.9142L475.952 18.5059H473.027L473.439 17.923C473.439 16.9547 473.405 15.9752 473.429 15.0094Z" fill="#005AAA"/>
<path d="M450.365 20.93C450.365 21.2114 450.484 21.3568 450.792 21.3568C450.918 21.3568 451.034 21.335 451.141 21.2938C451.196 21.272 451.213 21.2865 451.213 21.3471V21.3762C451.213 21.4272 451.199 21.4466 451.141 21.4732C451.051 21.5145 450.935 21.5338 450.796 21.5338C450.372 21.5338 450.173 21.3447 450.173 20.9299V20.5419C450.173 20.1223 450.372 19.9113 450.792 19.9113C450.913 19.9113 451.024 19.9331 451.129 19.9744C451.187 19.9962 451.199 20.018 451.199 20.0665V20.0981C451.199 20.1587 451.175 20.1756 451.124 20.1538C451.022 20.1102 450.908 20.0884 450.784 20.0884C450.491 20.0884 450.365 20.2315 450.365 20.5419V20.93H450.365Z" fill="#37A2E0"/>
<path d="M451.614 21.0804C451.614 21.272 451.694 21.3617 451.938 21.3617C452.183 21.3617 452.261 21.2744 452.261 21.0804V20.3916C452.261 20.331 452.278 20.314 452.339 20.314H452.365C452.431 20.314 452.443 20.331 452.443 20.3916V21.0804C452.443 21.3738 452.295 21.5339 451.938 21.5339C451.601 21.5339 451.432 21.3835 451.432 21.0804V20.3916C451.432 20.331 451.449 20.314 451.509 20.314H451.536C451.601 20.314 451.614 20.331 451.614 20.3916V21.0804H451.614Z" fill="#37A2E0"/>
<path d="M452.714 21.0246V20.799C452.714 20.4595 452.891 20.2897 453.248 20.2897C453.624 20.2897 453.776 20.4668 453.776 20.799V21.0246C453.776 21.3641 453.599 21.5339 453.248 21.5339C452.87 21.5339 452.714 21.3569 452.714 21.0246ZM453.595 20.799C453.595 20.5662 453.512 20.4619 453.248 20.4619C452.979 20.4619 452.896 20.5662 452.896 20.799V21.0246C452.896 21.2574 452.984 21.3617 453.248 21.3617C453.512 21.3617 453.595 21.2574 453.595 21.0246V20.799ZM453.076 19.972C453.134 19.8823 453.168 19.8532 453.248 19.8532C453.328 19.8532 453.362 19.8775 453.42 19.972L453.512 20.1151C453.541 20.1587 453.531 20.1709 453.481 20.1709H453.461C453.41 20.1709 453.388 20.1612 453.362 20.1151L453.306 20.0205C453.267 19.9526 453.228 19.9526 453.19 20.0205L453.136 20.1151C453.11 20.1612 453.088 20.1709 453.037 20.1709H453.015C452.964 20.1709 452.957 20.1563 452.983 20.1151L453.076 19.972ZM453.165 21.7498C453.211 21.7037 453.289 21.7037 453.335 21.7498C453.381 21.7959 453.381 21.8734 453.335 21.9196C453.289 21.9656 453.211 21.9656 453.165 21.9196C453.119 21.8735 453.119 21.7959 453.165 21.7498Z" fill="#37A2E0"/>
<path d="M454.038 20.7918C454.038 20.474 454.21 20.2897 454.579 20.2897C454.659 20.2897 454.729 20.2994 454.792 20.3212C454.85 20.3407 454.865 20.3576 454.865 20.4134V20.4377C454.865 20.4983 454.85 20.5153 454.792 20.4959C454.732 20.474 454.661 20.4619 454.584 20.4619C454.312 20.4619 454.22 20.5686 454.22 20.7941V21.0294C454.22 21.2744 454.329 21.3617 454.598 21.3617C454.681 21.3617 454.753 21.352 454.816 21.3302C454.872 21.3107 454.889 21.3302 454.889 21.3908V21.415C454.889 21.466 454.872 21.4854 454.812 21.5024C454.744 21.5242 454.669 21.5338 454.586 21.5338C454.215 21.5338 454.038 21.3738 454.038 21.0318V20.7918Z" fill="#37A2E0"/>
<path d="M455.745 21.3787C455.745 21.3181 455.764 21.3035 455.823 21.3156C455.937 21.3472 456.055 21.3642 456.179 21.3642C456.366 21.3642 456.443 21.3302 456.443 21.2259C456.443 21.1484 456.402 21.1071 456.286 21.0513L455.99 20.9107C455.835 20.8355 455.764 20.7628 455.764 20.5954C455.764 20.3843 455.9 20.2898 456.194 20.2898C456.308 20.2898 456.407 20.3043 456.497 20.3359C456.555 20.3552 456.569 20.3698 456.569 20.4256V20.4474C456.569 20.5081 456.548 20.5226 456.492 20.5056C456.397 20.474 456.295 20.4595 456.189 20.4595C456.012 20.4595 455.944 20.4983 455.944 20.5953C455.944 20.6632 455.987 20.7166 456.072 20.7554L456.38 20.896C456.545 20.9737 456.623 21.0489 456.623 21.221C456.623 21.4369 456.477 21.5339 456.164 21.5339C456.051 21.5339 455.937 21.5194 455.823 21.4878C455.762 21.4709 455.745 21.449 455.745 21.3981V21.3787H455.745Z" fill="#37A2E0"/>
<path d="M456.885 21.0246V20.799C456.885 20.4595 457.062 20.2897 457.418 20.2897C457.794 20.2897 457.947 20.4668 457.947 20.799V21.0246C457.947 21.3641 457.77 21.5339 457.418 21.5339C457.04 21.5339 456.885 21.3569 456.885 21.0246ZM457.765 20.799C457.765 20.5662 457.682 20.4619 457.418 20.4619C457.149 20.4619 457.067 20.5662 457.067 20.799V21.0246C457.067 21.2574 457.154 21.3617 457.418 21.3617C457.682 21.3617 457.765 21.2574 457.765 21.0246V20.799ZM457.246 19.972C457.304 19.8823 457.338 19.8532 457.418 19.8532C457.498 19.8532 457.532 19.8775 457.59 19.972L457.682 20.1151C457.711 20.1587 457.702 20.1709 457.651 20.1709H457.631C457.581 20.1709 457.559 20.1612 457.532 20.1151L457.476 20.0205C457.437 19.9526 457.399 19.9526 457.36 20.0205L457.307 20.1151C457.28 20.1612 457.258 20.1709 457.207 20.1709H457.185C457.134 20.1709 457.127 20.1563 457.154 20.1151L457.246 19.972ZM457.864 19.8265C457.84 19.8653 457.806 19.8847 457.76 19.8847H457.736C457.68 19.8847 457.673 19.8726 457.699 19.8241L457.801 19.6277C457.833 19.5695 457.857 19.5549 457.922 19.5549H457.947C458.012 19.5549 458.022 19.5695 457.985 19.6253L457.864 19.8265Z" fill="#37A2E0"/>
<path d="M458.415 21.4321C458.415 21.4975 458.402 21.5096 458.337 21.5096H458.31C458.25 21.5096 458.233 21.4975 458.233 21.4321V20.7433C458.233 20.4401 458.403 20.2897 458.74 20.2897C459.096 20.2897 459.244 20.4498 459.244 20.7433V21.4321C459.244 21.4975 459.232 21.5096 459.166 21.5096H459.137C459.072 21.5096 459.06 21.4975 459.06 21.4321V20.7433C459.06 20.5492 458.984 20.462 458.74 20.462C458.495 20.462 458.415 20.5517 458.415 20.7433V21.4321H458.415Z" fill="#37A2E0"/>
<path d="M460.531 20.7384C460.531 21.0198 460.364 21.1604 460.029 21.1604C459.899 21.1604 459.814 21.1677 459.772 21.1798C459.734 21.1919 459.714 21.2162 459.714 21.2525C459.714 21.2865 459.734 21.3083 459.775 21.3204C459.816 21.3301 459.901 21.335 460.029 21.335C460.231 21.335 460.369 21.3592 460.444 21.4101C460.521 21.4587 460.56 21.5435 460.56 21.6672C460.56 21.8055 460.522 21.9001 460.442 21.9558C460.364 22.0116 460.226 22.0383 460.029 22.0383C459.828 22.0383 459.688 22.0117 459.61 21.9558C459.535 21.9025 459.496 21.8176 459.496 21.7012C459.496 21.5848 459.542 21.4975 459.632 21.4417C459.566 21.4102 459.532 21.3568 459.532 21.2816C459.532 21.175 459.598 21.1119 459.729 21.0925C459.593 21.0367 459.525 20.9179 459.525 20.7384V20.7093C459.525 20.4449 459.712 20.2897 460.029 20.2897C460.124 20.2897 460.206 20.3067 460.279 20.3382L460.417 20.2146C460.459 20.1782 460.478 20.1782 460.517 20.2146L460.534 20.2315C460.572 20.2679 460.572 20.2873 460.534 20.3261L460.425 20.4377C460.495 20.5032 460.531 20.5929 460.531 20.7093V20.7384H460.531ZM459.792 21.483C459.717 21.5194 459.678 21.5873 459.678 21.6819C459.678 21.8395 459.768 21.8808 460.029 21.8808C460.282 21.8808 460.379 21.8395 460.379 21.6746C460.379 21.5218 460.289 21.4952 460.029 21.4952C459.925 21.4951 459.845 21.4902 459.792 21.483ZM460.347 20.7093C460.347 20.5372 460.24 20.4522 460.029 20.4522C459.814 20.4522 459.707 20.5371 459.707 20.7093V20.7384C459.707 20.9131 459.785 21.0004 460.029 21.0004C460.274 21.0004 460.347 20.9131 460.347 20.7384V20.7093Z" fill="#37A2E0"/>
<path d="M461.448 21.3787C461.448 21.3181 461.467 21.3035 461.525 21.3156C461.639 21.3472 461.758 21.3642 461.882 21.3642C462.068 21.3642 462.146 21.3302 462.146 21.2259C462.146 21.1484 462.105 21.1071 461.988 21.0513L461.693 20.9107C461.537 20.8355 461.467 20.7628 461.467 20.5954C461.467 20.3843 461.603 20.2898 461.896 20.2898C462.01 20.2898 462.11 20.3043 462.199 20.3359C462.258 20.3552 462.272 20.3698 462.272 20.4256V20.4474C462.272 20.5081 462.25 20.5226 462.195 20.5056C462.1 20.474 461.998 20.4595 461.891 20.4595C461.714 20.4595 461.647 20.4983 461.647 20.5953C461.647 20.6632 461.69 20.7166 461.775 20.7554L462.083 20.896C462.248 20.9737 462.325 21.0489 462.325 21.221C462.325 21.4369 462.18 21.5339 461.867 21.5339C461.753 21.5339 461.639 21.5194 461.525 21.4878C461.465 21.4709 461.448 21.449 461.448 21.3981V21.3787Z" fill="#37A2E0"/>
<path d="M462.587 21.0246V20.799C462.587 20.4595 462.764 20.2897 463.121 20.2897C463.497 20.2897 463.649 20.4668 463.649 20.799V21.0246C463.649 21.3641 463.472 21.5339 463.121 21.5339C462.743 21.5339 462.587 21.3569 462.587 21.0246ZM463.468 20.799C463.468 20.5662 463.385 20.4619 463.121 20.4619C462.852 20.4619 462.769 20.5662 462.769 20.799V21.0246C462.769 21.2574 462.857 21.3617 463.121 21.3617C463.385 21.3617 463.468 21.2574 463.468 21.0246V20.799ZM462.949 19.972C463.007 19.8823 463.041 19.8532 463.121 19.8532C463.201 19.8532 463.235 19.8775 463.293 19.972L463.385 20.1151C463.414 20.1587 463.404 20.1709 463.354 20.1709H463.334C463.283 20.1709 463.261 20.1612 463.235 20.1151L463.179 20.0205C463.14 19.9526 463.101 19.9526 463.063 20.0205L463.009 20.1151C462.983 20.1612 462.961 20.1709 462.91 20.1709H462.888C462.837 20.1709 462.83 20.1563 462.857 20.1151L462.949 19.972ZM463.567 19.8265C463.543 19.8653 463.509 19.8847 463.463 19.8847H463.438C463.383 19.8847 463.375 19.8726 463.402 19.8241L463.504 19.6277C463.535 19.5695 463.56 19.5549 463.625 19.5549H463.649C463.715 19.5549 463.724 19.5695 463.688 19.6253L463.567 19.8265Z" fill="#37A2E0"/>
<path d="M465.647 21.027C465.647 21.3642 465.47 21.5339 465.116 21.5339C464.75 21.5339 464.585 21.3641 464.585 21.027V20.8015C464.585 20.4595 464.753 20.2897 465.087 20.2897C465.274 20.2897 465.4 20.3479 465.465 20.4668V19.8896C465.465 19.8241 465.478 19.812 465.543 19.812H465.57C465.63 19.812 465.647 19.8241 465.647 19.8896V21.027ZM464.767 21.0246C464.767 21.2574 464.847 21.3617 465.116 21.3617C465.381 21.3617 465.465 21.2574 465.465 21.0246V20.799C465.465 20.5662 465.381 20.4619 465.116 20.4619C464.852 20.4619 464.767 20.5662 464.767 20.799V21.0246Z" fill="#37A2E0"/>
<path d="M466.92 20.9057C466.913 20.9663 466.898 20.9809 466.833 20.9809H466.101V21.0536C466.101 21.2744 466.21 21.3617 466.479 21.3617C466.586 21.3617 466.695 21.3471 466.809 21.3156C466.867 21.2986 466.886 21.318 466.886 21.3786V21.4005C466.886 21.4514 466.876 21.4683 466.811 21.4878C466.707 21.5193 466.595 21.5338 466.479 21.5338C466.098 21.5338 465.919 21.3859 465.919 21.027V20.8014C465.919 20.4595 466.089 20.2897 466.43 20.2897C466.75 20.2897 466.927 20.4546 466.927 20.7747C466.927 20.8305 466.925 20.8742 466.92 20.9057ZM466.101 20.8282H466.755V20.7481C466.755 20.5517 466.646 20.4522 466.428 20.4522C466.21 20.4522 466.101 20.5517 466.101 20.7481V20.8282H466.101ZM466.236 19.972C466.295 19.8823 466.329 19.8532 466.409 19.8532C466.489 19.8532 466.522 19.8775 466.581 19.972L466.673 20.1151C466.702 20.1587 466.692 20.1709 466.641 20.1709H466.622C466.571 20.1709 466.549 20.1612 466.522 20.1151L466.467 20.0205C466.428 19.9526 466.389 19.9526 466.35 20.0205L466.297 20.1151C466.27 20.1612 466.248 20.1709 466.198 20.1709H466.176C466.125 20.1709 466.118 20.1563 466.144 20.1151L466.236 19.972ZM466.205 19.7901C466.164 19.7901 466.152 19.7804 466.154 19.744C466.166 19.5985 466.236 19.5258 466.365 19.5258C466.421 19.5258 466.484 19.5524 466.552 19.6034C466.622 19.6543 466.671 19.681 466.697 19.681C466.743 19.681 466.772 19.6495 466.78 19.5888C466.782 19.5524 466.794 19.5427 466.835 19.5427H466.85C466.891 19.5427 466.903 19.5524 466.901 19.5888C466.891 19.7343 466.821 19.8071 466.69 19.8071C466.634 19.8071 466.574 19.7804 466.503 19.7295C466.435 19.6786 466.387 19.6519 466.36 19.6519C466.312 19.6519 466.285 19.6834 466.278 19.744C466.275 19.7804 466.263 19.7901 466.222 19.7901H466.205Z" fill="#37A2E0"/>
<path d="M468.925 21.027C468.925 21.3642 468.748 21.5339 468.394 21.5339C468.028 21.5339 467.863 21.3641 467.863 21.027V20.8015C467.863 20.4595 468.031 20.2897 468.365 20.2897C468.552 20.2897 468.678 20.3479 468.744 20.4668V19.8896C468.744 19.8241 468.756 19.812 468.821 19.812H468.848C468.908 19.812 468.925 19.8241 468.925 19.8896V21.027ZM468.045 21.0246C468.045 21.2574 468.125 21.3617 468.394 21.3617C468.659 21.3617 468.744 21.2574 468.744 21.0246V20.799C468.744 20.5662 468.659 20.4619 468.394 20.4619C468.13 20.4619 468.045 20.5662 468.045 20.799V21.0246Z" fill="#37A2E0"/>
<path d="M470.13 21.1507C470.13 21.4199 469.973 21.5339 469.624 21.5339C469.345 21.5339 469.168 21.4224 469.168 21.1701C469.168 20.9179 469.333 20.816 469.662 20.816H469.949V20.6705C469.949 20.5055 469.837 20.4498 469.631 20.4498C469.524 20.4498 469.435 20.4595 469.364 20.4764C469.306 20.4886 469.287 20.474 469.287 20.4158V20.3964C469.287 20.3407 469.301 20.3261 469.359 20.3139C469.439 20.297 469.527 20.2897 469.621 20.2897C469.961 20.2897 470.13 20.4158 470.13 20.6704V21.1507ZM469.949 20.9591H469.665C469.449 20.9591 469.35 21.0173 469.35 21.1701C469.35 21.3084 469.439 21.3763 469.621 21.3763C469.844 21.3763 469.949 21.3254 469.949 21.1435V20.9591ZM469.49 19.9187C469.454 19.8629 469.464 19.8483 469.529 19.8483H469.553C469.619 19.8483 469.643 19.8628 469.675 19.921L469.776 20.1175C469.803 20.166 469.796 20.1782 469.74 20.1782H469.716C469.67 20.1782 469.636 20.1587 469.611 20.1199L469.49 19.9187Z" fill="#37A2E0"/>
<path d="M470.598 21.4321C470.598 21.4975 470.586 21.5096 470.521 21.5096H470.494C470.433 21.5096 470.416 21.4975 470.416 21.4321V20.7433C470.416 20.4401 470.586 20.2897 470.923 20.2897C471.28 20.2897 471.428 20.4498 471.428 20.7433V21.4321C471.428 21.4975 471.415 21.5096 471.35 21.5096H471.321C471.255 21.5096 471.243 21.4975 471.243 21.4321V20.7433C471.243 20.5492 471.168 20.462 470.923 20.462C470.678 20.462 470.598 20.5517 470.598 20.7433V21.4321H470.598Z" fill="#37A2E0"/>
<path d="M472.715 20.7384C472.715 21.0198 472.548 21.1604 472.213 21.1604C472.082 21.1604 471.997 21.1677 471.956 21.1798C471.917 21.1919 471.898 21.2162 471.898 21.2525C471.898 21.2865 471.917 21.3083 471.959 21.3204C472 21.3301 472.085 21.335 472.213 21.335C472.414 21.335 472.553 21.3592 472.628 21.4101C472.705 21.4587 472.744 21.5435 472.744 21.6672C472.744 21.8055 472.705 21.9001 472.625 21.9558C472.548 22.0116 472.409 22.0383 472.213 22.0383C472.012 22.0383 471.871 22.0117 471.794 21.9558C471.719 21.9025 471.68 21.8176 471.68 21.7012C471.68 21.5848 471.726 21.4975 471.815 21.4417C471.75 21.4102 471.716 21.3568 471.716 21.2816C471.716 21.175 471.782 21.1119 471.912 21.0925C471.777 21.0367 471.709 20.9179 471.709 20.7384V20.7093C471.709 20.4449 471.895 20.2897 472.213 20.2897C472.308 20.2897 472.39 20.3067 472.463 20.3382L472.601 20.2146C472.642 20.1782 472.662 20.1782 472.7 20.2146L472.717 20.2315C472.756 20.2679 472.756 20.2873 472.717 20.3261L472.608 20.4377C472.679 20.5032 472.715 20.5929 472.715 20.7093V20.7384H472.715ZM471.975 21.483C471.9 21.5194 471.862 21.5873 471.862 21.6819C471.862 21.8395 471.951 21.8808 472.213 21.8808C472.465 21.8808 472.562 21.8395 472.562 21.6746C472.562 21.5218 472.473 21.4952 472.213 21.4952C472.109 21.4951 472.029 21.4902 471.975 21.483ZM472.531 20.7093C472.531 20.5372 472.424 20.4522 472.213 20.4522C471.997 20.4522 471.891 20.5371 471.891 20.7093V20.7384C471.891 20.9131 471.968 21.0004 472.213 21.0004C472.458 21.0004 472.531 20.9131 472.531 20.7384V20.7093Z" fill="#37A2E0"/>
<path d="M520.118 8.33729C519.319 7.23731 517.919 6.24448 516.176 5.54176C514.443 4.84287 512.431 4.45635 510.51 4.45363C508.589 4.44882 506.574 4.83135 504.838 5.52479C503.093 6.22226 501.689 7.21079 500.887 8.30816C500.117 9.36212 499.894 10.4981 500.245 11.5934C500.472 12.3039 501.135 12.7821 501.895 12.7831L504.497 12.7856H504.5C505.019 12.7855 505.506 12.5584 505.838 12.1621C506.165 11.7701 506.301 11.2577 506.21 10.7563C506.208 10.7416 506.204 10.727 506.201 10.7125L506.064 10.1801C506.822 9.81838 508.54 9.1194 510.502 9.13051C512.463 9.14055 514.179 9.83913 514.939 10.2011L514.799 10.7304C514.795 10.7454 514.792 10.7604 514.789 10.7756C514.697 11.2767 514.831 11.7894 515.158 12.1824C515.489 12.5804 515.976 12.809 516.497 12.8098L519.099 12.8122H519.101C519.86 12.8122 520.523 12.3363 520.752 11.6273C521.106 10.5322 520.887 9.39463 520.118 8.33729Z" fill="url(#paint9_linear_3_166)"/>
<path d="M516.384 15.4687L514.443 13.4311C514.326 13.3079 514.163 13.2382 513.993 13.2382H512.739V12.3909C512.739 12.0476 512.461 11.7693 512.117 11.7693C511.774 11.7693 511.496 12.0476 511.496 12.3909V13.2382H509.505V12.3909C509.505 12.0476 509.227 11.7693 508.883 11.7693C508.54 11.7693 508.262 12.0476 508.262 12.3909V13.2382H507.008C506.837 13.2382 506.675 13.308 506.557 13.4311L504.617 15.4687C503.095 17.0662 502.258 19.161 502.258 21.3672V23.9247C502.258 24.268 502.536 24.5464 502.879 24.5464H518.121C518.465 24.5464 518.743 24.268 518.743 23.9247V21.3672C518.743 19.161 517.905 17.0664 516.384 15.4687ZM510.5 22.274C508.706 22.274 507.247 20.8145 507.247 19.0204C507.247 17.2265 508.706 15.7669 510.5 15.7669C512.294 15.7669 513.754 17.2265 513.754 19.0204C513.754 20.8145 512.294 22.274 510.5 22.274Z" fill="url(#paint10_linear_3_166)"/>
<path d="M510.5 17.5123C509.17 17.5123 508.088 18.5944 508.088 19.9245C508.088 21.2547 509.17 22.3368 510.5 22.3368C511.83 22.3368 512.912 21.2547 512.912 19.9245C512.912 18.5944 511.83 17.5123 510.5 17.5123Z" fill="url(#paint11_linear_3_166)"/>
<defs>
<linearGradient id="paint0_linear_3_166" x1="422.921" y1="15.3125" x2="429.85" y2="8.3858" gradientUnits="userSpaceOnUse">
<stop stop-color="#2582C5" stop-opacity="0"/>
<stop offset="0.063" stop-color="#2090CD" stop-opacity="0.063"/>
<stop offset="0.2347" stop-color="#15B1DF" stop-opacity="0.2347"/>
<stop offset="0.4118" stop-color="#0BCAED" stop-opacity="0.4118"/>
<stop offset="0.5942" stop-color="#05DDF7" stop-opacity="0.5942"/>
<stop offset="0.7856" stop-color="#01E7FD" stop-opacity="0.7856"/>
<stop offset="1" stop-color="#00EBFF"/>
</linearGradient>
<linearGradient id="paint1_linear_3_166" x1="423.867" y1="16.2585" x2="433.768" y2="6.35988" gradientUnits="userSpaceOnUse">
<stop stop-color="#2582C5" stop-opacity="0"/>
<stop offset="0.063" stop-color="#2090CD" stop-opacity="0.063"/>
<stop offset="0.2347" stop-color="#15B1DF" stop-opacity="0.2347"/>
<stop offset="0.4118" stop-color="#0BCAED" stop-opacity="0.4118"/>
<stop offset="0.5942" stop-color="#05DDF7" stop-opacity="0.5942"/>
<stop offset="0.7856" stop-color="#01E7FD" stop-opacity="0.7856"/>
<stop offset="1" stop-color="#00EBFF"/>
</linearGradient>
<linearGradient id="paint2_linear_3_166" x1="424.528" y1="16.9206" x2="433.711" y2="7.741" gradientUnits="userSpaceOnUse">
<stop stop-color="#2582C5" stop-opacity="0"/>
<stop offset="0.063" stop-color="#2090CD" stop-opacity="0.063"/>
<stop offset="0.2347" stop-color="#15B1DF" stop-opacity="0.2347"/>
<stop offset="0.4118" stop-color="#0BCAED" stop-opacity="0.4118"/>
<stop offset="0.5942" stop-color="#05DDF7" stop-opacity="0.5942"/>
<stop offset="0.7856" stop-color="#01E7FD" stop-opacity="0.7856"/>
<stop offset="1" stop-color="#00EBFF"/>
</linearGradient>
<linearGradient id="paint3_linear_3_166" x1="424.029" y1="16.421" x2="425.797" y2="14.6532" gradientUnits="userSpaceOnUse">
<stop stop-color="#2582C5" stop-opacity="0"/>
<stop offset="0.063" stop-color="#2090CD" stop-opacity="0.063"/>
<stop offset="0.2347" stop-color="#15B1DF" stop-opacity="0.2347"/>
<stop offset="0.4118" stop-color="#0BCAED" stop-opacity="0.4118"/>
<stop offset="0.5942" stop-color="#05DDF7" stop-opacity="0.5942"/>
<stop offset="0.7856" stop-color="#01E7FD" stop-opacity="0.7856"/>
<stop offset="1" stop-color="#00EBFF"/>
</linearGradient>
<linearGradient id="paint4_linear_3_166" x1="424.605" y1="16.9973" x2="426.947" y2="14.6565" gradientUnits="userSpaceOnUse">
<stop stop-color="#2582C5" stop-opacity="0"/>
<stop offset="0.063" stop-color="#2090CD" stop-opacity="0.063"/>
<stop offset="0.2347" stop-color="#15B1DF" stop-opacity="0.2347"/>
<stop offset="0.4118" stop-color="#0BCAED" stop-opacity="0.4118"/>
<stop offset="0.5942" stop-color="#05DDF7" stop-opacity="0.5942"/>
<stop offset="0.7856" stop-color="#01E7FD" stop-opacity="0.7856"/>
<stop offset="1" stop-color="#00EBFF"/>
</linearGradient>
<linearGradient id="paint5_linear_3_166" x1="429.935" y1="14.4768" x2="433.883" y2="10.5299" gradientUnits="userSpaceOnUse">
<stop stop-color="#2582C5" stop-opacity="0"/>
<stop offset="0.063" stop-color="#2090CD" stop-opacity="0.063"/>
<stop offset="0.2347" stop-color="#15B1DF" stop-opacity="0.2347"/>
<stop offset="0.4118" stop-color="#0BCAED" stop-opacity="0.4118"/>
<stop offset="0.5942" stop-color="#05DDF7" stop-opacity="0.5942"/>
<stop offset="0.7856" stop-color="#01E7FD" stop-opacity="0.7856"/>
<stop offset="1" stop-color="#00EBFF"/>
</linearGradient>
<linearGradient id="paint6_linear_3_166" x1="426.891" y1="17.2005" x2="432.284" y2="11.8093" gradientUnits="userSpaceOnUse">
<stop stop-color="#2582C5" stop-opacity="0"/>
<stop offset="0.063" stop-color="#2090CD" stop-opacity="0.063"/>
<stop offset="0.2347" stop-color="#15B1DF" stop-opacity="0.2347"/>
<stop offset="0.4118" stop-color="#0BCAED" stop-opacity="0.4118"/>
<stop offset="0.5942" stop-color="#05DDF7" stop-opacity="0.5942"/>
<stop offset="0.7856" stop-color="#01E7FD" stop-opacity="0.7856"/>
<stop offset="1" stop-color="#00EBFF"/>
</linearGradient>
<linearGradient id="paint7_linear_3_166" x1="425.345" y1="17.7378" x2="429.151" y2="13.9331" gradientUnits="userSpaceOnUse">
<stop stop-color="#2582C5" stop-opacity="0"/>
<stop offset="0.063" stop-color="#2090CD" stop-opacity="0.063"/>
<stop offset="0.2347" stop-color="#15B1DF" stop-opacity="0.2347"/>
<stop offset="0.4118" stop-color="#0BCAED" stop-opacity="0.4118"/>
<stop offset="0.5942" stop-color="#05DDF7" stop-opacity="0.5942"/>
<stop offset="0.7856" stop-color="#01E7FD" stop-opacity="0.7856"/>
<stop offset="1" stop-color="#00EBFF"/>
</linearGradient>
<linearGradient id="paint8_linear_3_166" x1="425.383" y1="17.1196" x2="426.715" y2="15.788" gradientUnits="userSpaceOnUse">
<stop stop-color="#2582C5" stop-opacity="0"/>
<stop offset="0.063" stop-color="#2090CD" stop-opacity="0.063"/>
<stop offset="0.2347" stop-color="#15B1DF" stop-opacity="0.2347"/>
<stop offset="0.4118" stop-color="#0BCAED" stop-opacity="0.4118"/>
<stop offset="0.5942" stop-color="#05DDF7" stop-opacity="0.5942"/>
<stop offset="0.7856" stop-color="#01E7FD" stop-opacity="0.7856"/>
<stop offset="1" stop-color="#00EBFF"/>
</linearGradient>
<linearGradient id="paint9_linear_3_166" x1="503.778" y1="4.94013" x2="509.362" y2="16.2427" gradientUnits="userSpaceOnUse">
<stop stop-color="#F97045"/>
<stop offset="1" stop-color="#EF2827"/>
</linearGradient>
<linearGradient id="paint10_linear_3_166" x1="505.181" y1="12.513" x2="515.916" y2="23.7619" gradientUnits="userSpaceOnUse">
<stop stop-color="#F97045"/>
<stop offset="1" stop-color="#EF2827"/>
</linearGradient>
<linearGradient id="paint11_linear_3_166" x1="508.944" y1="17.7931" x2="512.915" y2="21.0185" gradientUnits="userSpaceOnUse">
<stop stop-color="#F97045"/>
<stop offset="1" stop-color="#EF2827"/>
</linearGradient>
<clipPath id="clip0_3_166">
<rect width="420" height="30" fill="white"/>
</clipPath>
</defs>
</svg>
