<svg width="400" height="29" viewBox="0 0 400 29" fill="none" xmlns="http://www.w3.org/2000/svg">
<g clip-path="url(#clip0_31_151)">
<path d="M50 0H0V28.4091H50V0Z" fill="white"/>
<path d="M46.0227 9.09094H3.97723V18.75H46.0227V9.09094Z" fill="white"/>
<mask id="mask0_31_151" style="mask-type:luminance" maskUnits="userSpaceOnUse" x="3" y="9" width="44" height="10">
<path d="M3.97723 9.09091V18.75H46.0227V9.09091H3.97723Z" fill="white"/>
</mask>
<g mask="url(#mask0_31_151)">
<path d="M9.44363 9.93091V11.1934H10.7076V9.93091H9.44363ZM26.4874 9.93091V16.6534H27.7506V13.8068C27.7506 13.8068 27.7593 12.7379 28.7243 12.7642C28.7243 12.7642 29.2123 12.7222 29.394 13.1091C29.4573 13.2439 29.4658 13.4355 29.4699 13.6841V16.6534H30.7769V13.1585C30.7769 13.1585 30.7769 11.7828 29.1717 11.7478C29.1717 11.7478 28.1541 11.704 27.7506 12.4049V9.93091H26.4874ZM33.7706 11.7117C33.5046 11.7117 32.4042 11.7653 31.8208 12.6239C31.8208 12.6239 31.1278 13.4739 31.4261 14.9283C31.4261 14.9283 31.6892 16.593 33.7769 16.6631C35.8647 16.7332 36.1717 14.9108 36.1717 14.9108C36.1717 14.9108 36.5104 13.311 35.6279 12.44C35.3855 12.2008 35.1256 12.0315 34.8623 11.9238C34.3252 11.704 33.8296 11.7127 33.8296 11.7127C33.8296 11.7127 33.8086 11.7117 33.7706 11.7117ZM43.9196 11.7384C43.8765 11.7377 43.8319 11.7378 43.7858 11.7388C43.3058 11.7501 42.7383 11.8703 42.3033 12.3086C42.3033 12.3086 41.6542 12.843 41.663 14.1222C41.6718 15.4014 42.1718 15.9096 42.1718 15.9096C42.1718 15.9096 42.6893 16.6534 43.9087 16.6534C43.9087 16.6534 45.5578 16.7157 45.9613 15.1299H44.6893C44.6893 15.1299 44.5227 15.6555 43.9437 15.638C43.4427 15.6229 42.9945 15.3578 42.8942 14.5428H46.0139C46.0139 14.5428 46.1981 12.6064 44.8823 11.9493C44.8823 11.9493 44.5662 11.7492 43.9196 11.7384ZM39.3995 11.7462C39.1585 11.7499 38.481 11.8157 38.1103 12.4137V11.7478H36.8296V16.6534H38.1103V13.6754C38.1103 13.6754 38.1016 12.7817 39.0402 12.7466C39.0402 12.7466 39.8471 12.7028 39.8471 13.5351V16.6534H41.1103V13.0708C41.1103 13.0708 41.14 12.5346 40.5922 12.099C40.3539 11.9095 40.0202 11.7478 39.4875 11.7478C39.4875 11.7478 39.4551 11.7454 39.3995 11.7462ZM3.97723 11.7545L5.8245 16.6534H7.06689L8.92507 11.7545H7.62869L6.44028 15.0132L5.23038 11.7545H3.97723ZM9.44363 11.7545V16.6534H10.7076V11.7545H9.44363ZM11.2693 11.7545V16.6534H12.5549V13.78C12.5549 13.172 12.9342 12.7616 13.5145 12.7561C14.3426 12.7482 14.2837 13.4969 14.2837 13.4969V16.6534H15.5592V13.0423C15.41 11.7251 13.9305 11.7545 13.9305 11.7545C13.4945 11.759 13.1635 11.8617 12.9466 11.9937C12.756 12.1096 12.6339 12.253 12.5549 12.3888V11.7545H11.2693ZM18.5212 11.7595C18.4668 11.7582 18.4357 11.7597 18.4357 11.7597C16.1837 11.7735 16.3292 13.4346 16.3292 13.4346H17.5627C17.5973 12.7978 18.2833 12.7494 18.2833 12.7494C18.2833 12.7494 18.7545 12.7078 19.004 13.0608C19.3226 13.5776 18.5849 13.6783 18.3318 13.7046C17.4448 13.7876 16.9944 13.9744 16.9944 13.9744C16.1282 14.2928 16.1698 15.2687 16.1698 15.2687C16.1806 15.8735 16.4376 16.2198 16.7512 16.4118C17.1458 16.6534 17.8675 16.6534 17.8675 16.6534C18.5072 16.6534 18.9131 16.4059 19.149 16.1845C19.1984 16.462 19.2534 16.6534 19.2534 16.6534H20.4245V13.5938C20.4245 11.9102 18.9018 11.7686 18.5212 11.7595ZM23.7272 11.7713C23.1178 11.7734 22.6528 12.0306 22.24 12.4779V11.7805H21.0204V17.885H22.2746V15.9401C22.2746 15.9401 22.8082 16.6737 23.8545 16.6391C23.8545 16.6391 25.0741 16.6114 25.5037 15.7809C25.9333 14.9503 25.8986 14.5143 25.8986 14.5143C25.8986 14.5143 26.0026 13.7738 25.7116 13.0747C25.7116 13.0747 25.4622 12.2511 24.3881 11.8566C24.1495 11.7982 23.9303 11.7706 23.7272 11.7713ZM43.8891 12.7711C44.1809 12.7795 44.663 12.918 44.7595 13.7192H42.9162C43.0805 12.9298 43.663 12.7904 43.663 12.7904C43.663 12.7904 43.7564 12.7673 43.8891 12.7711ZM33.7557 12.7877C33.786 12.7884 33.8033 12.7904 33.8033 12.7904C34.3033 12.8255 34.8998 12.9219 34.9174 14.2975C34.9349 15.6731 33.8384 15.5942 33.8384 15.5942C33.6366 15.5942 32.6278 15.6205 32.6629 14.1397C32.6936 12.8441 33.5436 12.7828 33.7557 12.7877ZM23.3985 12.8663C23.6208 12.8699 24.5097 12.9633 24.5059 14.2236C24.5017 15.566 23.5219 15.6079 23.5219 15.6079C23.5219 15.6079 22.3162 15.7948 22.2954 14.2998C22.2746 12.8048 23.3487 12.867 23.3487 12.867C23.3487 12.867 23.3668 12.8657 23.3985 12.8663ZM19.0905 14.2593C19.0972 14.9323 19.154 15.4504 18.3318 15.7325C18.3318 15.7325 17.4518 15.9816 17.4449 15.3241C17.438 14.6666 17.8745 14.6735 18.5813 14.5005C18.824 14.441 18.9837 14.3514 19.0905 14.2593Z" fill="#00A1E4"/>
</g>
<path d="M100 0H50V28.4091H100V0Z" fill="white"/>
<path d="M94.8863 9.65906H55.1136V18.75H94.8863V9.65906Z" fill="white"/>
<mask id="mask1_31_151" style="mask-type:luminance" maskUnits="userSpaceOnUse" x="55" y="9" width="40" height="10">
<path d="M55.1136 9.65909V18.75H94.8863V9.65909H55.1136Z" fill="white"/>
</mask>
<g mask="url(#mask1_31_151)">
<mask id="mask2_31_151" style="mask-type:luminance" maskUnits="userSpaceOnUse" x="55" y="11" width="40" height="7">
<path d="M94.8863 11.0875H55.1136V17.3215H94.8863V11.0875Z" fill="white"/>
</mask>
<g mask="url(#mask2_31_151)">
<path d="M89.2358 14.0744C89.1869 13.8654 89.0989 13.6904 88.9656 13.5385C88.7846 13.3356 88.5535 13.2019 88.2588 13.1278C87.9861 13.0561 87.5863 13.0221 87.0348 13.0221C86.4344 13.0221 86.0468 13.0913 85.7729 13.1958C85.6506 13.2396 85.5173 13.3344 85.4195 13.4267V13.2262H84.6418V17.2692H85.4232V14.7015C85.4232 14.0307 86.1128 13.7658 86.8 13.7658H87.1449C87.8321 13.7658 88.5291 14.0307 88.5291 14.7015V17.2692H89.2994V15.0636C89.2994 14.5629 89.2799 14.2579 89.2371 14.0756L89.2358 14.0744Z" fill="#ED1C24"/>
<path d="M76.0944 13.0087H76.8721C76.8807 12.5943 76.8954 12.2006 76.9406 12.0207C76.9773 11.8421 77.058 11.689 77.1754 11.5723C77.3111 11.4107 77.5006 11.294 77.744 11.2138C77.9788 11.1507 78.3786 11.0972 78.902 11.0887H79.632L78.9301 11.768C78.9044 11.768 78.6574 11.768 78.6329 11.768C77.5997 11.768 77.6718 12.4254 77.6718 13.0075H79.4889L78.754 13.7512H77.6535L77.6572 17.2607H76.8721V13.7512H76.0944V13.0075V13.0087Z" fill="#ED1C24"/>
<path d="M75.3179 11.6793V12.4716H76.0956V11.6793H75.3179Z" fill="#ED1C24"/>
<path d="M69.314 15.1474C69.314 15.6274 69.2577 16.0236 69.1452 16.3189C69.0315 16.6263 68.6451 17.3214 66.7669 17.3214C64.8887 17.3214 64.5023 16.6263 64.3886 16.3189C64.2761 16.0236 64.2198 15.6274 64.2198 15.1474C64.2198 14.6674 64.2761 14.2713 64.3886 13.976C64.5023 13.6685 64.8887 12.9734 66.7669 12.9734C68.6451 12.9734 69.0315 13.6673 69.1452 13.976C69.2577 14.2713 69.314 14.6662 69.314 15.1474ZM68.3309 14.2178C68.2587 14.0428 68.1328 13.9298 67.9396 13.863C67.739 13.7986 67.3856 13.7621 66.7669 13.7524C66.1494 13.7609 65.796 13.7986 65.5942 13.863C65.401 13.9298 65.2751 14.0428 65.2029 14.2178C65.1455 14.3515 65.0807 14.6772 65.0807 15.1474C65.0807 15.6177 65.1455 15.9422 65.2029 16.0771C65.2751 16.252 65.401 16.3651 65.5942 16.4319C65.7948 16.4963 66.1482 16.5328 66.7669 16.5425C67.3844 16.534 67.7378 16.4963 67.9396 16.4319C68.1328 16.3651 68.2587 16.252 68.3309 16.0771C68.3883 15.9434 68.4531 15.6177 68.4531 15.1474C68.4531 14.6772 68.3883 14.3527 68.3309 14.2178Z" fill="#0061AF"/>
<path d="M84.0707 15.1474C84.0707 15.6274 84.0145 16.0236 83.902 16.3189C83.7883 16.6263 83.4019 17.3214 81.5237 17.3214C79.6454 17.3214 79.259 16.6263 79.1453 16.3189C79.0328 16.0236 78.9766 15.6274 78.9766 15.1474C78.9766 14.6674 79.0328 14.2713 79.1453 13.976C79.259 13.6685 79.6454 12.9734 81.5237 12.9734C83.4019 12.9734 83.7883 13.6673 83.902 13.976C84.0145 14.2713 84.0707 14.6662 84.0707 15.1474ZM83.0876 14.2178C83.0155 14.0428 82.8895 13.9298 82.6963 13.863C82.4958 13.7986 82.1412 13.7621 81.5237 13.7524C80.9061 13.7609 80.5527 13.7986 80.351 13.863C80.1578 13.9298 80.0318 14.0428 79.9597 14.2178C79.9022 14.3515 79.8374 14.6772 79.8374 15.1474C79.8374 15.6177 79.9022 15.9422 79.9597 16.0771C80.0318 16.252 80.1578 16.3651 80.351 16.4319C80.5515 16.4963 80.9049 16.5328 81.5237 16.5425C82.1412 16.534 82.4946 16.4963 82.6963 16.4319C82.8895 16.3651 83.0155 16.252 83.0876 16.0771C83.1451 15.9434 83.2099 15.6177 83.2099 15.1474C83.2099 14.6772 83.1451 14.3527 83.0876 14.2178Z" fill="#ED1C24"/>
<path d="M63.5974 14.0683C63.5485 13.8593 63.4592 13.6843 63.326 13.5324C63.1438 13.3295 62.9102 13.1958 62.6143 13.1217C62.3404 13.05 61.9442 13.016 61.389 13.016C60.7825 13.016 60.3717 13.0646 60.0941 13.1679C59.8654 13.2505 59.6747 13.4024 59.5341 13.6114C59.3702 13.3927 59.1672 13.2432 58.9141 13.1582C58.6267 13.0622 58.0924 13.0148 57.4186 13.0148C56.9124 13.0148 56.5651 13.05 56.356 13.1241H56.3536C56.1958 13.1837 56.0454 13.2833 55.8975 13.4255V13.2189H55.1136V17.2619H55.8901V14.6942C55.8901 14.0234 56.5761 13.7585 57.2694 13.7585H57.6167C58.31 13.7585 59.0021 14.0234 59.0021 14.6942V17.2619H59.7786V14.6942C59.7786 14.0234 60.4561 13.7585 61.1494 13.7585H61.4967C62.19 13.7585 62.8845 14.0234 62.8845 14.6942V17.2619H63.6598V15.0563C63.6598 14.5556 63.6402 14.2506 63.5962 14.0683H63.5974Z" fill="#0061AF"/>
<path d="M94.4804 15.4427H94.8778C94.8827 15.3479 94.8864 15.2495 94.8864 15.1474C94.8864 14.6662 94.8301 14.2713 94.7176 13.976C94.6039 13.6685 94.2175 12.9734 92.3393 12.9734C90.4611 12.9734 90.0747 13.6673 89.961 13.976C89.8485 14.2713 89.7922 14.6662 89.7922 15.1474C89.7922 15.6287 89.8485 16.0236 89.961 16.3189C90.0747 16.6263 90.4611 17.3214 92.3393 17.3214C94.2175 17.3214 94.6039 16.6263 94.7176 16.3189C94.7274 16.2921 94.7372 16.263 94.7458 16.235H93.8079C93.7357 16.3225 93.6379 16.3869 93.5107 16.4307C93.309 16.4951 92.9556 16.5315 92.3381 16.5413C91.7206 16.5328 91.3672 16.4951 91.1654 16.4307C90.9722 16.3638 90.8463 16.2508 90.7741 16.0758C90.7301 15.9726 90.6812 15.755 90.6616 15.4464H94.4792V15.4415L94.4804 15.4427ZM91.1679 13.8642C91.3684 13.7998 91.7218 13.7633 92.3405 13.7536C92.958 13.7621 93.3114 13.7998 93.5132 13.8642C93.7064 13.931 93.8323 14.044 93.9045 14.219C93.9424 14.3065 93.9827 14.4766 94.0072 14.716H90.6751C90.6983 14.4766 90.7399 14.3065 90.7778 14.219C90.8499 14.044 90.9759 13.931 91.1691 13.8642H91.1679Z" fill="#ED1C24"/>
<path d="M75.3179 13.0087V17.2607H76.0956V13.0087H75.3179Z" fill="#0061AF"/>
<path d="M74.6013 13.976C74.4876 13.6685 74.1012 12.9734 72.223 12.9734C71.504 12.9734 71.0051 13.0755 70.6554 13.2189V11.0875H69.8789V17.2716H70.6554V17.076C71.0051 17.2193 71.504 17.3214 72.223 17.3214C74.1012 17.3214 74.4876 16.6275 74.6013 16.3189C74.7138 16.0236 74.7701 15.6274 74.7701 15.1474C74.7701 14.6674 74.7138 14.2713 74.6013 13.976ZM73.7869 16.0771C73.7148 16.2521 73.5888 16.3651 73.3956 16.4319C73.1939 16.4963 72.8405 16.5328 72.223 16.5425C71.6055 16.534 71.3621 16.4963 71.1604 16.4319C70.9672 16.3651 70.8412 16.2521 70.7691 16.0771C70.7238 15.9713 70.6737 15.7453 70.6541 15.4233V14.8716C70.6737 14.5496 70.7238 14.3235 70.7691 14.2178C70.8412 14.0428 70.9672 13.9298 71.1604 13.863C71.3609 13.7986 71.6042 13.7621 72.223 13.7524C72.8405 13.7609 73.1939 13.7986 73.3956 13.863C73.5888 13.9298 73.7148 14.0428 73.7869 14.2178C73.8444 14.3515 73.9092 14.6772 73.9092 15.1474C73.9092 15.6177 73.8444 15.9422 73.7869 16.0771Z" fill="#0061AF"/>
</g>
</g>
<path d="M100 0H150V28.4091H100V0Z" fill="white"/>
<path d="M144 10H106V19H144V10Z" fill="white"/>
<mask id="mask3_31_151" style="mask-type:luminance" maskUnits="userSpaceOnUse" x="106" y="10" width="38" height="9">
<path d="M106 10V19H144V10H106Z" fill="white"/>
</mask>
<g mask="url(#mask3_31_151)">
<path fill-rule="evenodd" clip-rule="evenodd" d="M114.134 11.174H114.767C115.019 11.174 115.219 11.3628 115.219 11.5911V11.7053C115.219 11.938 115.014 12.1268 114.762 12.1268H114.448C114.02 12.1268 113.725 12.377 113.682 12.6141H113.678V11.7053V11.5911C113.678 11.3628 113.882 11.174 114.134 11.174ZM132.03 16.8942C131.754 16.8942 131.173 16.8856 130.831 16.6704C130.415 16.4176 130.419 15.9791 130.421 15.6365C130.422 15.6104 130.422 15.5844 130.422 15.5596V13.4873H131.916C132.168 13.4873 132.372 13.2985 132.372 13.0658V12.618H130.422V11.8277C130.422 11.595 130.217 11.4062 129.965 11.4062H129.332C129.08 11.4062 128.876 11.595 128.876 11.8277V12.618H125.66V11.8277C125.66 11.595 125.455 11.4062 125.203 11.4062H124.57C124.318 11.4062 124.113 11.595 124.113 11.8277V12.618H123.152V13.0746C123.152 13.3073 123.357 13.4961 123.609 13.4961H124.113V16.0908C124.113 16.7406 124.365 17.1227 124.813 17.3949C125.246 17.6583 125.75 17.7724 126.682 17.7724H127.191C127.444 17.7724 127.643 17.5837 127.643 17.351V16.8942H127.263C126.987 16.8942 126.406 16.8856 126.064 16.6704C125.649 16.4176 125.652 15.9791 125.654 15.6365C125.655 15.6103 125.655 15.5846 125.655 15.5596V13.4873H128.871V16.0821C128.871 16.7319 129.123 17.1139 129.57 17.3861C130.003 17.6495 130.503 17.7636 131.44 17.7636H131.944C132.196 17.7636 132.401 17.5749 132.401 17.3422V16.8856H132.03V16.8942ZM141.442 11.4071C141.694 11.4071 141.899 11.5959 141.899 11.8286H141.894V15.5605C141.894 15.5848 141.894 15.6098 141.894 15.6353V15.6363V15.6374C141.891 15.98 141.888 16.4184 142.303 16.6713C142.646 16.8864 143.226 16.8952 143.502 16.8952H143.883V17.3518C143.883 17.5845 143.683 17.7732 143.431 17.7732H142.922C141.989 17.7732 141.485 17.659 141.052 17.3956C140.605 17.1234 140.353 16.7415 140.353 16.0917V11.8286C140.353 11.5959 140.557 11.4071 140.809 11.4071H141.442ZM112.499 12.619C112.099 12.619 111.766 12.8385 111.604 13.1547L109.93 16.4431C109.892 16.5222 109.811 16.6451 109.744 16.6451C109.677 16.6451 109.597 16.5178 109.559 16.4431L107.87 13.1547C107.708 12.8385 107.375 12.619 106.975 12.619H106L108.659 17.3695C108.914 17.8271 109.435 17.8264 109.717 17.8261H109.739C110.12 17.8261 110.567 17.8086 110.805 17.3695L113.464 12.6146H112.499V12.619ZM114.767 12.619H114.134C113.882 12.619 113.678 12.8078 113.678 13.0405V17.3564C113.678 17.5891 113.882 17.7779 114.134 17.7779H114.767C115.019 17.7779 115.224 17.5891 115.224 17.3564V13.0405C115.219 12.8034 115.019 12.619 114.767 12.619ZM120.886 14.6973C121.19 14.6973 121.229 14.5304 121.229 14.3943C121.229 14.0738 121.005 13.8323 120.781 13.7006C120.396 13.4855 119.896 13.4679 119.463 13.4679H119.434C119.025 13.4677 118.412 13.4674 118.003 13.8104C117.708 14.0545 117.698 14.3138 117.687 14.6231V14.6246C117.686 14.6485 117.685 14.6727 117.684 14.6973V15.2241C117.684 14.9299 118.136 14.6973 118.693 14.6973H120.886ZM122.599 16.8968V17.3534C122.599 17.5817 122.394 17.7706 122.147 17.7794H118.726C118.017 17.7794 117.175 17.7266 116.595 17.1251C116.133 16.6421 116.095 15.931 116.095 15.2505C116.095 14.2889 116.162 13.5777 116.928 13.0903C117.689 12.603 118.878 12.603 119.535 12.603C120.348 12.603 121.195 12.6293 121.837 12.9323C122.656 13.3142 122.827 13.9553 122.827 14.6051C122.827 14.8685 122.789 15.1714 122.499 15.3822C122.289 15.5358 122.023 15.5754 121.747 15.5754H117.689C117.689 15.7993 117.727 16.1286 117.779 16.2866C117.974 16.8398 118.621 16.8968 119.188 16.8968H122.599ZM137.891 14.3943C137.891 14.5304 137.853 14.6973 137.549 14.6973H135.356C134.799 14.6973 134.347 14.93 134.347 15.2241V14.6973C134.348 14.6719 134.349 14.6468 134.35 14.6221C134.361 14.3132 134.37 14.0543 134.661 13.8104C135.07 13.4674 135.687 13.4677 136.093 13.4679H136.122C136.559 13.4679 137.059 13.4855 137.439 13.7006C137.668 13.8323 137.891 14.0738 137.891 14.3943ZM139.262 17.3534V16.8968H135.85C135.284 16.8968 134.637 16.8398 134.442 16.2866C134.39 16.1286 134.352 15.7993 134.352 15.5754H138.41C138.686 15.5754 138.952 15.5358 139.162 15.3822C139.452 15.1714 139.49 14.8685 139.49 14.6051C139.49 13.9553 139.319 13.3143 138.5 12.9323C137.853 12.6293 137.011 12.603 136.193 12.603C135.536 12.603 134.347 12.603 133.586 13.0903C132.825 13.5777 132.758 14.2889 132.758 15.2505C132.758 15.931 132.796 16.6422 133.258 17.1251C133.838 17.7266 134.68 17.7794 135.394 17.7794H138.814C139.057 17.7706 139.262 17.5817 139.262 17.3534Z" fill="#EF0032"/>
</g>
<path d="M150 0H200V28.4091H150V0Z" fill="white"/>
<path d="M154.973 21.8802L155.95 19.6934H156.942L155.301 23.276H154.641L153 19.6934H153.992L154.973 21.8802Z" fill="#FF6B00"/>
<path d="M157.799 17.8091C158.144 17.8091 158.423 18.0755 158.423 18.4224C158.423 18.7692 158.144 19.0357 157.799 19.0357C157.453 19.0357 157.174 18.7692 157.174 18.4224C157.174 18.0755 157.453 17.8091 157.799 17.8091ZM158.277 23.2759H157.321V19.6933H158.277V23.2759Z" fill="#FF6B00"/>
<path d="M162.161 22.707C161.815 23.1205 161.249 23.3508 160.697 23.3508C159.63 23.3508 158.826 22.6127 158.826 21.4888C158.826 20.4898 159.503 19.6184 160.564 19.6184C161.55 19.6184 162.249 20.4537 162.249 21.4499C162.249 21.5471 162.241 21.6414 162.227 21.7247H159.755C159.807 22.2269 160.21 22.5738 160.719 22.5738C161.122 22.5738 161.448 22.3463 161.617 22.1603L162.161 22.707ZM161.271 21.0226C161.241 20.7034 160.956 20.3954 160.564 20.3954C160.172 20.3954 159.843 20.6979 159.799 21.0226H161.271Z" fill="#FF6B00"/>
<path d="M165.368 23.2759C165.244 23.3203 164.957 23.3509 164.774 23.3509C164.2 23.3509 163.78 23.1594 163.539 22.8347C163.354 22.5905 163.274 22.2741 163.274 21.7635V20.5064H162.282V19.6934H163.274V18.6971H164.23V19.6934H165.407V20.5064H164.23V21.8745C164.23 22.0965 164.266 22.2297 164.349 22.3241C164.446 22.4351 164.6 22.5017 164.835 22.5017C164.976 22.5017 165.158 22.4795 165.225 22.4656L165.371 23.2787L165.368 23.2759Z" fill="#FF6B00"/>
<path d="M165.957 23.2759V19.6933H166.877V19.9819C167.147 19.7599 167.487 19.6212 167.885 19.6212C168.379 19.6212 168.827 19.8432 169.12 20.1984C169.355 20.4787 169.487 20.8422 169.487 21.4555V23.2815H168.531V21.3833C168.531 21.0281 168.451 20.845 168.319 20.7118C168.194 20.5869 168.001 20.512 167.783 20.512C167.379 20.512 167.048 20.7701 166.915 20.956V23.2842H165.959L165.957 23.2759Z" fill="#FF6B00"/>
<path d="M173.65 23.2759H172.731V22.9873C172.435 23.2398 172.098 23.3481 171.736 23.3481C171.206 23.3481 170.706 23.1122 170.391 22.7431C170.112 22.4184 169.935 21.9744 169.935 21.486C169.935 20.4287 170.714 19.6156 171.686 19.6156C172.09 19.6156 172.452 19.7488 172.731 19.9792V19.6906H173.65V23.2731V23.2759ZM172.695 20.9504C172.496 20.684 172.178 20.5064 171.811 20.5064C171.253 20.5064 170.891 20.9726 170.891 21.4888C170.891 22.0493 171.294 22.4628 171.833 22.4628C172.192 22.4628 172.51 22.2852 172.695 22.0188V20.9477V20.9504Z" fill="#FF6B00"/>
<path d="M174.407 23.2759V19.6933H175.327V19.9819C175.606 19.7322 175.946 19.6212 176.292 19.6212C176.778 19.6212 177.212 19.8432 177.491 20.1817C177.778 19.8793 178.225 19.6212 178.756 19.6212C179.248 19.6212 179.72 19.8432 180.007 20.1984C180.237 20.4787 180.366 20.8478 180.366 21.3806V23.2787H179.411V21.3417C179.411 21.017 179.344 20.8533 179.234 20.7284C179.087 20.5647 178.88 20.5064 178.698 20.5064C178.286 20.5064 177.963 20.795 177.836 20.9782C177.85 21.0975 177.866 21.2307 177.866 21.3778V23.2759H176.91V21.3389C176.91 21.0143 176.844 20.8505 176.734 20.7257C176.587 20.5619 176.38 20.5036 176.198 20.5036C175.794 20.5036 175.499 20.7784 175.366 20.9477V23.2759H174.41H174.407Z" fill="#FF6B00"/>
<path d="M182.715 19.6184C183.795 19.6184 184.613 20.4537 184.613 21.4888C184.613 22.5239 183.795 23.3508 182.715 23.3508C181.634 23.3508 180.817 22.5239 180.817 21.4888C180.817 20.4537 181.634 19.6184 182.715 19.6184ZM182.715 22.4656C183.273 22.4656 183.657 22.0299 183.657 21.4888C183.657 20.9477 183.275 20.5064 182.715 20.5064C182.154 20.5064 181.773 20.9504 181.773 21.4888C181.773 22.0271 182.154 22.4656 182.715 22.4656Z" fill="#FF6B00"/>
<path d="M185.118 23.2759V18.0283H186.074V19.9487C186.353 19.7266 186.69 19.6156 187.082 19.6156C188.055 19.6156 188.834 20.4287 188.834 21.486C188.834 21.9744 188.657 22.4157 188.378 22.7431C188.063 23.1122 187.563 23.3481 187.033 23.3481C186.673 23.3481 186.334 23.2371 186.038 22.9873V23.2759H185.118ZM186.074 22.0216C186.256 22.288 186.574 22.4656 186.936 22.4656C187.472 22.4656 187.878 22.0521 187.878 21.4888C187.878 20.9726 187.519 20.5064 186.958 20.5064C186.591 20.5064 186.273 20.684 186.077 20.9504V22.0216H186.074Z" fill="#FF6B00"/>
<path d="M189.839 17.8091C190.185 17.8091 190.464 18.0755 190.464 18.4224C190.464 18.7692 190.185 19.0357 189.839 19.0357C189.494 19.0357 189.215 18.7692 189.215 18.4224C189.215 18.0755 189.494 17.8091 189.839 17.8091ZM190.32 23.2759H189.364V19.6933H190.32V23.2759Z" fill="#FF6B00"/>
<path d="M192.055 18.0311H191.099V23.2787H192.055V18.0311Z" fill="#FF6B00"/>
<path d="M195.909 22.707C195.564 23.1205 194.997 23.3508 194.445 23.3508C193.378 23.3508 192.577 22.6127 192.577 21.4888C192.577 20.4898 193.254 19.6184 194.315 19.6184C195.301 19.6184 196 20.4537 196 21.4499C196 21.5471 195.992 21.6414 195.978 21.7247H193.505C193.558 22.2269 193.961 22.5738 194.47 22.5738C194.876 22.5738 195.199 22.3463 195.367 22.1603L195.912 22.707H195.909ZM195.019 21.0226C194.989 20.7034 194.702 20.3954 194.312 20.3954C193.923 20.3954 193.591 20.6979 193.547 21.0226H195.019Z" fill="#FF6B00"/>
<path d="M169.482 15.9859C168.965 15.9859 168.465 15.7167 168.189 15.2366L164.172 8.24905C163.76 7.53308 164.003 6.61454 164.719 6.20106C165.432 5.78758 166.343 6.03179 166.758 6.75052L170.775 13.7381C171.186 14.454 170.943 15.3698 170.23 15.7861C169.996 15.922 169.739 15.9859 169.484 15.9859" fill="#FF6B00"/>
<path d="M179.518 15.9859C179.264 15.9859 179.007 15.9221 178.775 15.7861C178.062 15.3726 177.817 14.4568 178.228 13.7381L182.245 6.75053C182.657 6.03457 183.568 5.78759 184.284 6.20107C184.997 6.61455 185.242 7.53032 184.831 8.24905L180.814 15.2366C180.538 15.7167 180.038 15.9859 179.521 15.9859" fill="#FF6B00"/>
<path d="M174.499 15.9859C174.244 15.9859 173.988 15.9221 173.753 15.7861C173.04 15.3726 172.794 14.4568 173.206 13.7381L177.223 6.75053C177.634 6.03457 178.546 5.78759 179.261 6.20107C179.974 6.61455 180.22 7.53032 179.808 8.24905L175.792 15.2366C175.515 15.7167 175.012 15.9859 174.499 15.9859Z" fill="#FF6B00"/>
<path d="M169.479 15.9859C169.225 15.9859 168.968 15.9221 168.733 15.7861C168.02 15.3726 167.774 14.4568 168.186 13.7381L172.203 6.75053C172.615 6.03457 173.526 5.78759 174.242 6.20107C174.954 6.61455 175.2 7.53032 174.789 8.24905L170.772 15.2366C170.496 15.7167 169.996 15.9859 169.479 15.9859Z" fill="#FF6B00"/>
<path d="M200 0H250V28.4091H200V0Z" fill="white"/>
<path d="M244.887 7.38635H205.114V20.4546H244.887V7.38635Z" fill="white"/>
<mask id="mask4_31_151" style="mask-type:luminance" maskUnits="userSpaceOnUse" x="205" y="7" width="40" height="14">
<path d="M205.114 7.38639V20.4546H244.887V7.38639H205.114Z" fill="white"/>
</mask>
<g mask="url(#mask4_31_151)">
<mask id="mask5_31_151" style="mask-type:luminance" maskUnits="userSpaceOnUse" x="205" y="7" width="40" height="14">
<path d="M244.59 7.38635H205.398V20.4546H244.59V7.38635Z" fill="white"/>
</mask>
<g mask="url(#mask5_31_151)">
<path d="M237.647 10.6583C237.399 10.6583 237.262 10.7954 237.262 11.0501C237.262 11.1938 237.314 11.442 237.647 11.442C237.993 11.442 238.045 11.2003 238.045 11.0501C238.045 10.9064 237.993 10.6583 237.647 10.6583Z" fill="#020202"/>
<path d="M230.097 11.7424H228.399C227.335 11.7424 226.923 12.0885 226.923 12.9702V14.3416C226.923 15.2102 227.335 15.5498 228.38 15.5498H230.097C231.123 15.5498 231.521 15.2102 231.521 14.3416V12.9702C231.521 12.1016 231.11 11.7424 230.097 11.7424ZM227.785 12.9702C227.785 12.6567 227.785 12.5326 228.308 12.5326H230.195C230.646 12.5326 230.646 12.624 230.646 12.9179V14.3482C230.646 14.6812 230.646 14.7596 230.195 14.7596H228.308C227.785 14.7596 227.785 14.6551 227.785 14.3482V12.9702Z" fill="#020202"/>
<path d="M235.211 11.7425H232.925V9.44361C232.925 9.18237 232.762 9.02563 232.501 9.02563C232.233 9.02563 232.076 9.17584 232.076 9.44361V14.3548C232.076 15.2104 232.52 15.5565 233.617 15.5565H235.218C236.282 15.5565 236.72 15.1973 236.72 14.3287V12.9703C236.713 12.1017 236.275 11.7425 235.211 11.7425ZM235.446 14.7597H233.493C232.912 14.7597 232.912 14.6357 232.912 14.3548V12.5327H235.322C235.864 12.5327 235.864 12.6699 235.864 12.9899V14.3156C235.871 14.6814 235.871 14.7597 235.446 14.7597Z" fill="#020202"/>
<path d="M237.634 11.6249C237.392 11.6249 237.249 11.7882 237.249 12.0625V15.1058C237.249 15.3867 237.392 15.5565 237.647 15.5565C237.895 15.5565 238.052 15.3867 238.052 15.1058V12.069C238.052 11.7882 237.902 11.6249 237.634 11.6249Z" fill="#020202"/>
<path d="M239.005 9.02563C238.751 9.02563 238.6 9.18237 238.6 9.45014V15.132C238.6 15.3998 238.751 15.5565 239.012 15.5565C239.273 15.5565 239.417 15.3998 239.417 15.132V9.45014C239.417 9.18237 239.267 9.02563 239.005 9.02563Z" fill="#020202"/>
<path d="M243.322 11.7424H241.468C240.39 11.7424 239.952 12.095 239.952 12.9571V14.3286C239.952 15.1449 240.56 15.5564 241.748 15.5564H242.245C242.486 15.5564 242.63 15.3996 242.63 15.1515C242.63 14.9033 242.486 14.7596 242.245 14.7596H241.592C240.814 14.7596 240.814 14.4984 240.814 14.4069V14.0935H244.184C244.335 14.0935 244.589 14.0412 244.589 13.6755V12.8265C244.589 12.1734 244.374 11.7424 243.322 11.7424ZM240.814 12.9179C240.814 12.6371 240.814 12.5326 241.337 12.5326H243.446C243.636 12.5326 243.695 12.5587 243.708 12.5783C243.74 12.611 243.74 12.7089 243.74 12.8265V13.2836H240.814V12.9179Z" fill="#020202"/>
<path d="M224.905 11.7097H224.272C223.802 11.7097 223.469 11.7816 223.233 11.9252C222.998 11.775 222.665 11.7097 222.195 11.7097H221.562C220.504 11.7097 220.092 12.0559 220.092 12.9375V15.1384C220.092 15.38 220.223 15.478 220.334 15.5172C220.458 15.5629 220.595 15.5629 220.719 15.5172C220.804 15.4845 220.954 15.3866 220.954 15.1384V12.9375C220.954 12.6306 220.954 12.4999 221.477 12.4999H222.286C222.802 12.4999 222.802 12.6371 222.809 12.9049V12.9375V15.1384C222.802 15.2364 222.835 15.3278 222.887 15.4062C222.926 15.4584 222.979 15.4976 223.038 15.5237C223.096 15.5433 223.162 15.5564 223.227 15.5564H223.246C223.312 15.5564 223.377 15.5433 223.436 15.5237C223.495 15.4976 223.547 15.4584 223.586 15.4127C223.645 15.3343 223.671 15.2429 223.671 15.1449V12.9375V12.9049C223.671 12.6371 223.671 12.4999 224.193 12.4999H224.99C225.513 12.4999 225.513 12.6306 225.513 12.9375V15.1384C225.513 15.3931 225.656 15.4845 225.748 15.5172C225.807 15.5368 225.865 15.5498 225.924 15.5498H225.937C226.003 15.5498 226.068 15.5368 226.133 15.5172C226.225 15.4845 226.375 15.3866 226.375 15.1319V12.9375C226.368 12.0559 225.957 11.7097 224.905 11.7097Z" fill="#020202"/>
<path d="M217.852 12.4412C218.048 12.6371 218.205 12.8657 218.309 13.1204C218.414 13.3751 218.466 13.6494 218.466 13.9237C218.466 14.198 218.414 14.4723 218.309 14.727C218.205 14.9817 218.048 15.2102 217.852 15.4062L213.418 19.8406C213.026 20.2325 212.49 20.4545 211.935 20.4545C211.38 20.4545 210.844 20.2325 210.453 19.8406L206.012 15.4062C205.816 15.2102 205.665 14.9817 205.554 14.727C205.45 14.4723 205.398 14.198 205.398 13.9237C205.398 13.6494 205.45 13.3751 205.554 13.1204C205.659 12.8657 205.816 12.6371 206.012 12.4412L210.453 8.00025C210.844 7.6084 211.38 7.38635 211.935 7.38635C212.49 7.38635 213.026 7.6084 213.418 8.00025L217.852 12.4412Z" fill="#FFC425"/>
<path d="M213.418 11.4877L212.673 12.2322C212.608 12.2975 212.549 12.3824 212.516 12.4739C212.477 12.5653 212.458 12.6567 212.458 12.7547C212.458 12.9506 212.536 13.14 212.673 13.2771C212.81 13.4143 213 13.4927 213.196 13.4927C213.391 13.4927 213.581 13.4143 213.718 13.2771L214.182 12.8135C214.182 12.8135 214.351 12.9767 214.75 13.3751L215.214 13.8388L212.033 17.0193C211.889 17.163 211.713 17.176 211.576 17.0389L208.872 14.3417C208.846 14.3155 208.82 14.2829 208.807 14.2437C208.794 14.2045 208.787 14.1719 208.787 14.1327C208.787 14.0935 208.794 14.0543 208.813 14.0217C208.826 13.989 208.853 13.9563 208.879 13.9302L212.608 10.2011C212.68 10.1358 212.738 10.0509 212.778 9.95948C212.817 9.86805 212.836 9.77009 212.836 9.67213C212.836 9.57416 212.817 9.4762 212.784 9.38477C212.745 9.29334 212.693 9.20844 212.621 9.14313C212.549 9.07129 212.471 9.01904 212.379 8.97986C212.288 8.94067 212.19 8.92761 212.092 8.92761C211.994 8.92761 211.896 8.9472 211.804 8.98639C211.713 9.02557 211.635 9.08435 211.563 9.15619L207.318 13.3947C207.122 13.5972 207.011 13.8714 207.011 14.1523C207.011 14.4331 207.128 14.7074 207.331 14.9033L211.021 18.5867C211.217 18.7892 211.491 18.9002 211.772 18.9067C212.053 18.9067 212.327 18.8022 212.529 18.5998L216.539 14.5898C216.735 14.3874 216.846 14.1196 216.846 13.8323C216.846 13.5514 216.729 13.2771 216.526 13.0812L215.958 12.513L215.782 12.3367L214.92 11.4746C214.717 11.2787 214.443 11.1677 214.162 11.1677C213.881 11.1742 213.614 11.2852 213.418 11.4877Z" fill="black"/>
</g>
</g>
<path d="M250 0H300V28.4091H250V0Z" fill="white"/>
<mask id="mask6_31_151" style="mask-type:luminance" maskUnits="userSpaceOnUse" x="259" y="7" width="32" height="14">
<path d="M259 7V21H291V7H259Z" fill="white"/>
</mask>
<g mask="url(#mask6_31_151)">
<mask id="mask7_31_151" style="mask-type:luminance" maskUnits="userSpaceOnUse" x="259" y="7" width="32" height="14">
<path d="M290.36 7.91309H259.64V20.087H290.36V7.91309Z" fill="white"/>
</mask>
<g mask="url(#mask7_31_151)">
<path d="M269.654 13.6144C269.525 13.6139 269.397 13.6138 269.268 13.614C268.397 13.6149 268.39 13.6132 268.158 14.4283C268.025 14.8971 267.888 15.3679 267.805 15.8459C267.581 17.1253 268.276 17.7272 269.612 17.4366C270.238 17.3006 270.24 17.3003 270.338 17.8931C270.416 18.36 270.49 18.8274 270.56 19.2953C270.582 19.4386 270.625 19.5892 270.414 19.6637C268.947 20.1822 267.477 20.3075 266.059 19.5624C264.835 18.9192 264.304 17.5908 264.578 16.0785C264.714 15.3308 264.951 14.609 265.191 13.8884C265.266 13.6631 265.213 13.5888 264.973 13.6126C264.916 13.6156 264.859 13.6157 264.801 13.6129C263.883 13.61 263.883 13.61 263.882 12.7236C263.882 12.3182 263.892 11.9124 263.877 11.5075C263.869 11.2926 263.948 11.228 264.172 11.2335C264.701 11.2463 265.231 11.2256 265.76 11.2422C265.988 11.2493 266.091 11.174 266.153 10.9743C266.304 10.4818 266.482 9.9965 266.631 9.50354C266.692 9.3027 266.793 9.22948 267.021 9.23276C267.865 9.24494 268.71 9.24975 269.554 9.22808C269.883 9.21963 269.861 9.33924 269.783 9.55753C269.617 10.0174 269.476 10.4851 269.307 10.9438C269.22 11.1819 269.285 11.2523 269.546 11.2405C269.917 11.2237 270.291 11.2461 270.662 11.2323C270.881 11.2242 270.967 11.2823 270.962 11.5026C270.948 12.124 270.949 12.7459 270.96 13.3674C270.963 13.5671 270.885 13.625 270.685 13.6181C270.342 13.6064 269.998 13.6149 269.654 13.6144Z" fill="#FE0027"/>
<path d="M280.087 13.6229C280.492 14.4334 280.51 15.2908 280.442 16.1615C280.422 16.4259 280.244 16.4062 280.052 16.4059C278.363 16.4033 276.675 16.4023 274.986 16.4031C274.448 16.403 274.394 16.4864 274.621 16.9589C275.033 17.8137 276.291 18.0674 277.059 17.4186C277.293 17.2205 277.432 17.2298 277.67 17.3742C278.211 17.7017 278.761 18.0196 279.328 18.3047C279.652 18.4678 279.613 18.5964 279.391 18.8013C278.084 20.0071 276.514 20.291 274.791 19.928C272.904 19.5306 271.577 18.0361 271.347 16.1253C271.114 14.2014 272.051 12.3907 273.755 11.6152C275.188 10.9624 276.659 11.0043 278.116 11.5952C278.228 11.8319 278.014 11.9531 277.904 12.1058C277.818 12.2262 277.69 12.3177 277.593 12.4318C277.324 12.741 277.102 13.0826 276.857 13.4081C276.779 13.4794 276.677 13.5222 276.57 13.5287C276.354 13.5356 276.149 13.4556 275.933 13.4644C275.43 13.485 275.014 13.6534 274.758 14.0836C274.682 14.2103 274.602 14.3513 274.739 14.4927C275.215 14.602 275.696 14.5191 276.173 14.5427C276.497 14.5587 276.823 14.5169 277.145 14.5713C277.238 14.6134 277.349 14.656 277.217 14.7668C277.131 14.839 276.998 14.8181 276.859 14.9048C277.25 15.29 277.568 15.7133 278.005 16.0347C278.243 16.2092 278.329 16.0576 278.4 15.8729C278.544 15.6005 278.682 15.3257 278.832 15.0565C278.984 14.8593 279.098 14.6402 279.243 14.4388C279.418 14.182 279.62 13.9422 279.845 13.7229C279.907 13.6579 279.964 13.5639 280.087 13.6229Z" fill="#FE0027"/>
<path d="M285.41 11.2697C285.085 12.8572 284.739 14.4412 284.443 16.0335C284.276 16.9323 284.89 17.563 285.858 17.5462C286.072 17.5425 286.138 17.5558 286.085 17.7747C285.925 18.4458 285.784 19.121 285.639 19.7953C285.61 19.9311 285.592 20.0505 285.395 20.0661C283.632 20.2056 281.618 19.4052 281.243 17.4522C281.087 16.642 281.247 15.8379 281.417 15.0405C281.617 14.101 281.809 13.1601 282.004 12.2197C282.11 12.0174 282.289 11.9063 282.504 11.8139C283.125 11.5546 283.776 11.3642 284.444 11.2464C284.766 11.2494 285.095 11.0115 285.41 11.2697Z" fill="#FE0027"/>
<path d="M262.832 15.549C262.832 16.8861 262.82 18.2234 262.841 19.5602C262.846 19.8758 262.743 19.9419 262.432 19.9343C261.617 19.9143 260.801 19.9195 259.986 19.9322C259.733 19.9362 259.639 19.8779 259.64 19.619C259.649 16.9178 259.649 14.2165 259.64 11.5153C259.64 11.3094 259.689 11.2313 259.923 11.2344C260.795 11.2459 261.668 11.2478 262.541 11.2326C262.801 11.2281 262.839 11.3227 262.837 11.5376C262.828 12.8747 262.833 14.2118 262.832 15.549Z" fill="#FE0027"/>
<path d="M288.605 11.2467C288.372 11.2486 288.142 11.2071 287.926 11.1246C287.711 11.0422 287.515 10.9204 287.349 10.7662C287.184 10.612 287.052 10.4285 286.962 10.2262C286.872 10.0239 286.825 9.80679 286.824 9.58731C286.823 9.36784 286.868 9.15033 286.956 8.94729C287.044 8.74424 287.174 8.55965 287.338 8.40411C287.502 8.24857 287.697 8.12514 287.912 8.04092C288.126 7.9567 288.357 7.91333 288.589 7.91331C288.821 7.90966 289.052 7.94988 289.267 8.03161C289.483 8.11333 289.679 8.23491 289.844 8.3892C290.009 8.54349 290.139 8.72737 290.228 8.93003C290.317 9.13269 290.361 9.35003 290.36 9.56928C290.363 9.78868 290.32 10.0064 290.233 10.2099C290.146 10.4134 290.017 10.5986 289.854 10.7547C289.69 10.9108 289.496 11.0346 289.281 11.1191C289.067 11.2035 288.837 11.2469 288.605 11.2467Z" fill="#FE0027"/>
<path d="M285.41 11.2698C285.074 11.2917 284.739 11.3135 284.404 11.3354C284.368 11.3592 284.302 11.3822 284.29 11.3605C283.871 10.6254 283.121 10.1675 282.578 9.53803C282.556 9.11565 282.763 8.95772 283.211 8.85549C283.996 8.67406 284.801 8.57646 285.609 8.56454C285.819 8.56164 286.007 8.58551 285.945 8.83922C285.747 9.6458 285.688 10.4795 285.41 11.2698Z" fill="#FEC993"/>
<path d="M277.518 12.3815C277.68 12.0941 278.047 11.9456 278.116 11.5951C278.821 11.9536 279.43 12.4125 279.841 13.0765C279.947 13.2485 280.072 13.4138 280.087 13.6229C279.786 13.8757 279.551 14.181 279.308 14.4806L279.266 14.483C279.266 13.9677 278.837 13.7257 278.498 13.4355C278.173 13.1571 277.897 12.8357 277.58 12.5519C277.529 12.5065 277.477 12.4582 277.518 12.3815Z" fill="#FEC590"/>
<path d="M282.578 9.53796C283.049 9.81453 283.426 10.1886 283.784 10.5815C284.004 10.8229 284.292 11.015 284.404 11.3352C283.735 11.5132 283.057 11.6627 282.426 11.9541C282.27 12.0189 282.127 12.1088 282.004 12.2199C282.195 11.3258 282.386 10.4318 282.578 9.53796Z" fill="#FEAA82"/>
<path d="M277.519 12.3816C278.095 12.912 278.648 13.4678 279.258 13.9609C279.516 14.1695 279.191 14.3219 279.308 14.4807C279.176 14.6792 279.043 14.8776 278.911 15.0761C278.878 15.0902 278.841 15.0931 278.806 15.0842C278.772 15.0752 278.741 15.0551 278.721 15.0273C278.158 14.4006 277.503 13.8672 276.828 13.3536C276.993 12.988 277.257 12.6857 277.519 12.3816Z" fill="#FE8C75"/>
<path d="M274.518 14.5755C275.344 14.578 276.17 14.5821 276.996 14.5822C277.39 14.5822 277.435 14.509 277.298 14.1548C277.166 13.8133 276.866 13.6367 276.565 13.4568C276.653 13.4224 276.741 13.388 276.828 13.3536C277.287 13.3517 277.467 13.7467 277.756 13.9678C278.18 14.2918 278.529 14.7022 278.911 15.0759C278.802 15.3612 278.654 15.6318 278.47 15.8807C278.095 15.4448 277.577 15.1381 277.238 14.6698C276.462 14.665 275.686 14.6631 274.91 14.6525C274.778 14.6507 274.624 14.7118 274.518 14.5755Z" fill="#FC565C"/>
<path d="M277.238 14.6698C277.687 15.0386 278.232 15.3208 278.471 15.8806C278.374 16.3426 278.29 16.3706 277.917 16.1081C277.483 15.8026 277.228 15.3341 276.79 15.0325C276.76 15.0047 276.737 14.9709 276.723 14.9336C276.708 14.8963 276.703 14.8564 276.707 14.8169C276.722 14.7137 276.839 14.7469 276.919 14.736C277.027 14.7214 277.151 14.7752 277.238 14.6698Z" fill="#FE2A50"/>
</g>
</g>
<path d="M300 0H350V28.4091H300V0Z" fill="white"/>
<mask id="mask8_31_151" style="mask-type:luminance" maskUnits="userSpaceOnUse" x="305" y="10" width="39" height="10">
<path d="M344 10H305V19.1838H344V10Z" fill="white"/>
</mask>
<g mask="url(#mask8_31_151)">
<path d="M323.648 18.2076C323.556 17.8616 323.625 17.4694 323.856 17.0307L327.102 10.8574C327.312 10.4649 327.584 10.2132 327.92 10.1025C328.086 10.0459 328.263 10.0253 328.438 10.0419C328.613 10.0585 328.783 10.1119 328.935 10.1988C329.091 10.2764 329.23 10.3866 329.339 10.522C329.45 10.6575 329.529 10.8149 329.574 10.9838C329.663 11.3222 329.589 11.7103 329.362 12.1375L326.147 18.2529C325.924 18.6763 325.643 18.9568 325.312 19.0801C325.148 19.1452 324.97 19.1725 324.794 19.1599C324.617 19.1473 324.446 19.0951 324.292 19.0071C324.134 18.9274 323.995 18.8152 323.884 18.678C323.773 18.5407 323.692 18.3815 323.646 18.2108" fill="#DC000B"/>
<path d="M320.117 18.2078C320.025 17.8619 320.094 17.4696 320.325 17.0309L323.571 10.8576C323.781 10.4651 324.054 10.2135 324.39 10.1028C324.556 10.0462 324.732 10.0255 324.907 10.0421C325.083 10.0587 325.252 10.1122 325.405 10.199C325.561 10.2773 325.698 10.3878 325.808 10.5231C325.919 10.6584 325.999 10.8155 326.044 10.984C326.131 11.3225 326.058 11.7106 325.832 12.1377L322.616 18.2532C322.393 18.6765 322.113 18.957 321.782 19.0803C321.617 19.1455 321.44 19.1728 321.264 19.1602C321.087 19.1477 320.916 19.0953 320.762 19.0073C320.604 18.9276 320.465 18.8154 320.354 18.6782C320.243 18.541 320.162 18.3817 320.117 18.211" fill="#DC000B"/>
<path d="M305.682 10.1844C305.835 10.0985 306.006 10.0474 306.182 10.0348C306.358 10.0222 306.534 10.0483 306.698 10.1114C307.029 10.2372 307.311 10.519 307.533 10.938L310.748 17.0541C310.976 17.485 311.045 17.8718 310.961 18.2077C310.917 18.3768 310.837 18.5345 310.727 18.67C310.617 18.8055 310.479 18.9155 310.322 18.9927C310.169 19.0788 309.999 19.1317 309.825 19.1482C309.649 19.1646 309.473 19.1443 309.306 19.0884C308.968 18.9732 308.695 18.7192 308.489 18.3336L305.247 12.1596C305.016 11.7234 304.947 11.3305 305.04 10.9808C305.083 10.8094 305.163 10.6495 305.273 10.512C305.384 10.3745 305.523 10.2627 305.682 10.1844Z" fill="#DC000B"/>
<path d="M309.574 10.1844C309.729 10.0981 309.899 10.0468 310.076 10.0342C310.252 10.0216 310.429 10.048 310.594 10.1114C310.925 10.2372 311.205 10.519 311.428 10.938L314.644 17.0541C314.871 17.485 314.94 17.8718 314.856 18.2077C314.812 18.3768 314.732 18.5345 314.622 18.67C314.512 18.8055 314.374 18.9156 314.217 18.9927C314.064 19.0788 313.894 19.1317 313.719 19.1482C313.544 19.1646 313.368 19.1443 313.201 19.0884C312.863 18.9732 312.59 18.7192 312.383 18.3336L309.14 12.1596C308.908 11.7247 308.839 11.3324 308.932 10.9826C308.975 10.811 309.054 10.6507 309.165 10.5128C309.276 10.375 309.416 10.2629 309.574 10.1844Z" fill="#DC000B"/>
<path d="M323.906 18.7644C323.668 18.5027 323.545 18.1221 323.545 17.6372L323.54 11.4726C323.54 11.0323 323.666 10.6807 323.91 10.4266C324.03 10.3003 324.175 10.2005 324.336 10.1335C324.498 10.0666 324.671 10.034 324.845 10.0378C325.018 10.033 325.191 10.0659 325.35 10.1343C325.509 10.2028 325.651 10.3051 325.767 10.4341C326.002 10.6958 326.118 11.0631 326.118 11.5456L326.122 17.6422C326.122 18.1152 325.996 18.4926 325.767 18.7537C325.654 18.8873 325.512 18.9934 325.351 19.0641C325.191 19.1347 325.016 19.1682 324.841 19.162C324.463 19.1538 324.149 19.0273 323.906 18.7619" fill="#FF0000"/>
<path d="M312.408 18.2267C312.314 17.8807 312.382 17.4877 312.609 17.0478L315.818 10.8543C316.022 10.4612 316.294 10.2052 316.632 10.0913C316.797 10.0327 316.974 10.0103 317.149 10.0258C317.324 10.0414 317.494 10.0944 317.647 10.1813C317.804 10.2581 317.943 10.3678 318.054 10.5029C318.165 10.638 318.245 10.7954 318.291 10.9644C318.381 11.3022 318.311 11.6916 318.086 12.12L314.909 18.2556C314.689 18.6802 314.41 18.9626 314.08 19.0877C313.916 19.1532 313.738 19.1808 313.561 19.1684C313.385 19.156 313.214 19.1038 313.06 19.0161C312.902 18.9371 312.762 18.8259 312.65 18.6894C312.538 18.553 312.456 18.3944 312.408 18.2241" fill="#FF0000"/>
<path d="M308.486 18.2077C308.394 17.8618 308.463 17.4695 308.694 17.0308L311.94 10.8575C312.15 10.465 312.422 10.2134 312.758 10.1026C312.924 10.0445 313.101 10.0227 313.276 10.0388C313.452 10.0548 313.622 10.1084 313.775 10.1957C313.931 10.2735 314.069 10.3837 314.179 10.5191C314.289 10.6545 314.369 10.8119 314.414 10.9808C314.501 11.3192 314.428 11.7073 314.202 12.1344L310.986 18.2499C310.763 18.6732 310.483 18.9538 310.151 19.0771C309.986 19.1423 309.81 19.1696 309.633 19.157C309.457 19.1443 309.285 19.0921 309.132 19.0041C308.973 18.9256 308.833 18.8138 308.722 18.6765C308.611 18.539 308.53 18.3792 308.486 18.2077Z" fill="#FF0000"/>
<path d="M320.963 10.0266C321.219 10.0264 321.469 10.1021 321.681 10.2441C321.894 10.3861 322.06 10.5879 322.158 10.8241C322.256 11.0603 322.282 11.3202 322.232 11.571C322.182 11.8218 322.059 12.0522 321.878 12.233C321.698 12.4139 321.467 12.5371 321.217 12.587C320.966 12.6369 320.706 12.6114 320.47 12.5135C320.234 12.4157 320.031 12.25 319.889 12.0374C319.748 11.8248 319.671 11.5749 319.671 11.3192C319.671 10.9765 319.808 10.6478 320.05 10.4054C320.292 10.163 320.621 10.0267 320.963 10.0266Z" fill="#FF0000"/>
<path d="M316.286 18.2077C316.195 17.8618 316.264 17.4695 316.494 17.0308L318.214 13.7227C318.421 13.3308 318.694 13.0767 319.031 12.9679C319.198 12.9157 319.372 12.8972 319.546 12.9133C319.72 12.9294 319.889 12.98 320.043 13.0619C320.197 13.1439 320.333 13.2556 320.443 13.3906C320.554 13.5257 320.636 13.6814 320.685 13.8485C320.774 14.187 320.701 14.5757 320.473 15.0022L318.785 18.2487C318.562 18.672 318.282 18.9525 317.95 19.0758C317.786 19.141 317.609 19.1683 317.433 19.1557C317.256 19.1431 317.085 19.0908 316.932 19.0028C316.773 18.9245 316.634 18.8133 316.522 18.6765C316.411 18.5399 316.33 18.3809 316.286 18.2102" fill="#FF0000"/>
<path d="M343.981 17.6523C343.981 18.1222 343.859 18.4972 343.631 18.757C343.536 18.8689 343.421 18.9619 343.291 19.0312H343.288L343.274 19.0381C343.101 19.1234 342.91 19.1656 342.718 19.1607C342.347 19.1531 342.035 19.0267 341.797 18.7631C341.558 18.4997 341.441 18.1247 341.441 17.6435V16.5693V11.4595C341.441 11.0192 341.567 10.6725 341.805 10.4203C341.922 10.2955 342.065 10.1967 342.222 10.1302C342.38 10.0637 342.55 10.0309 342.722 10.0341C342.746 10.0341 342.771 10.0341 342.795 10.0341C342.954 10.0386 343.109 10.0758 343.253 10.1432C343.398 10.2106 343.526 10.3068 343.631 10.426C343.863 10.6858 343.976 11.055 343.976 11.5305V12.8327L343.981 17.6523Z" fill="#353535"/>
<path d="M340.75 15.411C340.75 16.2779 340.3 16.5848 339.335 16.5848H336.41C336.556 17.0516 337.059 17.3347 337.813 17.3347C338.135 17.3286 338.453 17.2647 338.752 17.1459C338.889 17.0899 339.037 17.0686 339.184 17.084C339.331 17.0996 339.471 17.1511 339.593 17.2344C339.715 17.3176 339.815 17.4299 339.882 17.561C339.951 17.6921 339.985 17.838 339.982 17.9857C339.982 18.3593 339.73 18.6777 339.4 18.8261C338.795 19.0517 338.154 19.1648 337.508 19.1595C335.496 19.1595 333.95 17.9291 333.95 15.8356C333.95 13.9549 335.405 12.4615 337.429 12.4615C339.254 12.4238 340.792 13.851 340.75 15.411ZM338.486 15.0645C338.392 14.6776 338.101 14.2914 337.427 14.2914C336.791 14.2914 336.488 14.6512 336.382 15.0645H338.486Z" fill="#353535"/>
<path d="M334.073 18.1492C334.074 18.3562 334.005 18.5575 333.877 18.7203C333.749 18.8832 333.571 18.998 333.369 19.0462C333.073 19.1268 332.769 19.1657 332.462 19.162C331.051 19.162 330.288 18.4531 330.288 17.1076V11.1387C330.283 10.991 330.308 10.8438 330.361 10.7059C330.414 10.5679 330.495 10.4421 330.597 10.3359C330.7 10.2296 330.823 10.1451 330.959 10.0874C331.095 10.0297 331.241 10 331.389 10C331.537 10 331.683 10.0297 331.819 10.0874C331.955 10.1451 332.078 10.2296 332.181 10.3359C332.284 10.4421 332.364 10.5679 332.417 10.7059C332.47 10.8438 332.495 10.991 332.49 11.1387V12.1904H333.066C333.323 12.1904 333.57 12.2925 333.751 12.4743C333.933 12.6561 334.035 12.9026 334.035 13.1597C334.035 13.4168 333.933 13.6634 333.751 13.8452C333.57 14.0269 333.323 14.129 333.066 14.129H332.488V16.4855C332.488 16.8761 332.705 17.1774 333.065 17.1944H333.281C333.756 17.2233 334.073 17.6573 334.073 18.1492Z" fill="#353535"/>
</g>
<path d="M300 0H350V28.4091H300V0Z" fill="white"/>
<mask id="mask9_31_151" style="mask-type:luminance" maskUnits="userSpaceOnUse" x="305" y="10" width="39" height="10">
<path d="M344 10H305V19.1838H344V10Z" fill="white"/>
</mask>
<g mask="url(#mask9_31_151)">
<path d="M323.648 18.2076C323.556 17.8616 323.625 17.4694 323.856 17.0307L327.102 10.8574C327.312 10.4649 327.584 10.2132 327.92 10.1025C328.086 10.0459 328.263 10.0253 328.438 10.0419C328.613 10.0585 328.783 10.1119 328.935 10.1988C329.091 10.2764 329.23 10.3866 329.339 10.522C329.45 10.6575 329.529 10.8149 329.574 10.9838C329.663 11.3222 329.589 11.7103 329.362 12.1375L326.147 18.2529C325.924 18.6763 325.643 18.9568 325.312 19.0801C325.148 19.1452 324.97 19.1725 324.794 19.1599C324.617 19.1473 324.446 19.0951 324.292 19.0071C324.134 18.9274 323.995 18.8152 323.884 18.678C323.773 18.5407 323.692 18.3815 323.646 18.2108" fill="#DC000B"/>
<path d="M320.117 18.2078C320.025 17.8619 320.094 17.4696 320.325 17.0309L323.571 10.8576C323.781 10.4651 324.054 10.2135 324.39 10.1028C324.556 10.0462 324.732 10.0255 324.907 10.0421C325.083 10.0587 325.252 10.1122 325.405 10.199C325.561 10.2773 325.698 10.3878 325.808 10.5231C325.919 10.6584 325.999 10.8155 326.044 10.984C326.131 11.3225 326.058 11.7106 325.832 12.1377L322.616 18.2532C322.393 18.6765 322.113 18.957 321.782 19.0803C321.617 19.1455 321.44 19.1728 321.264 19.1602C321.087 19.1477 320.916 19.0953 320.762 19.0073C320.604 18.9276 320.465 18.8154 320.354 18.6782C320.243 18.541 320.162 18.3817 320.117 18.211" fill="#DC000B"/>
<path d="M305.682 10.1844C305.835 10.0985 306.006 10.0474 306.182 10.0348C306.358 10.0222 306.534 10.0483 306.698 10.1114C307.029 10.2372 307.311 10.519 307.533 10.938L310.748 17.0541C310.976 17.485 311.045 17.8718 310.961 18.2077C310.917 18.3768 310.837 18.5345 310.727 18.67C310.617 18.8055 310.479 18.9155 310.322 18.9927C310.169 19.0788 309.999 19.1317 309.825 19.1482C309.649 19.1646 309.473 19.1443 309.306 19.0884C308.968 18.9732 308.695 18.7192 308.489 18.3336L305.247 12.1596C305.016 11.7234 304.947 11.3305 305.04 10.9808C305.083 10.8094 305.163 10.6495 305.273 10.512C305.384 10.3745 305.523 10.2627 305.682 10.1844Z" fill="#DC000B"/>
<path d="M309.574 10.1844C309.729 10.0981 309.899 10.0468 310.076 10.0342C310.252 10.0216 310.429 10.048 310.594 10.1114C310.925 10.2372 311.205 10.519 311.428 10.938L314.644 17.0541C314.871 17.485 314.94 17.8718 314.856 18.2077C314.812 18.3768 314.732 18.5345 314.622 18.67C314.512 18.8055 314.374 18.9156 314.217 18.9927C314.064 19.0788 313.894 19.1317 313.719 19.1482C313.544 19.1646 313.368 19.1443 313.201 19.0884C312.863 18.9732 312.59 18.7192 312.383 18.3336L309.14 12.1596C308.908 11.7247 308.839 11.3324 308.932 10.9826C308.975 10.811 309.054 10.6507 309.165 10.5128C309.276 10.375 309.416 10.2629 309.574 10.1844Z" fill="#DC000B"/>
<path d="M323.906 18.7644C323.668 18.5027 323.545 18.1221 323.545 17.6372L323.54 11.4726C323.54 11.0323 323.666 10.6807 323.91 10.4266C324.03 10.3003 324.175 10.2005 324.336 10.1335C324.498 10.0666 324.671 10.034 324.845 10.0378C325.018 10.033 325.191 10.0659 325.35 10.1343C325.509 10.2028 325.651 10.3051 325.767 10.4341C326.002 10.6958 326.118 11.0631 326.118 11.5456L326.122 17.6422C326.122 18.1152 325.996 18.4926 325.767 18.7537C325.654 18.8873 325.512 18.9934 325.351 19.0641C325.191 19.1347 325.016 19.1682 324.841 19.162C324.463 19.1538 324.149 19.0273 323.906 18.7619" fill="#FF0000"/>
<path d="M312.408 18.2267C312.314 17.8807 312.382 17.4877 312.609 17.0478L315.818 10.8543C316.022 10.4612 316.294 10.2052 316.632 10.0913C316.797 10.0327 316.974 10.0103 317.149 10.0258C317.324 10.0414 317.494 10.0944 317.647 10.1813C317.804 10.2581 317.943 10.3678 318.054 10.5029C318.165 10.638 318.245 10.7954 318.291 10.9644C318.381 11.3022 318.311 11.6916 318.086 12.12L314.909 18.2556C314.689 18.6802 314.41 18.9626 314.08 19.0877C313.916 19.1532 313.738 19.1808 313.561 19.1684C313.385 19.156 313.214 19.1038 313.06 19.0161C312.902 18.9371 312.762 18.8259 312.65 18.6894C312.538 18.553 312.456 18.3944 312.408 18.2241" fill="#FF0000"/>
<path d="M308.486 18.2077C308.394 17.8618 308.463 17.4695 308.694 17.0308L311.94 10.8575C312.15 10.465 312.422 10.2134 312.758 10.1026C312.924 10.0445 313.101 10.0227 313.276 10.0388C313.452 10.0548 313.622 10.1084 313.775 10.1957C313.931 10.2735 314.069 10.3837 314.179 10.5191C314.289 10.6545 314.369 10.8119 314.414 10.9808C314.501 11.3192 314.428 11.7073 314.202 12.1344L310.986 18.2499C310.763 18.6732 310.483 18.9538 310.151 19.0771C309.986 19.1423 309.81 19.1696 309.633 19.157C309.457 19.1443 309.285 19.0921 309.132 19.0041C308.973 18.9256 308.833 18.8138 308.722 18.6765C308.611 18.539 308.53 18.3792 308.486 18.2077Z" fill="#FF0000"/>
<path d="M320.963 10.0266C321.219 10.0264 321.469 10.1021 321.681 10.2441C321.894 10.3861 322.06 10.5879 322.158 10.8241C322.256 11.0603 322.282 11.3202 322.232 11.571C322.182 11.8218 322.059 12.0522 321.878 12.233C321.698 12.4139 321.467 12.5371 321.217 12.587C320.966 12.6369 320.706 12.6114 320.47 12.5135C320.234 12.4157 320.031 12.25 319.889 12.0374C319.748 11.8248 319.671 11.5749 319.671 11.3192C319.671 10.9765 319.808 10.6478 320.05 10.4054C320.292 10.163 320.621 10.0267 320.963 10.0266Z" fill="#FF0000"/>
<path d="M316.286 18.2077C316.195 17.8618 316.264 17.4695 316.494 17.0308L318.214 13.7227C318.421 13.3308 318.694 13.0767 319.031 12.9679C319.198 12.9157 319.372 12.8972 319.546 12.9133C319.72 12.9294 319.889 12.98 320.043 13.0619C320.197 13.1439 320.333 13.2556 320.443 13.3906C320.554 13.5257 320.636 13.6814 320.685 13.8485C320.774 14.187 320.701 14.5757 320.473 15.0022L318.785 18.2487C318.562 18.672 318.282 18.9525 317.95 19.0758C317.786 19.141 317.609 19.1683 317.433 19.1557C317.256 19.1431 317.085 19.0908 316.932 19.0028C316.773 18.9245 316.634 18.8133 316.522 18.6765C316.411 18.5399 316.33 18.3809 316.286 18.2102" fill="#FF0000"/>
<path d="M343.981 17.6523C343.981 18.1222 343.859 18.4972 343.631 18.757C343.536 18.8689 343.421 18.9619 343.291 19.0312H343.288L343.274 19.0381C343.101 19.1234 342.91 19.1656 342.718 19.1607C342.347 19.1531 342.035 19.0267 341.797 18.7631C341.558 18.4997 341.441 18.1247 341.441 17.6435V16.5693V11.4595C341.441 11.0192 341.567 10.6725 341.805 10.4203C341.922 10.2955 342.065 10.1967 342.222 10.1302C342.38 10.0637 342.55 10.0309 342.722 10.0341C342.746 10.0341 342.771 10.0341 342.795 10.0341C342.954 10.0386 343.109 10.0758 343.253 10.1432C343.398 10.2106 343.526 10.3068 343.631 10.426C343.863 10.6858 343.976 11.055 343.976 11.5305V12.8327L343.981 17.6523Z" fill="#353535"/>
<path d="M340.75 15.411C340.75 16.2779 340.3 16.5848 339.335 16.5848H336.41C336.556 17.0516 337.059 17.3347 337.813 17.3347C338.135 17.3286 338.453 17.2647 338.752 17.1459C338.889 17.0899 339.037 17.0686 339.184 17.084C339.331 17.0996 339.471 17.1511 339.593 17.2344C339.715 17.3176 339.815 17.4299 339.882 17.561C339.951 17.6921 339.985 17.838 339.982 17.9857C339.982 18.3593 339.73 18.6777 339.4 18.8261C338.795 19.0517 338.154 19.1648 337.508 19.1595C335.496 19.1595 333.95 17.9291 333.95 15.8356C333.95 13.9549 335.405 12.4615 337.429 12.4615C339.254 12.4238 340.792 13.851 340.75 15.411ZM338.486 15.0645C338.392 14.6776 338.101 14.2914 337.427 14.2914C336.791 14.2914 336.488 14.6512 336.382 15.0645H338.486Z" fill="#353535"/>
<path d="M334.073 18.1492C334.074 18.3562 334.005 18.5575 333.877 18.7203C333.749 18.8832 333.571 18.998 333.369 19.0462C333.073 19.1268 332.769 19.1657 332.462 19.162C331.051 19.162 330.288 18.4531 330.288 17.1076V11.1387C330.283 10.991 330.308 10.8438 330.361 10.7059C330.414 10.5679 330.495 10.4421 330.597 10.3359C330.7 10.2296 330.823 10.1451 330.959 10.0874C331.095 10.0297 331.241 10 331.389 10C331.537 10 331.683 10.0297 331.819 10.0874C331.955 10.1451 332.078 10.2296 332.181 10.3359C332.284 10.4421 332.364 10.5679 332.417 10.7059C332.47 10.8438 332.495 10.991 332.49 11.1387V12.1904H333.066C333.323 12.1904 333.57 12.2925 333.751 12.4743C333.933 12.6561 334.035 12.9026 334.035 13.1597C334.035 13.4168 333.933 13.6634 333.751 13.8452C333.57 14.0269 333.323 14.129 333.066 14.129H332.488V16.4855C332.488 16.8761 332.705 17.1774 333.065 17.1944H333.281C333.756 17.2233 334.073 17.6573 334.073 18.1492Z" fill="#353535"/>
</g>
</g>
<path d="M350 0H400V28.4091H350V0Z" fill="white"/>
<path d="M383.138 9.79221C382.535 8.96107 381.477 8.21088 380.16 7.6799C378.851 7.15182 377.33 6.85976 375.879 6.8577C374.427 6.85407 372.905 7.14311 371.593 7.66708C370.274 8.19409 369.214 8.94103 368.608 9.77021C368.025 10.5666 367.857 11.4249 368.122 12.2526C368.294 12.7894 368.795 13.1507 369.369 13.1515L371.335 13.1534H371.338C371.73 13.1533 372.098 12.9817 372.349 12.6823C372.595 12.3861 372.698 11.9989 372.63 11.6201C372.628 11.6089 372.625 11.5979 372.623 11.587L372.52 11.1847C373.092 10.9113 374.39 10.3832 375.873 10.3916C377.354 10.3992 378.651 10.927 379.225 11.2006L379.12 11.6004C379.116 11.6119 379.114 11.6232 379.112 11.6347C379.042 12.0133 379.143 12.4007 379.391 12.6977C379.641 12.9983 380.009 13.1711 380.403 13.1717L382.369 13.1735H382.37C382.944 13.1735 383.445 12.8139 383.618 12.2782C383.885 11.4507 383.72 10.5912 383.138 9.79221Z" fill="url(#paint0_linear_31_151)"/>
<path d="M380.316 15.1806L378.849 13.6409C378.761 13.5478 378.638 13.4951 378.51 13.4951H377.562V12.855C377.562 12.5956 377.352 12.3853 377.092 12.3853C376.833 12.3853 376.623 12.5956 376.623 12.855V13.4951H375.118V12.855C375.118 12.5956 374.908 12.3853 374.649 12.3853C374.389 12.3853 374.179 12.5956 374.179 12.855V13.4951H373.232C373.102 13.4951 372.98 13.5479 372.89 13.6409L371.425 15.1806C370.275 16.3877 369.643 17.9705 369.643 19.6375V21.57C369.643 21.8293 369.852 22.0397 370.111 22.0397H381.629C381.889 22.0397 382.099 21.8293 382.099 21.57V19.6375C382.099 17.9705 381.465 16.3878 380.316 15.1806ZM375.87 20.3228C374.515 20.3228 373.412 19.2199 373.412 17.8643C373.412 16.5088 374.515 15.4058 375.87 15.4058C377.226 15.4058 378.329 16.5088 378.329 17.8643C378.329 19.2199 377.226 20.3228 375.87 20.3228Z" fill="url(#paint1_linear_31_151)"/>
<path d="M375.872 16.7251C374.866 16.7251 374.049 17.5427 374.049 18.5478C374.049 19.553 374.866 20.3706 375.872 20.3706C376.876 20.3706 377.694 19.553 377.694 18.5478C377.694 17.5427 376.876 16.7251 375.872 16.7251Z" fill="url(#paint2_linear_31_151)"/>
<defs>
<linearGradient id="paint0_linear_31_151" x1="370.792" y1="7.2253" x2="375.011" y2="15.7656" gradientUnits="userSpaceOnUse">
<stop stop-color="#F97045"/>
<stop offset="1" stop-color="#EF2827"/>
</linearGradient>
<linearGradient id="paint1_linear_31_151" x1="371.851" y1="12.9473" x2="379.962" y2="21.4469" gradientUnits="userSpaceOnUse">
<stop stop-color="#F97045"/>
<stop offset="1" stop-color="#EF2827"/>
</linearGradient>
<linearGradient id="paint2_linear_31_151" x1="374.696" y1="16.9373" x2="377.696" y2="19.3744" gradientUnits="userSpaceOnUse">
<stop stop-color="#F97045"/>
<stop offset="1" stop-color="#EF2827"/>
</linearGradient>
<clipPath id="clip0_31_151">
<rect width="350" height="29" fill="white"/>
</clipPath>
</defs>
</svg>
